{"glyphs":{"0":{"ha":1603,"x_min":99,"x_max":1504,"o":"m 802 -36 q 441 57 601 -36 q 190 322 282 149 q 99 730 99 496 q 190 1136 99 962 q 441 1403 282 1310 q 802 1496 601 1496 q 1162 1403 1002 1496 q 1413 1136 1321 1310 q 1504 730 1504 962 q 1413 322 1504 496 q 1162 57 1321 149 q 802 -36 1002 -36 m 802 119 q 1044 199 944 119 q 1191 419 1143 280 q 1240 730 1240 558 q 1191 1041 1240 903 q 1044 1259 1143 1179 q 802 1339 944 1339 q 560 1259 659 1339 q 412 1041 460 1179 q 363 730 363 903 q 412 419 363 558 q 560 199 460 280 q 802 119 659 119 z "},"1":{"ha":732,"x_min":137,"x_max":595,"o":"m 252 135 l 252 1089 q 234 1158 252 1131 q 183 1210 216 1185 l 480 1482 l 480 135 l 595 0 l 137 0 l 252 135 z "},"2":{"ha":1143,"x_min":115,"x_max":1030,"o":"m 115 0 q 400 392 274 210 q 613 736 526 573 q 706 1048 706 911 q 673 1179 706 1125 q 567 1256 639 1232 q 506 1266 540 1266 q 350 1193 419 1266 q 264 1032 282 1121 l 139 1069 q 165 1188 145 1125 q 236 1312 185 1248 q 370 1421 288 1375 q 558 1466 452 1466 q 761 1409 665 1466 q 913 1246 857 1351 q 962 1006 968 1141 q 900 790 956 901 q 770 584 843 679 q 585 363 696 490 q 480 242 534 306 l 893 242 l 1030 355 l 982 0 l 115 0 z "},"3":{"ha":1188,"x_min":123,"x_max":1093,"o":"m 478 -8 q 351 -18 425 -18 q 143 6 236 -18 l 151 135 q 266 121 198 121 q 357 129 312 121 q 661 258 524 157 q 825 528 798 359 q 829 575 829 560 q 778 715 829 665 q 655 766 726 766 q 585 757 617 766 q 502 722 554 748 l 415 837 l 673 1238 l 242 1238 l 123 1113 l 151 1444 l 996 1444 l 671 942 q 784 960 726 960 q 1004 874 915 960 q 1093 635 1093 788 q 1089 567 1093 591 q 990 298 1071 419 q 777 97 909 177 q 478 -8 645 18 z "},"4":{"ha":1423,"x_min":87,"x_max":1304,"o":"m 815 127 l 815 310 l 97 310 q 87 315 87 310 q 95 329 87 317 l 1042 1474 q 1050 1476 1046 1478 q 1054 1470 1054 1474 l 1052 470 l 1177 470 l 1304 589 l 1304 308 l 1052 310 l 1052 127 l 1169 0 l 694 0 l 815 127 m 815 470 l 815 929 l 435 470 l 815 470 z "},"5":{"ha":1187,"x_min":111,"x_max":1067,"o":"m 111 135 q 230 123 159 123 q 491 165 359 123 q 712 296 623 206 q 790 414 762 345 q 817 552 817 482 q 790 681 817 621 q 708 776 762 740 q 552 825 637 825 q 380 775 462 825 q 264 667 298 724 q 129 768 242 681 l 244 1442 l 938 1442 l 903 1139 l 782 1250 l 367 1250 l 308 897 q 452 976 371 948 q 621 1004 534 1004 q 839 950 738 1004 q 1006 787 944 893 q 1067 558 1067 681 q 935 218 1067 371 q 656 25 819 85 q 325 -36 492 -36 q 111 -6 200 -36 l 111 135 z "},"6":{"ha":1194,"x_min":99,"x_max":1091,"o":"m 633 -48 q 353 32 474 -48 q 166 248 232 111 q 99 556 99 385 l 101 601 q 267 1143 119 944 q 604 1418 415 1341 q 962 1494 794 1494 q 1020 1492 1002 1494 l 1020 1363 q 739 1291 869 1353 q 520 1120 609 1228 q 401 867 431 1012 q 627 911 478 911 q 853 850 746 911 q 1026 679 960 790 q 1091 425 1091 567 q 1026 186 1091 294 q 854 15 960 77 q 633 -48 748 -48 m 619 115 q 765 153 694 115 q 880 261 835 190 q 925 425 925 331 q 835 665 925 583 q 615 746 746 746 q 464 704 532 746 q 361 588 397 663 q 329 421 325 514 q 417 195 337 276 q 619 115 496 115 z "},"7":{"ha":1135,"x_min":107,"x_max":1004,"o":"m 159 -2 q 309 646 181 312 q 605 1252 437 980 l 250 1252 l 107 1169 l 161 1454 l 1000 1454 l 1004 1357 l 942 1298 q 629 876 764 1119 q 414 398 494 633 q 312 -2 333 163 l 159 -2 z "},"8":{"ha":1210,"x_min":135,"x_max":1097,"o":"m 623 -30 q 361 30 472 -30 q 192 191 250 89 q 135 419 135 294 q 199 646 135 540 q 373 815 264 752 q 226 1117 226 929 q 276 1309 226 1222 q 417 1443 325 1395 q 629 1492 508 1492 q 888 1402 786 1492 q 998 1161 990 1312 q 951 975 1004 1063 q 819 833 899 887 q 1019 667 940 774 q 1097 431 1097 560 q 1095 395 1097 407 q 1021 176 1085 272 q 852 25 956 79 q 623 -30 748 -30 m 653 915 q 792 1022 742 952 q 841 1165 841 1091 q 802 1274 841 1228 q 685 1329 762 1319 q 659 1331 677 1331 q 529 1280 583 1331 q 474 1155 474 1228 q 496 1065 474 1107 q 564 978 522 1018 q 653 915 607 938 m 534 139 q 579 135 562 135 q 735 187 663 135 q 831 335 808 238 q 841 411 841 381 q 802 537 841 484 q 705 623 762 589 q 558 700 649 657 l 506 724 q 371 620 431 683 q 302 478 312 558 q 298 429 298 442 q 361 236 298 312 q 534 139 425 161 z "},"9":{"ha":1194,"x_min":103,"x_max":1095,"o":"m 562 1490 q 841 1411 720 1490 q 1029 1194 962 1331 q 1095 887 1095 1058 l 1093 841 q 928 300 1075 498 q 590 25 780 101 q 232 -52 401 -52 q 175 -50 192 -52 l 175 79 q 455 152 325 89 q 675 322 585 214 q 794 575 764 431 q 567 532 718 532 q 341 592 448 532 q 169 764 234 653 q 103 1018 103 875 q 169 1257 103 1149 q 340 1428 234 1365 q 562 1490 446 1490 m 575 1327 q 430 1290 500 1327 q 314 1182 359 1252 q 270 1018 270 1111 q 359 778 270 859 q 579 696 448 696 q 730 738 663 696 q 833 854 798 780 q 865 1022 869 929 q 778 1247 857 1167 q 575 1327 698 1327 z "}," ":{"ha":893,"x_min":0,"x_max":0,"o":""},"A":{"ha":1556,"x_min":95,"x_max":1460,"o":"m 214 131 l 770 1450 q 782 1464 776 1464 q 796 1450 790 1464 l 1335 123 l 1460 0 l 1024 0 l 1085 113 l 1022 274 l 448 274 l 387 129 l 450 0 l 95 0 l 214 131 m 958 433 l 742 974 l 514 433 l 958 433 z "},"Á":{"ha":1556,"x_min":95,"x_max":1460,"o":"m 214 131 l 770 1450 q 782 1464 776 1464 q 796 1450 790 1464 l 1335 123 l 1460 0 l 1024 0 l 1085 113 l 1022 274 l 448 274 l 387 129 l 450 0 l 95 0 l 214 131 m 958 433 l 742 974 l 514 433 l 958 433 m 613 1645 l 915 1931 l 992 1853 l 690 1565 l 613 1645 z "},"Ă":{"ha":1556,"x_min":95,"x_max":1460,"o":"m 214 131 l 770 1450 q 782 1464 776 1464 q 796 1450 790 1464 l 1335 123 l 1460 0 l 1024 0 l 1085 113 l 1022 274 l 448 274 l 387 129 l 450 0 l 95 0 l 214 131 m 958 433 l 742 974 l 514 433 l 958 433 m 782 1573 q 623 1614 700 1573 q 518 1708 546 1655 l 579 1790 q 671 1715 617 1744 q 782 1687 724 1687 q 893 1715 839 1687 q 984 1790 946 1744 l 1044 1708 q 937 1613 1012 1653 q 782 1573 861 1573 z "},"Ắ":{"ha":1556,"x_min":95,"x_max":1460,"o":"m 214 131 l 770 1450 q 782 1464 776 1464 q 796 1450 790 1464 l 1335 123 l 1460 0 l 1024 0 l 1085 113 l 1022 274 l 448 274 l 387 129 l 450 0 l 95 0 l 214 131 m 958 433 l 742 974 l 514 433 l 958 433 z "},"Ặ":{"ha":1556,"x_min":95,"x_max":1460,"o":"m 214 131 l 770 1450 q 782 1464 776 1464 q 796 1450 790 1464 l 1335 123 l 1460 0 l 1024 0 l 1085 113 l 1022 274 l 448 274 l 387 129 l 450 0 l 95 0 l 214 131 m 958 433 l 742 974 l 514 433 l 958 433 m 782 1573 q 623 1614 700 1573 q 518 1708 546 1655 l 579 1790 q 671 1715 617 1744 q 782 1687 724 1687 q 893 1715 839 1687 q 984 1790 946 1744 l 1044 1708 q 937 1613 1012 1653 q 782 1573 861 1573 z "},"Ằ":{"ha":1556,"x_min":95,"x_max":1460,"o":"m 214 131 l 770 1450 q 782 1464 776 1464 q 796 1450 790 1464 l 1335 123 l 1460 0 l 1024 0 l 1085 113 l 1022 274 l 448 274 l 387 129 l 450 0 l 95 0 l 214 131 m 958 433 l 742 974 l 514 433 l 958 433 z "},"Ẳ":{"ha":1556,"x_min":95,"x_max":1460,"o":"m 214 131 l 770 1450 q 782 1464 776 1464 q 796 1450 790 1464 l 1335 123 l 1460 0 l 1024 0 l 1085 113 l 1022 274 l 448 274 l 387 129 l 450 0 l 95 0 l 214 131 m 958 433 l 742 974 l 514 433 l 958 433 z "},"Ẵ":{"ha":1556,"x_min":95,"x_max":1460,"o":"m 214 131 l 770 1450 q 782 1464 776 1464 q 796 1450 790 1464 l 1335 123 l 1460 0 l 1024 0 l 1085 113 l 1022 274 l 448 274 l 387 129 l 450 0 l 95 0 l 214 131 m 958 433 l 742 974 l 514 433 l 958 433 z "},"Ǎ":{"ha":1556,"x_min":95,"x_max":1460,"o":"m 214 131 l 770 1450 q 782 1464 776 1464 q 796 1450 790 1464 l 1335 123 l 1460 0 l 1024 0 l 1085 113 l 1022 274 l 448 274 l 387 129 l 450 0 l 95 0 l 214 131 m 958 433 l 742 974 l 514 433 l 958 433 m 782 1694 l 1020 1790 l 1020 1675 l 782 1565 l 544 1675 l 544 1790 l 782 1694 z "},"Â":{"ha":1556,"x_min":95,"x_max":1460,"o":"m 214 131 l 770 1450 q 782 1464 776 1464 q 796 1450 790 1464 l 1335 123 l 1460 0 l 1024 0 l 1085 113 l 1022 274 l 448 274 l 387 129 l 450 0 l 95 0 l 214 131 m 958 433 l 742 974 l 514 433 l 958 433 m 544 1653 l 782 1762 l 1020 1653 l 1020 1538 l 782 1633 l 544 1538 l 544 1653 z "},"Ấ":{"ha":1556,"x_min":95,"x_max":1460,"o":"m 214 131 l 770 1450 q 782 1464 776 1464 q 796 1450 790 1464 l 1335 123 l 1460 0 l 1024 0 l 1085 113 l 1022 274 l 448 274 l 387 129 l 450 0 l 95 0 l 214 131 m 958 433 l 742 974 l 514 433 l 958 433 z "},"Ậ":{"ha":1556,"x_min":95,"x_max":1460,"o":"m 214 131 l 770 1450 q 782 1464 776 1464 q 796 1450 790 1464 l 1335 123 l 1460 0 l 1024 0 l 1085 113 l 1022 274 l 448 274 l 387 129 l 450 0 l 95 0 l 214 131 m 958 433 l 742 974 l 514 433 l 958 433 m 544 1653 l 782 1762 l 1020 1653 l 1020 1538 l 782 1633 l 544 1538 l 544 1653 z "},"Ầ":{"ha":1556,"x_min":95,"x_max":1460,"o":"m 214 131 l 770 1450 q 782 1464 776 1464 q 796 1450 790 1464 l 1335 123 l 1460 0 l 1024 0 l 1085 113 l 1022 274 l 448 274 l 387 129 l 450 0 l 95 0 l 214 131 m 958 433 l 742 974 l 514 433 l 958 433 z "},"Ẩ":{"ha":1556,"x_min":95,"x_max":1460,"o":"m 214 131 l 770 1450 q 782 1464 776 1464 q 796 1450 790 1464 l 1335 123 l 1460 0 l 1024 0 l 1085 113 l 1022 274 l 448 274 l 387 129 l 450 0 l 95 0 l 214 131 m 958 433 l 742 974 l 514 433 l 958 433 z "},"Ẫ":{"ha":1556,"x_min":95,"x_max":1460,"o":"m 214 131 l 770 1450 q 782 1464 776 1464 q 796 1450 790 1464 l 1335 123 l 1460 0 l 1024 0 l 1085 113 l 1022 274 l 448 274 l 387 129 l 450 0 l 95 0 l 214 131 m 958 433 l 742 974 l 514 433 l 958 433 z "},"Ä":{"ha":1556,"x_min":95,"x_max":1460,"o":"m 214 131 l 770 1450 q 782 1464 776 1464 q 796 1450 790 1464 l 1335 123 l 1460 0 l 1024 0 l 1085 113 l 1022 274 l 448 274 l 387 129 l 450 0 l 95 0 l 214 131 m 958 433 l 742 974 l 514 433 l 958 433 z "},"Ạ":{"ha":1556,"x_min":95,"x_max":1460,"o":"m 214 131 l 770 1450 q 782 1464 776 1464 q 796 1450 790 1464 l 1335 123 l 1460 0 l 1024 0 l 1085 113 l 1022 274 l 448 274 l 387 129 l 450 0 l 95 0 l 214 131 m 958 433 l 742 974 l 514 433 l 958 433 z "},"À":{"ha":1556,"x_min":95,"x_max":1460,"o":"m 214 131 l 770 1450 q 782 1464 776 1464 q 796 1450 790 1464 l 1335 123 l 1460 0 l 1024 0 l 1085 113 l 1022 274 l 448 274 l 387 129 l 450 0 l 95 0 l 214 131 m 958 433 l 742 974 l 514 433 l 958 433 m 563 1853 l 641 1931 l 942 1645 l 865 1565 l 563 1853 z "},"Ả":{"ha":1556,"x_min":95,"x_max":1460,"o":"m 214 131 l 770 1450 q 782 1464 776 1464 q 796 1450 790 1464 l 1335 123 l 1460 0 l 1024 0 l 1085 113 l 1022 274 l 448 274 l 387 129 l 450 0 l 95 0 l 214 131 m 958 433 l 742 974 l 514 433 l 958 433 m 732 1556 q 750 1630 734 1605 q 796 1683 766 1655 q 822 1709 813 1696 q 831 1740 831 1722 q 829 1756 831 1750 q 772 1796 821 1796 q 732 1787 752 1796 q 704 1760 712 1778 l 655 1839 q 719 1898 681 1877 q 800 1919 758 1919 q 913 1865 867 1919 q 948 1768 948 1821 q 928 1686 948 1726 q 865 1615 907 1645 q 831 1585 841 1597 q 823 1556 821 1573 l 732 1556 z "},"Ā":{"ha":1556,"x_min":95,"x_max":1460,"o":"m 214 131 l 770 1450 q 782 1464 776 1464 q 796 1450 790 1464 l 1335 123 l 1460 0 l 1024 0 l 1085 113 l 1022 274 l 448 274 l 387 129 l 450 0 l 95 0 l 214 131 m 958 433 l 742 974 l 514 433 l 958 433 m 492 1704 l 1071 1704 l 1071 1599 l 492 1599 l 492 1704 z "},"Ą":{"ha":1556,"x_min":95,"x_max":1460,"o":"m 1167 -151 q 1189 -180 1173 -169 q 1228 -190 1206 -190 q 1300 -165 1266 -190 l 1345 -222 q 1280 -282 1319 -262 q 1198 -302 1240 -302 q 1092 -262 1137 -302 q 1048 -157 1048 -222 q 1139 0 1048 -54 l 1024 0 l 1085 113 l 1022 274 l 448 274 l 387 129 l 450 0 l 95 0 l 214 131 l 770 1450 q 782 1464 776 1464 q 796 1450 790 1464 l 1335 123 l 1460 0 l 1254 0 q 1187 -58 1210 -24 q 1163 -125 1163 -91 q 1167 -151 1163 -135 m 958 433 l 742 974 l 514 433 l 958 433 z "},"Å":{"ha":1556,"x_min":95,"x_max":1460,"o":"m 1024 0 l 1085 113 l 1022 274 l 448 274 l 387 129 l 450 0 l 95 0 l 214 131 l 734 1367 q 623 1441 669 1385 q 577 1565 577 1498 q 639 1708 577 1649 q 782 1768 700 1768 q 923 1706 861 1768 q 984 1565 984 1645 q 939 1439 984 1496 q 829 1367 895 1383 l 1335 123 l 1460 0 l 1024 0 m 683 1565 q 710 1494 683 1522 q 782 1466 738 1466 q 852 1494 825 1466 q 879 1565 879 1522 q 852 1636 879 1609 q 782 1663 825 1663 q 710 1636 738 1663 q 683 1565 683 1609 m 958 433 l 742 974 l 514 433 l 958 433 z "},"Ã":{"ha":1556,"x_min":95,"x_max":1460,"o":"m 214 131 l 770 1450 q 782 1464 776 1464 q 796 1450 790 1464 l 1335 123 l 1460 0 l 1024 0 l 1085 113 l 1022 274 l 448 274 l 387 129 l 450 0 l 95 0 l 214 131 m 958 433 l 742 974 l 514 433 l 958 433 m 490 1603 q 484 1603 486 1599 q 484 1613 482 1607 q 647 1740 526 1740 q 796 1708 704 1740 q 966 1669 909 1669 q 1073 1702 1026 1669 q 1079 1702 1077 1706 q 1079 1692 1081 1698 q 915 1573 1044 1573 q 756 1605 851 1573 q 665 1634 700 1625 q 599 1643 629 1643 q 490 1603 542 1643 z "},"Æ":{"ha":2022,"x_min":69,"x_max":1911,"o":"m 1867 331 q 1911 312 1887 323 l 1819 0 l 885 0 l 994 115 l 994 274 l 508 274 l 409 129 l 464 0 l 69 0 l 192 131 l 984 1284 l 885 1389 l 1788 1389 l 1859 1125 l 1687 1226 l 1238 1226 l 1238 819 l 1512 819 l 1641 927 l 1641 560 l 1512 659 l 1238 659 l 1238 202 q 1440 149 1317 159 q 1516 145 1488 145 q 1867 331 1770 145 m 994 433 l 994 986 l 615 433 l 994 433 z "},"B":{"ha":1238,"x_min":123,"x_max":1147,"o":"m 232 111 l 232 1272 l 123 1389 l 685 1389 q 929 1300 833 1389 q 1024 1065 1024 1210 q 976 910 1024 976 q 851 804 929 843 q 1062 654 976 764 q 1147 409 1147 544 q 1083 203 1147 298 q 909 54 1020 109 q 663 -2 798 -2 l 123 -2 l 232 111 m 571 855 q 732 904 673 855 q 792 1050 792 952 q 742 1194 792 1149 q 589 1240 692 1240 l 464 1240 l 464 855 l 571 855 m 683 163 q 844 243 788 171 q 901 417 901 315 q 869 560 901 498 q 785 655 837 621 q 671 688 732 688 l 464 688 l 464 238 q 641 161 508 161 q 683 163 669 161 z "},"C":{"ha":1512,"x_min":99,"x_max":1397,"o":"m 853 -62 q 475 40 649 -62 q 200 314 302 141 q 99 694 99 488 q 200 1072 99 899 q 475 1347 302 1246 q 853 1448 649 1448 q 1154 1393 1014 1448 q 1397 1234 1294 1337 l 1397 990 l 1367 990 q 1179 1216 1304 1135 q 899 1298 1054 1298 q 601 1203 722 1298 q 422 970 480 1109 q 363 694 363 831 q 435 377 363 514 q 628 167 506 240 q 899 93 750 93 q 1179 178 1054 93 q 1369 409 1304 262 l 1397 409 l 1397 153 q 1154 -6 1294 50 q 853 -62 1014 -62 z "},"Ć":{"ha":1512,"x_min":99,"x_max":1397,"o":"m 853 -62 q 475 40 649 -62 q 200 314 302 141 q 99 694 99 488 q 200 1072 99 899 q 475 1347 302 1246 q 853 1448 649 1448 q 1154 1393 1014 1448 q 1397 1234 1294 1337 l 1397 990 l 1367 990 q 1179 1216 1304 1135 q 899 1298 1054 1298 q 601 1203 722 1298 q 422 970 480 1109 q 363 694 363 831 q 435 377 363 514 q 628 167 506 240 q 899 93 750 93 q 1179 178 1054 93 q 1369 409 1304 262 l 1397 409 l 1397 153 q 1154 -6 1294 50 q 853 -62 1014 -62 m 679 1603 l 980 1889 l 1058 1812 l 756 1524 l 679 1603 z "},"Č":{"ha":1512,"x_min":99,"x_max":1397,"o":"m 853 -62 q 475 40 649 -62 q 200 314 302 141 q 99 694 99 488 q 200 1072 99 899 q 475 1347 302 1246 q 853 1448 649 1448 q 1154 1393 1014 1448 q 1397 1234 1294 1337 l 1397 990 l 1367 990 q 1179 1216 1304 1135 q 899 1298 1054 1298 q 601 1203 722 1298 q 422 970 480 1109 q 363 694 363 831 q 435 377 363 514 q 628 167 506 240 q 899 93 750 93 q 1179 178 1054 93 q 1369 409 1304 262 l 1397 409 l 1397 153 q 1154 -6 1294 50 q 853 -62 1014 -62 m 847 1653 l 1085 1748 l 1085 1633 l 847 1524 l 609 1633 l 609 1748 l 847 1653 z "},"Ç":{"ha":1512,"x_min":99,"x_max":1397,"o":"m 899 1298 q 601 1203 722 1298 q 422 970 480 1109 q 363 694 363 831 q 435 377 363 514 q 628 167 506 240 q 899 93 750 93 q 1179 178 1054 93 q 1369 409 1304 262 l 1397 409 l 1397 153 q 1168 0 1300 56 q 885 -62 1036 -56 l 873 -85 q 942 -136 911 -99 q 974 -230 974 -173 q 926 -340 974 -298 q 813 -383 877 -383 q 736 -365 772 -383 q 677 -310 700 -347 l 720 -258 q 800 -282 766 -282 q 859 -224 859 -282 q 828 -164 859 -185 q 740 -143 798 -143 l 778 -58 q 435 65 589 -40 q 189 336 280 171 q 99 694 99 502 q 200 1072 99 899 q 475 1347 302 1246 q 853 1448 649 1448 q 1154 1393 1014 1448 q 1397 1234 1294 1337 l 1397 990 l 1367 990 q 1179 1216 1304 1135 q 899 1298 1054 1298 z "},"Ċ":{"ha":1512,"x_min":99,"x_max":1397,"o":"m 853 -62 q 475 40 649 -62 q 200 314 302 141 q 99 694 99 488 q 200 1072 99 899 q 475 1347 302 1246 q 853 1448 649 1448 q 1154 1393 1014 1448 q 1397 1234 1294 1337 l 1397 990 l 1367 990 q 1179 1216 1304 1135 q 899 1298 1054 1298 q 601 1203 722 1298 q 422 970 480 1109 q 363 694 363 831 q 435 377 363 514 q 628 167 506 240 q 899 93 750 93 q 1179 178 1054 93 q 1369 409 1304 262 l 1397 409 l 1397 153 q 1154 -6 1294 50 q 853 -62 1014 -62 z "},"D":{"ha":1514,"x_min":123,"x_max":1415,"o":"m 232 131 l 232 1260 l 123 1389 l 746 1387 q 1073 1293 919 1387 q 1321 1040 1228 1198 q 1415 692 1415 881 q 1327 342 1415 500 q 1073 92 1240 185 q 681 0 907 0 l 123 0 l 232 131 m 462 181 q 639 149 550 149 q 901 220 780 149 q 1092 421 1022 292 q 1159 712 1163 550 q 1089 960 1159 839 q 908 1156 1020 1081 q 673 1230 796 1230 l 462 1230 l 462 181 z "},"Ð":{"ha":1514,"x_min":123,"x_max":1415,"o":"m 746 1387 q 1073 1293 919 1387 q 1321 1040 1228 1198 q 1415 692 1415 881 q 1327 342 1415 500 q 1073 92 1240 185 q 681 0 907 0 l 123 0 l 232 131 l 232 637 l 135 637 l 135 812 l 232 812 l 232 1260 l 123 1389 l 746 1387 m 462 181 q 639 149 550 149 q 901 220 780 149 q 1092 421 1022 292 q 1159 712 1163 550 q 1089 960 1159 839 q 908 1156 1020 1081 q 673 1230 796 1230 l 462 1230 l 462 812 l 700 812 l 700 637 l 462 637 l 462 181 z "},"Ď":{"ha":1514,"x_min":123,"x_max":1415,"o":"m 232 131 l 232 1260 l 123 1389 l 746 1387 q 1073 1293 919 1387 q 1321 1040 1228 1198 q 1415 692 1415 881 q 1327 342 1415 500 q 1073 92 1240 185 q 681 0 907 0 l 123 0 l 232 131 m 462 181 q 639 149 550 149 q 901 220 780 149 q 1092 421 1022 292 q 1159 712 1163 550 q 1089 960 1159 839 q 908 1156 1020 1081 q 673 1230 796 1230 l 462 1230 l 462 181 m 698 1613 l 937 1708 l 937 1593 l 698 1484 l 460 1593 l 460 1708 l 698 1613 z "},"Đ":{"ha":1514,"x_min":123,"x_max":1415,"o":"m 746 1387 q 1073 1293 919 1387 q 1321 1040 1228 1198 q 1415 692 1415 881 q 1327 342 1415 500 q 1073 92 1240 185 q 681 0 907 0 l 123 0 l 232 131 l 232 637 l 135 637 l 135 812 l 232 812 l 232 1260 l 123 1389 l 746 1387 m 462 181 q 639 149 550 149 q 901 220 780 149 q 1092 421 1022 292 q 1159 712 1163 550 q 1089 960 1159 839 q 908 1156 1020 1081 q 673 1230 796 1230 l 462 1230 l 462 812 l 700 812 l 700 637 l 462 637 l 462 181 z "},"E":{"ha":1260,"x_min":123,"x_max":1149,"o":"m 232 115 l 232 1274 l 123 1389 l 1026 1389 l 1097 1125 l 925 1226 l 476 1226 l 476 819 l 750 819 l 879 927 l 879 560 l 750 659 l 476 659 l 476 202 q 679 149 556 159 q 754 145 726 145 q 1105 331 1008 145 q 1149 312 1125 323 l 1058 0 l 123 0 l 232 115 z "},"É":{"ha":1260,"x_min":123,"x_max":1149,"o":"m 232 115 l 232 1274 l 123 1389 l 1026 1389 l 1097 1125 l 925 1226 l 476 1226 l 476 819 l 750 819 l 879 927 l 879 560 l 750 659 l 476 659 l 476 202 q 679 149 556 159 q 754 145 726 145 q 1105 331 1008 145 q 1149 312 1125 323 l 1058 0 l 123 0 l 232 115 m 466 1563 l 768 1849 l 845 1772 l 544 1484 l 466 1563 z "},"Ě":{"ha":1260,"x_min":123,"x_max":1149,"o":"m 232 115 l 232 1274 l 123 1389 l 1026 1389 l 1097 1125 l 925 1226 l 476 1226 l 476 819 l 750 819 l 879 927 l 879 560 l 750 659 l 476 659 l 476 202 q 679 149 556 159 q 754 145 726 145 q 1105 331 1008 145 q 1149 312 1125 323 l 1058 0 l 123 0 l 232 115 m 635 1613 l 873 1708 l 873 1593 l 635 1484 l 397 1593 l 397 1708 l 635 1613 z "},"Ê":{"ha":1260,"x_min":123,"x_max":1149,"o":"m 232 115 l 232 1274 l 123 1389 l 1026 1389 l 1097 1125 l 925 1226 l 476 1226 l 476 819 l 750 819 l 879 927 l 879 560 l 750 659 l 476 659 l 476 202 q 679 149 556 159 q 754 145 726 145 q 1105 331 1008 145 q 1149 312 1125 323 l 1058 0 l 123 0 l 232 115 m 397 1607 l 635 1716 l 873 1607 l 873 1492 l 635 1587 l 397 1492 l 397 1607 z "},"Ế":{"ha":1260,"x_min":123,"x_max":1149,"o":"m 232 115 l 232 1274 l 123 1389 l 1026 1389 l 1097 1125 l 925 1226 l 476 1226 l 476 819 l 750 819 l 879 927 l 879 560 l 750 659 l 476 659 l 476 202 q 679 149 556 159 q 754 145 726 145 q 1105 331 1008 145 q 1149 312 1125 323 l 1058 0 l 123 0 l 232 115 z "},"Ệ":{"ha":1260,"x_min":123,"x_max":1149,"o":"m 232 115 l 232 1274 l 123 1389 l 1026 1389 l 1097 1125 l 925 1226 l 476 1226 l 476 819 l 750 819 l 879 927 l 879 560 l 750 659 l 476 659 l 476 202 q 679 149 556 159 q 754 145 726 145 q 1105 331 1008 145 q 1149 312 1125 323 l 1058 0 l 123 0 l 232 115 m 397 1607 l 635 1716 l 873 1607 l 873 1492 l 635 1587 l 397 1492 l 397 1607 z "},"Ề":{"ha":1260,"x_min":123,"x_max":1149,"o":"m 232 115 l 232 1274 l 123 1389 l 1026 1389 l 1097 1125 l 925 1226 l 476 1226 l 476 819 l 750 819 l 879 927 l 879 560 l 750 659 l 476 659 l 476 202 q 679 149 556 159 q 754 145 726 145 q 1105 331 1008 145 q 1149 312 1125 323 l 1058 0 l 123 0 l 232 115 z "},"Ể":{"ha":1260,"x_min":123,"x_max":1149,"o":"m 232 115 l 232 1274 l 123 1389 l 1026 1389 l 1097 1125 l 925 1226 l 476 1226 l 476 819 l 750 819 l 879 927 l 879 560 l 750 659 l 476 659 l 476 202 q 679 149 556 159 q 754 145 726 145 q 1105 331 1008 145 q 1149 312 1125 323 l 1058 0 l 123 0 l 232 115 z "},"Ễ":{"ha":1260,"x_min":123,"x_max":1149,"o":"m 232 115 l 232 1274 l 123 1389 l 1026 1389 l 1097 1125 l 925 1226 l 476 1226 l 476 819 l 750 819 l 879 927 l 879 560 l 750 659 l 476 659 l 476 202 q 679 149 556 159 q 754 145 726 145 q 1105 331 1008 145 q 1149 312 1125 323 l 1058 0 l 123 0 l 232 115 z "},"Ë":{"ha":1260,"x_min":123,"x_max":1149,"o":"m 232 115 l 232 1274 l 123 1389 l 1026 1389 l 1097 1125 l 925 1226 l 476 1226 l 476 819 l 750 819 l 879 927 l 879 560 l 750 659 l 476 659 l 476 202 q 679 149 556 159 q 754 145 726 145 q 1105 331 1008 145 q 1149 312 1125 323 l 1058 0 l 123 0 l 232 115 z "},"Ė":{"ha":1260,"x_min":123,"x_max":1149,"o":"m 232 115 l 232 1274 l 123 1389 l 1026 1389 l 1097 1125 l 925 1226 l 476 1226 l 476 819 l 750 819 l 879 927 l 879 560 l 750 659 l 476 659 l 476 202 q 679 149 556 159 q 754 145 726 145 q 1105 331 1008 145 q 1149 312 1125 323 l 1058 0 l 123 0 l 232 115 z "},"Ẹ":{"ha":1260,"x_min":123,"x_max":1149,"o":"m 232 115 l 232 1274 l 123 1389 l 1026 1389 l 1097 1125 l 925 1226 l 476 1226 l 476 819 l 750 819 l 879 927 l 879 560 l 750 659 l 476 659 l 476 202 q 679 149 556 159 q 754 145 726 145 q 1105 331 1008 145 q 1149 312 1125 323 l 1058 0 l 123 0 l 232 115 z "},"È":{"ha":1260,"x_min":123,"x_max":1149,"o":"m 232 115 l 232 1274 l 123 1389 l 1026 1389 l 1097 1125 l 925 1226 l 476 1226 l 476 819 l 750 819 l 879 927 l 879 560 l 750 659 l 476 659 l 476 202 q 679 149 556 159 q 754 145 726 145 q 1105 331 1008 145 q 1149 312 1125 323 l 1058 0 l 123 0 l 232 115 m 417 1772 l 494 1849 l 796 1563 l 718 1484 l 417 1772 z "},"Ẻ":{"ha":1260,"x_min":123,"x_max":1149,"o":"m 232 115 l 232 1274 l 123 1389 l 1026 1389 l 1097 1125 l 925 1226 l 476 1226 l 476 819 l 750 819 l 879 927 l 879 560 l 750 659 l 476 659 l 476 202 q 679 149 556 159 q 754 145 726 145 q 1105 331 1008 145 q 1149 312 1125 323 l 1058 0 l 123 0 l 232 115 m 585 1474 q 603 1549 587 1524 q 649 1601 619 1573 q 676 1628 667 1615 q 685 1659 685 1641 q 683 1675 685 1669 q 625 1714 675 1714 q 585 1705 605 1714 q 558 1679 565 1696 l 508 1758 q 572 1816 534 1796 q 653 1837 611 1837 q 766 1784 720 1837 q 802 1687 802 1740 q 781 1604 802 1645 q 718 1534 760 1563 q 685 1504 694 1516 q 677 1474 675 1492 l 585 1474 z "},"Ē":{"ha":1260,"x_min":123,"x_max":1149,"o":"m 232 115 l 232 1274 l 123 1389 l 1026 1389 l 1097 1125 l 925 1226 l 476 1226 l 476 819 l 750 819 l 879 927 l 879 560 l 750 659 l 476 659 l 476 202 q 679 149 556 159 q 754 145 726 145 q 1105 331 1008 145 q 1149 312 1125 323 l 1058 0 l 123 0 l 232 115 m 345 1623 l 925 1623 l 925 1518 l 345 1518 l 345 1623 z "},"Ę":{"ha":1260,"x_min":123,"x_max":1149,"o":"m 688 0 q 621 -58 645 -24 q 597 -125 597 -91 q 601 -151 597 -135 q 624 -180 607 -169 q 663 -190 641 -190 q 734 -165 700 -190 l 780 -222 q 714 -282 754 -262 q 633 -302 675 -302 q 527 -262 571 -302 q 482 -157 482 -222 q 573 0 482 -54 l 123 0 l 232 115 l 232 1274 l 123 1389 l 1026 1389 l 1097 1125 l 925 1226 l 476 1226 l 476 819 l 750 819 l 879 927 l 879 560 l 750 659 l 476 659 l 476 202 q 679 149 556 159 q 754 145 726 145 q 1105 331 1008 145 q 1149 312 1125 323 l 1058 0 l 688 0 z "},"Ẽ":{"ha":1260,"x_min":123,"x_max":1149,"o":"m 232 115 l 232 1274 l 123 1389 l 1026 1389 l 1097 1125 l 925 1226 l 476 1226 l 476 819 l 750 819 l 879 927 l 879 560 l 750 659 l 476 659 l 476 202 q 679 149 556 159 q 754 145 726 145 q 1105 331 1008 145 q 1149 312 1125 323 l 1058 0 l 123 0 l 232 115 m 343 1522 q 337 1522 339 1518 q 337 1532 335 1526 q 500 1659 379 1659 q 649 1627 558 1659 q 819 1587 762 1587 q 927 1621 879 1587 q 933 1621 931 1625 q 933 1611 935 1617 q 768 1492 897 1492 q 609 1524 704 1492 q 518 1553 554 1544 q 452 1562 482 1562 q 343 1522 395 1562 z "},"F":{"ha":1127,"x_min":123,"x_max":1032,"o":"m 232 111 l 232 1274 l 123 1389 l 976 1389 l 1032 1109 l 859 1226 l 476 1226 l 476 804 l 734 804 l 861 909 l 861 544 l 734 641 l 476 641 l 476 111 l 579 0 l 123 0 l 232 111 z "},"G":{"ha":1609,"x_min":99,"x_max":1524,"o":"m 855 -63 q 477 39 651 -63 q 201 314 304 141 q 99 692 99 488 q 201 1070 99 897 q 477 1346 304 1244 q 855 1448 651 1448 q 1127 1403 998 1448 q 1357 1272 1256 1357 l 1357 1004 l 1321 1004 q 1148 1219 1262 1143 q 885 1296 1034 1296 q 589 1202 706 1296 q 419 970 472 1109 q 365 694 365 831 q 437 375 365 512 q 630 165 508 238 q 901 91 752 91 q 1194 198 1075 91 l 1194 522 l 1081 643 l 1524 643 l 1427 522 q 1425 183 1425 397 q 1178 3 1335 69 q 855 -63 1020 -63 z "},"Ğ":{"ha":1609,"x_min":99,"x_max":1524,"o":"m 855 -63 q 477 39 651 -63 q 201 314 304 141 q 99 692 99 488 q 201 1070 99 897 q 477 1346 304 1244 q 855 1448 651 1448 q 1127 1403 998 1448 q 1357 1272 1256 1357 l 1357 1004 l 1321 1004 q 1148 1219 1262 1143 q 885 1296 1034 1296 q 589 1202 706 1296 q 419 970 472 1109 q 365 694 365 831 q 437 375 365 512 q 630 165 508 238 q 901 91 752 91 q 1194 198 1075 91 l 1194 522 l 1081 643 l 1524 643 l 1427 522 q 1425 183 1425 397 q 1178 3 1335 69 q 855 -63 1020 -63 m 857 1538 q 698 1578 776 1538 q 593 1673 621 1619 l 655 1754 q 746 1680 692 1708 q 857 1651 800 1651 q 968 1680 915 1651 q 1060 1754 1022 1708 l 1119 1673 q 1012 1577 1087 1617 q 857 1538 937 1538 z "},"Ģ":{"ha":1609,"x_min":99,"x_max":1524,"o":"m 855 -63 q 477 39 651 -63 q 201 314 304 141 q 99 692 99 488 q 201 1070 99 897 q 477 1346 304 1244 q 855 1448 651 1448 q 1127 1403 998 1448 q 1357 1272 1256 1357 l 1357 1004 l 1321 1004 q 1148 1219 1262 1143 q 885 1296 1034 1296 q 589 1202 706 1296 q 419 970 472 1109 q 365 694 365 831 q 437 375 365 512 q 630 165 508 238 q 901 91 752 91 q 1194 198 1075 91 l 1194 522 l 1081 643 l 1524 643 l 1427 522 q 1425 183 1425 397 q 1178 3 1335 69 q 855 -63 1020 -63 m 808 -417 q 799 -415 800 -419 q 802 -409 798 -411 q 825 -337 825 -367 q 782 -305 798 -327 q 766 -258 766 -282 q 792 -189 766 -218 q 857 -161 817 -161 q 918 -188 889 -161 q 946 -264 946 -216 q 907 -365 946 -323 q 808 -417 867 -407 z "},"Ġ":{"ha":1609,"x_min":99,"x_max":1524,"o":"m 855 -63 q 477 39 651 -63 q 201 314 304 141 q 99 692 99 488 q 201 1070 99 897 q 477 1346 304 1244 q 855 1448 651 1448 q 1127 1403 998 1448 q 1357 1272 1256 1357 l 1357 1004 l 1321 1004 q 1148 1219 1262 1143 q 885 1296 1034 1296 q 589 1202 706 1296 q 419 970 472 1109 q 365 694 365 831 q 437 375 365 512 q 630 165 508 238 q 901 91 752 91 q 1194 198 1075 91 l 1194 522 l 1081 643 l 1524 643 l 1427 522 q 1425 183 1425 397 q 1178 3 1335 69 q 855 -63 1020 -63 z "},"H":{"ha":1643,"x_min":123,"x_max":1520,"o":"m 232 111 l 232 1274 l 123 1389 l 579 1389 l 474 1274 l 474 845 l 1173 845 l 1173 1274 l 1063 1389 l 1520 1389 l 1415 1274 l 1415 111 l 1520 0 l 1063 0 l 1173 111 l 1173 687 l 474 687 l 474 111 l 579 0 l 123 0 l 232 111 z "},"Ħ":{"ha":1643,"x_min":123,"x_max":1520,"o":"m 1415 111 l 1520 0 l 1063 0 l 1173 111 l 1173 687 l 474 687 l 474 111 l 579 0 l 123 0 l 232 111 l 232 992 l 131 992 l 131 1149 l 232 1149 l 232 1274 l 123 1389 l 579 1389 l 474 1274 l 474 1149 l 1173 1149 l 1173 1274 l 1063 1389 l 1520 1389 l 1415 1274 l 1415 1149 l 1512 1149 l 1512 992 l 1415 992 l 1415 111 m 1173 845 l 1173 992 l 474 992 l 474 845 l 1173 845 z "},"I":{"ha":714,"x_min":129,"x_max":585,"o":"m 238 111 l 238 1274 l 129 1389 l 585 1389 l 482 1274 l 482 111 l 585 0 l 129 0 l 238 111 z "},"Í":{"ha":714,"x_min":129,"x_max":585,"o":"m 238 111 l 238 1274 l 129 1389 l 585 1389 l 482 1274 l 482 111 l 585 0 l 129 0 l 238 111 m 188 1563 l 490 1849 l 567 1772 l 266 1484 l 188 1563 z "},"Ǐ":{"ha":714,"x_min":119,"x_max":595,"o":"m 238 111 l 238 1274 l 129 1389 l 585 1389 l 482 1274 l 482 111 l 585 0 l 129 0 l 238 111 m 357 1613 l 595 1708 l 595 1593 l 357 1484 l 119 1593 l 119 1708 l 357 1613 z "},"Î":{"ha":714,"x_min":119,"x_max":595,"o":"m 238 111 l 238 1274 l 129 1389 l 585 1389 l 482 1274 l 482 111 l 585 0 l 129 0 l 238 111 m 119 1607 l 357 1716 l 595 1607 l 595 1492 l 357 1587 l 119 1492 l 119 1607 z "},"Ï":{"ha":714,"x_min":36,"x_max":685,"o":"m 238 111 l 238 1274 l 129 1389 l 585 1389 l 482 1274 l 482 111 l 585 0 l 129 0 l 238 111 z "},"İ":{"ha":714,"x_min":129,"x_max":585,"o":"m 238 111 l 238 1274 l 129 1389 l 585 1389 l 482 1274 l 482 111 l 585 0 l 129 0 l 238 111 z "},"Ị":{"ha":714,"x_min":129,"x_max":585,"o":"m 238 111 l 238 1274 l 129 1389 l 585 1389 l 482 1274 l 482 111 l 585 0 l 129 0 l 238 111 z "},"Ì":{"ha":714,"x_min":129,"x_max":585,"o":"m 238 111 l 238 1274 l 129 1389 l 585 1389 l 482 1274 l 482 111 l 585 0 l 129 0 l 238 111 m 139 1772 l 216 1849 l 518 1563 l 440 1484 l 139 1772 z "},"Ỉ":{"ha":714,"x_min":129,"x_max":585,"o":"m 238 111 l 238 1274 l 129 1389 l 585 1389 l 482 1274 l 482 111 l 585 0 l 129 0 l 238 111 m 308 1474 q 325 1549 310 1524 q 371 1601 341 1573 q 398 1628 389 1615 q 407 1659 407 1641 q 405 1675 407 1669 q 347 1714 397 1714 q 308 1705 327 1714 q 280 1679 288 1696 l 230 1758 q 295 1816 256 1796 q 375 1837 333 1837 q 488 1784 442 1837 q 524 1687 524 1740 q 503 1604 524 1645 q 440 1534 482 1563 q 407 1504 417 1516 q 399 1474 397 1492 l 308 1474 z "},"Ī":{"ha":714,"x_min":67,"x_max":647,"o":"m 238 111 l 238 1274 l 129 1389 l 585 1389 l 482 1274 l 482 111 l 585 0 l 129 0 l 238 111 m 67 1623 l 647 1623 l 647 1518 l 67 1518 l 67 1623 z "},"Į":{"ha":714,"x_min":129,"x_max":585,"o":"m 421 0 q 353 -58 377 -24 q 329 -125 329 -91 q 333 -151 329 -135 q 356 -180 339 -169 q 395 -190 373 -190 q 466 -165 433 -190 l 512 -222 q 446 -282 486 -262 q 365 -302 407 -302 q 259 -262 304 -302 q 214 -157 214 -222 q 306 0 214 -54 l 129 0 l 238 111 l 238 1274 l 129 1389 l 585 1389 l 482 1274 l 482 111 l 585 0 l 421 0 z "},"Ĩ":{"ha":714,"x_min":71,"x_max":641,"o":"m 79 1522 q 73 1523 75 1520 q 73 1532 71 1526 q 228 1659 115 1659 q 371 1627 286 1659 q 534 1587 476 1587 q 635 1621 587 1587 q 640 1621 639 1625 q 639 1611 641 1617 q 484 1492 607 1492 q 333 1524 425 1492 q 247 1553 282 1544 q 183 1562 212 1562 q 79 1522 127 1562 m 238 111 l 238 1274 l 129 1389 l 585 1389 l 482 1274 l 482 111 l 585 0 l 129 0 l 238 111 z "},"J":{"ha":1226,"x_min":107,"x_max":1111,"o":"m 546 -73 q 326 -22 423 -73 q 174 117 230 30 q 107 308 117 204 l 220 349 q 306 172 236 264 q 524 79 375 79 q 706 161 649 79 q 764 357 764 242 l 764 1276 l 655 1389 l 1111 1389 l 1006 1276 l 1006 375 q 946 133 1006 234 q 783 -21 887 32 q 546 -73 679 -73 z "},"K":{"ha":1526,"x_min":123,"x_max":1419,"o":"m 232 111 l 232 1274 l 123 1389 l 579 1389 l 474 1274 l 474 843 l 885 1302 l 810 1389 l 1260 1389 q 1164 1329 1216 1363 q 1089 1278 1111 1296 l 651 796 l 1248 111 q 1333 48 1274 87 q 1419 0 1393 8 l 859 0 l 923 113 l 494 623 l 474 601 l 474 111 l 579 0 l 123 0 l 232 111 z "},"Ķ":{"ha":1526,"x_min":123,"x_max":1419,"o":"m 232 111 l 232 1274 l 123 1389 l 579 1389 l 474 1274 l 474 843 l 885 1302 l 810 1389 l 1260 1389 q 1164 1329 1216 1363 q 1089 1278 1111 1296 l 651 796 l 1248 111 q 1333 48 1274 87 q 1419 0 1393 8 l 859 0 l 923 113 l 494 623 l 474 601 l 474 111 l 579 0 l 123 0 l 232 111 m 669 -373 q 660 -371 661 -375 q 663 -365 659 -367 q 687 -294 687 -323 q 643 -261 659 -284 q 627 -214 627 -238 q 653 -146 627 -175 q 718 -117 679 -117 q 779 -145 750 -117 q 808 -220 808 -173 q 768 -321 808 -280 q 669 -373 728 -363 z "},"L":{"ha":1236,"x_min":123,"x_max":1145,"o":"m 232 111 l 232 1274 l 123 1389 l 579 1389 l 476 1274 l 476 202 q 687 151 544 161 q 768 147 738 147 q 966 187 879 147 q 1111 333 1054 226 l 1145 317 l 1046 0 l 123 0 l 232 111 z "},"Ĺ":{"ha":1236,"x_min":123,"x_max":1145,"o":"m 232 111 l 232 1274 l 123 1389 l 579 1389 l 476 1274 l 476 202 q 687 151 544 161 q 768 147 738 147 q 966 187 879 147 q 1111 333 1054 226 l 1145 317 l 1046 0 l 123 0 l 232 111 m 482 1563 l 784 1849 l 861 1772 l 560 1484 l 482 1563 z "},"Ľ":{"ha":1236,"x_min":123,"x_max":1145,"o":"m 232 111 l 232 1274 l 123 1389 l 579 1389 l 476 1274 l 476 202 q 687 151 544 161 q 768 147 738 147 q 966 187 879 147 q 1111 333 1054 226 l 1145 317 l 1046 0 l 123 0 l 232 111 m 831 1149 q 822 1151 823 1147 q 825 1157 821 1155 q 849 1228 849 1198 q 806 1261 821 1238 q 790 1308 790 1284 q 815 1376 790 1347 q 881 1405 841 1405 q 941 1377 913 1405 q 970 1302 970 1349 q 931 1200 970 1242 q 831 1149 891 1159 z "},"Ļ":{"ha":1236,"x_min":123,"x_max":1145,"o":"m 232 111 l 232 1274 l 123 1389 l 579 1389 l 476 1274 l 476 202 q 687 151 544 161 q 768 147 738 147 q 966 187 879 147 q 1111 333 1054 226 l 1145 317 l 1046 0 l 123 0 l 232 111 m 601 -373 q 592 -371 593 -375 q 595 -365 591 -367 q 619 -294 619 -323 q 575 -261 591 -284 q 560 -214 560 -238 q 585 -146 560 -175 q 651 -117 611 -117 q 711 -145 683 -117 q 740 -220 740 -173 q 700 -321 740 -280 q 601 -373 661 -363 z "},"Ł":{"ha":1210,"x_min":121,"x_max":1145,"o":"m 1145 317 l 1046 0 l 123 0 l 232 111 l 232 631 l 121 579 l 121 756 l 232 808 l 232 1274 l 123 1389 l 579 1389 l 476 1274 l 476 919 l 585 968 l 585 792 l 476 742 l 476 202 q 687 151 544 161 q 768 147 738 147 q 966 187 879 147 q 1111 333 1054 226 l 1145 317 z "},"M":{"ha":1897,"x_min":119,"x_max":1770,"o":"m 431 921 l 393 95 l 498 0 l 119 0 l 228 111 l 284 1246 l 147 1389 l 466 1389 l 966 375 l 1431 1389 l 1724 1389 l 1611 1296 l 1661 111 l 1770 0 l 1313 0 l 1419 111 l 1393 901 l 929 -81 q 924 -85 927 -85 q 919 -81 921 -85 l 431 921 z "},"N":{"ha":1752,"x_min":111,"x_max":1637,"o":"m 448 1062 l 448 111 l 552 0 l 159 0 l 268 111 l 268 1234 l 111 1389 l 462 1389 l 1363 423 l 1363 1278 l 1258 1389 l 1637 1389 l 1528 1278 l 1528 -77 q 1520 -83 1528 -93 l 448 1062 z "},"Ń":{"ha":1752,"x_min":111,"x_max":1637,"o":"m 448 1062 l 448 111 l 552 0 l 159 0 l 268 111 l 268 1234 l 111 1389 l 462 1389 l 1363 423 l 1363 1278 l 1258 1389 l 1637 1389 l 1528 1278 l 1528 -77 q 1520 -83 1528 -93 l 448 1062 m 694 1563 l 996 1849 l 1073 1772 l 772 1484 l 694 1563 z "},"Ň":{"ha":1752,"x_min":111,"x_max":1637,"o":"m 448 1062 l 448 111 l 552 0 l 159 0 l 268 111 l 268 1234 l 111 1389 l 462 1389 l 1363 423 l 1363 1278 l 1258 1389 l 1637 1389 l 1528 1278 l 1528 -77 q 1520 -83 1528 -93 l 448 1062 m 863 1613 l 1101 1708 l 1101 1593 l 863 1484 l 625 1593 l 625 1708 l 863 1613 z "},"Ņ":{"ha":1752,"x_min":111,"x_max":1637,"o":"m 448 1062 l 448 111 l 552 0 l 159 0 l 268 111 l 268 1234 l 111 1389 l 462 1389 l 1363 423 l 1363 1278 l 1258 1389 l 1637 1389 l 1528 1278 l 1528 -77 q 1520 -83 1528 -93 l 448 1062 m 849 -373 q 840 -371 841 -375 q 843 -365 839 -367 q 867 -294 867 -323 q 823 -261 839 -284 q 808 -214 808 -238 q 833 -146 808 -175 q 899 -117 859 -117 q 959 -145 931 -117 q 988 -220 988 -173 q 948 -321 988 -280 q 849 -373 909 -363 z "},"Ñ":{"ha":1752,"x_min":111,"x_max":1637,"o":"m 448 1062 l 448 111 l 552 0 l 159 0 l 268 111 l 268 1234 l 111 1389 l 462 1389 l 1363 423 l 1363 1278 l 1258 1389 l 1637 1389 l 1528 1278 l 1528 -77 q 1520 -83 1528 -93 l 448 1062 m 571 1522 q 565 1522 567 1518 q 565 1532 563 1526 q 728 1659 607 1659 q 877 1627 786 1659 q 1048 1587 990 1587 q 1155 1621 1107 1587 q 1161 1621 1159 1625 q 1161 1611 1163 1617 q 996 1492 1125 1492 q 837 1524 933 1492 q 746 1553 782 1544 q 681 1562 710 1562 q 571 1522 623 1562 z "},"O":{"ha":1700,"x_min":99,"x_max":1601,"o":"m 849 -58 q 476 35 649 -58 q 201 294 304 127 q 99 675 99 460 q 201 1084 99 911 q 474 1349 304 1258 q 849 1440 645 1440 q 1225 1349 1054 1440 q 1499 1084 1397 1258 q 1601 675 1601 911 q 1499 292 1601 458 q 1224 34 1397 125 q 849 -58 1052 -58 m 849 91 q 1106 171 994 91 q 1281 384 1218 250 q 1343 675 1343 518 q 1287 987 1343 847 q 1118 1209 1230 1127 q 849 1292 1006 1292 q 577 1210 690 1292 q 408 989 464 1129 q 351 675 351 849 q 414 384 351 518 q 589 171 476 250 q 849 91 702 91 z "},"Ó":{"ha":1700,"x_min":99,"x_max":1601,"o":"m 849 -58 q 476 35 649 -58 q 201 294 304 127 q 99 675 99 460 q 201 1084 99 911 q 474 1349 304 1258 q 849 1440 645 1440 q 1225 1349 1054 1440 q 1499 1084 1397 1258 q 1601 675 1601 911 q 1499 292 1601 458 q 1224 34 1397 125 q 849 -58 1052 -58 m 849 91 q 1106 171 994 91 q 1281 384 1218 250 q 1343 675 1343 518 q 1287 987 1343 847 q 1118 1209 1230 1127 q 849 1292 1006 1292 q 577 1210 690 1292 q 408 989 464 1129 q 351 675 351 849 q 414 384 351 518 q 589 171 476 250 q 849 91 702 91 m 681 1599 l 982 1885 l 1060 1808 l 758 1520 l 681 1599 z "},"Ǒ":{"ha":1700,"x_min":99,"x_max":1601,"o":"m 849 -58 q 476 35 649 -58 q 201 294 304 127 q 99 675 99 460 q 201 1084 99 911 q 474 1349 304 1258 q 849 1440 645 1440 q 1225 1349 1054 1440 q 1499 1084 1397 1258 q 1601 675 1601 911 q 1499 292 1601 458 q 1224 34 1397 125 q 849 -58 1052 -58 m 849 91 q 1106 171 994 91 q 1281 384 1218 250 q 1343 675 1343 518 q 1287 987 1343 847 q 1118 1209 1230 1127 q 849 1292 1006 1292 q 577 1210 690 1292 q 408 989 464 1129 q 351 675 351 849 q 414 384 351 518 q 589 171 476 250 q 849 91 702 91 m 849 1649 l 1087 1744 l 1087 1629 l 849 1520 l 611 1629 l 611 1744 l 849 1649 z "},"Ô":{"ha":1700,"x_min":99,"x_max":1601,"o":"m 849 -58 q 476 35 649 -58 q 201 294 304 127 q 99 675 99 460 q 201 1084 99 911 q 474 1349 304 1258 q 849 1440 645 1440 q 1225 1349 1054 1440 q 1499 1084 1397 1258 q 1601 675 1601 911 q 1499 292 1601 458 q 1224 34 1397 125 q 849 -58 1052 -58 m 849 91 q 1106 171 994 91 q 1281 384 1218 250 q 1343 675 1343 518 q 1287 987 1343 847 q 1118 1209 1230 1127 q 849 1292 1006 1292 q 577 1210 690 1292 q 408 989 464 1129 q 351 675 351 849 q 414 384 351 518 q 589 171 476 250 q 849 91 702 91 m 611 1643 l 849 1752 l 1087 1643 l 1087 1528 l 849 1623 l 611 1528 l 611 1643 z "},"Ố":{"ha":1700,"x_min":99,"x_max":1601,"o":"m 849 -58 q 476 35 649 -58 q 201 294 304 127 q 99 675 99 460 q 201 1084 99 911 q 474 1349 304 1258 q 849 1440 645 1440 q 1225 1349 1054 1440 q 1499 1084 1397 1258 q 1601 675 1601 911 q 1499 292 1601 458 q 1224 34 1397 125 q 849 -58 1052 -58 m 849 91 q 1106 171 994 91 q 1281 384 1218 250 q 1343 675 1343 518 q 1287 987 1343 847 q 1118 1209 1230 1127 q 849 1292 1006 1292 q 577 1210 690 1292 q 408 989 464 1129 q 351 675 351 849 q 414 384 351 518 q 589 171 476 250 q 849 91 702 91 z "},"Ộ":{"ha":1700,"x_min":99,"x_max":1601,"o":"m 849 -58 q 476 35 649 -58 q 201 294 304 127 q 99 675 99 460 q 201 1084 99 911 q 474 1349 304 1258 q 849 1440 645 1440 q 1225 1349 1054 1440 q 1499 1084 1397 1258 q 1601 675 1601 911 q 1499 292 1601 458 q 1224 34 1397 125 q 849 -58 1052 -58 m 849 91 q 1106 171 994 91 q 1281 384 1218 250 q 1343 675 1343 518 q 1287 987 1343 847 q 1118 1209 1230 1127 q 849 1292 1006 1292 q 577 1210 690 1292 q 408 989 464 1129 q 351 675 351 849 q 414 384 351 518 q 589 171 476 250 q 849 91 702 91 m 611 1643 l 849 1752 l 1087 1643 l 1087 1528 l 849 1623 l 611 1528 l 611 1643 z "},"Ồ":{"ha":1700,"x_min":99,"x_max":1601,"o":"m 849 -58 q 476 35 649 -58 q 201 294 304 127 q 99 675 99 460 q 201 1084 99 911 q 474 1349 304 1258 q 849 1440 645 1440 q 1225 1349 1054 1440 q 1499 1084 1397 1258 q 1601 675 1601 911 q 1499 292 1601 458 q 1224 34 1397 125 q 849 -58 1052 -58 m 849 91 q 1106 171 994 91 q 1281 384 1218 250 q 1343 675 1343 518 q 1287 987 1343 847 q 1118 1209 1230 1127 q 849 1292 1006 1292 q 577 1210 690 1292 q 408 989 464 1129 q 351 675 351 849 q 414 384 351 518 q 589 171 476 250 q 849 91 702 91 z "},"Ổ":{"ha":1700,"x_min":99,"x_max":1601,"o":"m 849 -58 q 476 35 649 -58 q 201 294 304 127 q 99 675 99 460 q 201 1084 99 911 q 474 1349 304 1258 q 849 1440 645 1440 q 1225 1349 1054 1440 q 1499 1084 1397 1258 q 1601 675 1601 911 q 1499 292 1601 458 q 1224 34 1397 125 q 849 -58 1052 -58 m 849 91 q 1106 171 994 91 q 1281 384 1218 250 q 1343 675 1343 518 q 1287 987 1343 847 q 1118 1209 1230 1127 q 849 1292 1006 1292 q 577 1210 690 1292 q 408 989 464 1129 q 351 675 351 849 q 414 384 351 518 q 589 171 476 250 q 849 91 702 91 z "},"Ỗ":{"ha":1700,"x_min":99,"x_max":1601,"o":"m 849 -58 q 476 35 649 -58 q 201 294 304 127 q 99 675 99 460 q 201 1084 99 911 q 474 1349 304 1258 q 849 1440 645 1440 q 1225 1349 1054 1440 q 1499 1084 1397 1258 q 1601 675 1601 911 q 1499 292 1601 458 q 1224 34 1397 125 q 849 -58 1052 -58 m 849 91 q 1106 171 994 91 q 1281 384 1218 250 q 1343 675 1343 518 q 1287 987 1343 847 q 1118 1209 1230 1127 q 849 1292 1006 1292 q 577 1210 690 1292 q 408 989 464 1129 q 351 675 351 849 q 414 384 351 518 q 589 171 476 250 q 849 91 702 91 z "},"Ö":{"ha":1700,"x_min":99,"x_max":1601,"o":"m 849 -58 q 476 35 649 -58 q 201 294 304 127 q 99 675 99 460 q 201 1084 99 911 q 474 1349 304 1258 q 849 1440 645 1440 q 1225 1349 1054 1440 q 1499 1084 1397 1258 q 1601 675 1601 911 q 1499 292 1601 458 q 1224 34 1397 125 q 849 -58 1052 -58 m 849 91 q 1106 171 994 91 q 1281 384 1218 250 q 1343 675 1343 518 q 1287 987 1343 847 q 1118 1209 1230 1127 q 849 1292 1006 1292 q 577 1210 690 1292 q 408 989 464 1129 q 351 675 351 849 q 414 384 351 518 q 589 171 476 250 q 849 91 702 91 z "},"Ọ":{"ha":1700,"x_min":99,"x_max":1601,"o":"m 849 -58 q 476 35 649 -58 q 201 294 304 127 q 99 675 99 460 q 201 1084 99 911 q 474 1349 304 1258 q 849 1440 645 1440 q 1225 1349 1054 1440 q 1499 1084 1397 1258 q 1601 675 1601 911 q 1499 292 1601 458 q 1224 34 1397 125 q 849 -58 1052 -58 m 849 91 q 1106 171 994 91 q 1281 384 1218 250 q 1343 675 1343 518 q 1287 987 1343 847 q 1118 1209 1230 1127 q 849 1292 1006 1292 q 577 1210 690 1292 q 408 989 464 1129 q 351 675 351 849 q 414 384 351 518 q 589 171 476 250 q 849 91 702 91 z "},"Ò":{"ha":1700,"x_min":99,"x_max":1601,"o":"m 849 -58 q 476 35 649 -58 q 201 294 304 127 q 99 675 99 460 q 201 1084 99 911 q 474 1349 304 1258 q 849 1440 645 1440 q 1225 1349 1054 1440 q 1499 1084 1397 1258 q 1601 675 1601 911 q 1499 292 1601 458 q 1224 34 1397 125 q 849 -58 1052 -58 m 849 91 q 1106 171 994 91 q 1281 384 1218 250 q 1343 675 1343 518 q 1287 987 1343 847 q 1118 1209 1230 1127 q 849 1292 1006 1292 q 577 1210 690 1292 q 408 989 464 1129 q 351 675 351 849 q 414 384 351 518 q 589 171 476 250 q 849 91 702 91 m 631 1808 l 708 1885 l 1010 1599 l 933 1520 l 631 1808 z "},"Ỏ":{"ha":1700,"x_min":99,"x_max":1601,"o":"m 849 -58 q 476 35 649 -58 q 201 294 304 127 q 99 675 99 460 q 201 1084 99 911 q 474 1349 304 1258 q 849 1440 645 1440 q 1225 1349 1054 1440 q 1499 1084 1397 1258 q 1601 675 1601 911 q 1499 292 1601 458 q 1224 34 1397 125 q 849 -58 1052 -58 m 849 91 q 1106 171 994 91 q 1281 384 1218 250 q 1343 675 1343 518 q 1287 987 1343 847 q 1118 1209 1230 1127 q 849 1292 1006 1292 q 577 1210 690 1292 q 408 989 464 1129 q 351 675 351 849 q 414 384 351 518 q 589 171 476 250 q 849 91 702 91 m 800 1510 q 817 1584 802 1560 q 863 1637 833 1609 q 890 1664 881 1651 q 899 1694 899 1677 q 897 1710 899 1704 q 839 1750 889 1750 q 800 1741 819 1750 q 772 1714 780 1732 l 722 1794 q 787 1852 748 1831 q 867 1873 825 1873 q 980 1819 935 1873 q 1016 1722 1016 1776 q 995 1640 1016 1681 q 933 1569 974 1599 q 899 1540 909 1552 q 891 1510 889 1528 l 800 1510 z "},"Ơ":{"ha":1700,"x_min":99,"x_max":1601,"o":"m 1351 1264 q 1536 1013 1470 1163 q 1601 675 1601 863 q 1499 292 1601 458 q 1224 34 1397 125 q 849 -58 1052 -58 q 476 35 649 -58 q 201 294 304 127 q 99 675 99 460 q 201 1084 99 911 q 474 1349 304 1258 q 849 1440 645 1440 q 1286 1313 1095 1440 q 1315 1339 1306 1327 q 1302 1387 1302 1361 q 1319 1438 1302 1419 q 1395 1476 1351 1476 q 1450 1456 1429 1476 q 1473 1428 1464 1446 q 1482 1387 1482 1409 q 1464 1329 1482 1359 q 1351 1264 1423 1268 m 849 91 q 1106 171 994 91 q 1281 384 1218 250 q 1343 675 1343 518 q 1287 987 1343 847 q 1118 1209 1230 1127 q 849 1292 1006 1292 q 577 1210 690 1292 q 408 989 464 1129 q 351 675 351 849 q 414 384 351 518 q 589 171 476 250 q 849 91 702 91 z "},"Ớ":{"ha":1700,"x_min":99,"x_max":1601,"o":"m 1351 1264 q 1536 1013 1470 1163 q 1601 675 1601 863 q 1499 292 1601 458 q 1224 34 1397 125 q 849 -58 1052 -58 q 476 35 649 -58 q 201 294 304 127 q 99 675 99 460 q 201 1084 99 911 q 474 1349 304 1258 q 849 1440 645 1440 q 1286 1313 1095 1440 q 1315 1339 1306 1327 q 1302 1387 1302 1361 q 1319 1438 1302 1419 q 1395 1476 1351 1476 q 1450 1456 1429 1476 q 1473 1428 1464 1446 q 1482 1387 1482 1409 q 1464 1329 1482 1359 q 1351 1264 1423 1268 m 849 91 q 1106 171 994 91 q 1281 384 1218 250 q 1343 675 1343 518 q 1287 987 1343 847 q 1118 1209 1230 1127 q 849 1292 1006 1292 q 577 1210 690 1292 q 408 989 464 1129 q 351 675 351 849 q 414 384 351 518 q 589 171 476 250 q 849 91 702 91 m 681 1599 l 982 1885 l 1060 1808 l 758 1520 l 681 1599 z "},"Ợ":{"ha":1700,"x_min":99,"x_max":1601,"o":"m 1351 1264 q 1536 1013 1470 1163 q 1601 675 1601 863 q 1499 292 1601 458 q 1224 34 1397 125 q 849 -58 1052 -58 q 476 35 649 -58 q 201 294 304 127 q 99 675 99 460 q 201 1084 99 911 q 474 1349 304 1258 q 849 1440 645 1440 q 1286 1313 1095 1440 q 1315 1339 1306 1327 q 1302 1387 1302 1361 q 1319 1438 1302 1419 q 1395 1476 1351 1476 q 1450 1456 1429 1476 q 1473 1428 1464 1446 q 1482 1387 1482 1409 q 1464 1329 1482 1359 q 1351 1264 1423 1268 m 849 91 q 1106 171 994 91 q 1281 384 1218 250 q 1343 675 1343 518 q 1287 987 1343 847 q 1118 1209 1230 1127 q 849 1292 1006 1292 q 577 1210 690 1292 q 408 989 464 1129 q 351 675 351 849 q 414 384 351 518 q 589 171 476 250 q 849 91 702 91 z "},"Ờ":{"ha":1700,"x_min":99,"x_max":1601,"o":"m 1351 1264 q 1536 1013 1470 1163 q 1601 675 1601 863 q 1499 292 1601 458 q 1224 34 1397 125 q 849 -58 1052 -58 q 476 35 649 -58 q 201 294 304 127 q 99 675 99 460 q 201 1084 99 911 q 474 1349 304 1258 q 849 1440 645 1440 q 1286 1313 1095 1440 q 1315 1339 1306 1327 q 1302 1387 1302 1361 q 1319 1438 1302 1419 q 1395 1476 1351 1476 q 1450 1456 1429 1476 q 1473 1428 1464 1446 q 1482 1387 1482 1409 q 1464 1329 1482 1359 q 1351 1264 1423 1268 m 849 91 q 1106 171 994 91 q 1281 384 1218 250 q 1343 675 1343 518 q 1287 987 1343 847 q 1118 1209 1230 1127 q 849 1292 1006 1292 q 577 1210 690 1292 q 408 989 464 1129 q 351 675 351 849 q 414 384 351 518 q 589 171 476 250 q 849 91 702 91 m 631 1808 l 708 1885 l 1010 1599 l 933 1520 l 631 1808 z "},"Ở":{"ha":1700,"x_min":99,"x_max":1601,"o":"m 1351 1264 q 1536 1013 1470 1163 q 1601 675 1601 863 q 1499 292 1601 458 q 1224 34 1397 125 q 849 -58 1052 -58 q 476 35 649 -58 q 201 294 304 127 q 99 675 99 460 q 201 1084 99 911 q 474 1349 304 1258 q 849 1440 645 1440 q 1286 1313 1095 1440 q 1315 1339 1306 1327 q 1302 1387 1302 1361 q 1319 1438 1302 1419 q 1395 1476 1351 1476 q 1450 1456 1429 1476 q 1473 1428 1464 1446 q 1482 1387 1482 1409 q 1464 1329 1482 1359 q 1351 1264 1423 1268 m 849 91 q 1106 171 994 91 q 1281 384 1218 250 q 1343 675 1343 518 q 1287 987 1343 847 q 1118 1209 1230 1127 q 849 1292 1006 1292 q 577 1210 690 1292 q 408 989 464 1129 q 351 675 351 849 q 414 384 351 518 q 589 171 476 250 q 849 91 702 91 m 800 1510 q 817 1584 802 1560 q 863 1637 833 1609 q 890 1664 881 1651 q 899 1694 899 1677 q 897 1710 899 1704 q 839 1750 889 1750 q 800 1741 819 1750 q 772 1714 780 1732 l 722 1794 q 787 1852 748 1831 q 867 1873 825 1873 q 980 1819 935 1873 q 1016 1722 1016 1776 q 995 1640 1016 1681 q 933 1569 974 1599 q 899 1540 909 1552 q 891 1510 889 1528 l 800 1510 z "},"Ỡ":{"ha":1700,"x_min":99,"x_max":1601,"o":"m 569 1558 q 563 1558 565 1554 q 563 1567 562 1562 q 720 1694 605 1694 q 863 1663 776 1694 q 1026 1623 968 1623 q 1129 1657 1081 1623 q 1135 1657 1133 1661 q 1135 1647 1137 1653 q 976 1528 1099 1528 q 823 1560 919 1528 q 737 1588 772 1579 q 673 1597 702 1597 q 569 1558 617 1597 m 1351 1264 q 1536 1013 1470 1163 q 1601 675 1601 863 q 1499 292 1601 458 q 1224 34 1397 125 q 849 -58 1052 -58 q 476 35 649 -58 q 201 294 304 127 q 99 675 99 460 q 201 1084 99 911 q 474 1349 304 1258 q 849 1440 645 1440 q 1286 1313 1095 1440 q 1315 1339 1306 1327 q 1302 1387 1302 1361 q 1319 1438 1302 1419 q 1395 1476 1351 1476 q 1450 1456 1429 1476 q 1473 1428 1464 1446 q 1482 1387 1482 1409 q 1464 1329 1482 1359 q 1351 1264 1423 1268 m 849 91 q 1106 171 994 91 q 1281 384 1218 250 q 1343 675 1343 518 q 1287 987 1343 847 q 1118 1209 1230 1127 q 849 1292 1006 1292 q 577 1210 690 1292 q 408 989 464 1129 q 351 675 351 849 q 414 384 351 518 q 589 171 476 250 q 849 91 702 91 z "},"Ő":{"ha":1700,"x_min":99,"x_max":1601,"o":"m 849 -58 q 476 35 649 -58 q 201 294 304 127 q 99 675 99 460 q 201 1084 99 911 q 474 1349 304 1258 q 849 1440 645 1440 q 1225 1349 1054 1440 q 1499 1084 1397 1258 q 1601 675 1601 911 q 1499 292 1601 458 q 1224 34 1397 125 q 849 -58 1052 -58 m 849 91 q 1106 171 994 91 q 1281 384 1218 250 q 1343 675 1343 518 q 1287 987 1343 847 q 1118 1209 1230 1127 q 849 1292 1006 1292 q 577 1210 690 1292 q 408 989 464 1129 q 351 675 351 849 q 414 384 351 518 q 589 171 476 250 q 849 91 702 91 z "},"Ō":{"ha":1700,"x_min":99,"x_max":1601,"o":"m 849 -58 q 476 35 649 -58 q 201 294 304 127 q 99 675 99 460 q 201 1084 99 911 q 474 1349 304 1258 q 849 1440 645 1440 q 1225 1349 1054 1440 q 1499 1084 1397 1258 q 1601 675 1601 911 q 1499 292 1601 458 q 1224 34 1397 125 q 849 -58 1052 -58 m 849 91 q 1106 171 994 91 q 1281 384 1218 250 q 1343 675 1343 518 q 1287 987 1343 847 q 1118 1209 1230 1127 q 849 1292 1006 1292 q 577 1210 690 1292 q 408 989 464 1129 q 351 675 351 849 q 414 384 351 518 q 589 171 476 250 q 849 91 702 91 m 560 1659 l 1139 1659 l 1139 1554 l 560 1554 l 560 1659 z "},"Ø":{"ha":1700,"x_min":99,"x_max":1601,"o":"m 1139 1389 q 1474 1125 1347 1310 q 1601 675 1601 940 q 1499 292 1601 458 q 1224 34 1397 125 q 849 -58 1052 -58 q 687 -42 770 -58 l 665 -109 l 528 -109 l 562 -4 q 226 254 353 75 q 99 675 99 433 q 201 1084 99 911 q 474 1349 304 1258 q 849 1440 645 1440 q 1014 1425 929 1440 l 1034 1490 l 1171 1490 l 1139 1389 m 351 675 q 421 369 351 508 q 611 157 490 230 l 966 1278 q 849 1292 917 1292 q 577 1210 690 1292 q 408 989 464 1129 q 351 675 351 849 m 849 91 q 1106 171 994 91 q 1281 384 1218 250 q 1343 675 1343 518 q 1277 1008 1343 861 q 1087 1228 1210 1155 l 732 105 q 849 91 798 91 z "},"Õ":{"ha":1700,"x_min":99,"x_max":1601,"o":"m 849 -58 q 476 35 649 -58 q 201 294 304 127 q 99 675 99 460 q 201 1084 99 911 q 474 1349 304 1258 q 849 1440 645 1440 q 1225 1349 1054 1440 q 1499 1084 1397 1258 q 1601 675 1601 911 q 1499 292 1601 458 q 1224 34 1397 125 q 849 -58 1052 -58 m 849 91 q 1106 171 994 91 q 1281 384 1218 250 q 1343 675 1343 518 q 1287 987 1343 847 q 1118 1209 1230 1127 q 849 1292 1006 1292 q 577 1210 690 1292 q 408 989 464 1129 q 351 675 351 849 q 414 384 351 518 q 589 171 476 250 q 849 91 702 91 m 558 1558 q 552 1558 554 1554 q 552 1567 550 1562 q 714 1694 593 1694 q 863 1663 772 1694 q 1034 1623 976 1623 q 1141 1657 1093 1623 q 1147 1657 1145 1661 q 1147 1647 1149 1653 q 982 1528 1111 1528 q 823 1560 919 1528 q 732 1588 768 1579 q 667 1597 696 1597 q 558 1558 609 1597 z "},"Œ":{"ha":2458,"x_min":99,"x_max":2347,"o":"m 2304 331 q 2347 312 2323 323 l 2256 0 l 1341 0 l 1450 115 l 1450 220 q 1189 15 1347 87 q 849 -58 1032 -58 q 476 35 649 -58 q 201 294 304 127 q 99 675 99 460 q 201 1084 99 911 q 474 1349 304 1258 q 849 1440 645 1440 q 1189 1367 1032 1440 q 1450 1159 1347 1294 l 1450 1274 l 1341 1389 l 2224 1389 l 2296 1125 l 2123 1226 l 1683 1226 l 1683 819 l 1948 819 q 2077 927 1972 819 l 2077 560 q 1948 659 1972 659 l 1683 659 l 1683 202 q 1877 149 1758 161 q 1952 145 1925 145 q 2304 331 2206 145 m 849 91 q 1106 171 994 91 q 1281 384 1218 250 q 1343 675 1343 518 q 1287 987 1343 847 q 1118 1209 1230 1127 q 849 1292 1006 1292 q 577 1210 690 1292 q 408 989 464 1129 q 351 675 351 849 q 414 384 351 518 q 589 171 476 250 q 849 91 702 91 z "},"P":{"ha":1171,"x_min":123,"x_max":1075,"o":"m 246 111 l 246 1262 l 123 1389 l 698 1389 q 969 1290 863 1389 q 1075 1012 1075 1190 q 953 727 1075 825 q 631 629 831 629 l 488 629 l 488 111 l 593 0 l 137 0 l 246 111 m 488 812 q 605 782 540 782 q 763 840 696 782 q 829 1008 829 899 q 827 1046 829 1032 q 778 1167 817 1127 q 683 1217 738 1206 q 536 1228 627 1228 l 488 1228 l 488 812 z "},"Q":{"ha":1704,"x_min":99,"x_max":1601,"o":"m 847 -58 q 473 33 645 -58 q 200 288 302 123 q 99 667 99 452 q 200 1078 99 903 q 472 1347 302 1254 q 847 1440 643 1440 q 1223 1347 1052 1440 q 1498 1078 1395 1254 q 1601 667 1601 903 q 1535 354 1601 494 q 1349 115 1468 214 q 1502 54 1405 54 q 1575 63 1542 54 q 1507 -27 1563 4 q 1375 -58 1450 -58 q 1264 -41 1319 -58 q 1167 6 1208 -24 q 847 -58 1016 -58 m 843 91 q 1103 169 990 91 q 1279 378 1216 246 q 1341 667 1341 510 q 1284 981 1341 839 q 1114 1207 1226 1123 q 843 1292 1002 1292 q 573 1208 685 1292 q 406 983 462 1125 q 349 667 349 841 q 411 378 349 510 q 585 169 472 246 q 843 91 698 91 z "},"R":{"ha":1520,"x_min":123,"x_max":1425,"o":"m 923 0 q 996 101 982 67 l 605 631 l 486 631 l 486 113 q 591 2 514 65 l 135 2 q 244 113 218 75 l 244 1262 q 123 1389 222 1296 l 696 1389 q 967 1290 861 1389 q 1073 1014 1073 1190 q 1016 808 1073 893 q 857 679 958 722 l 1270 111 q 1425 0 1298 77 l 923 0 m 486 804 q 575 790 528 790 q 755 854 679 790 q 831 1024 831 919 q 829 1052 831 1042 q 787 1169 821 1131 q 699 1217 752 1206 q 560 1228 647 1228 l 486 1228 l 486 804 z "},"Ŕ":{"ha":1520,"x_min":123,"x_max":1425,"o":"m 923 0 q 996 101 982 67 l 605 631 l 486 631 l 486 113 q 591 2 514 65 l 135 2 q 244 113 218 75 l 244 1262 q 123 1389 222 1296 l 696 1389 q 967 1290 861 1389 q 1073 1014 1073 1190 q 1016 808 1073 893 q 857 679 958 722 l 1270 111 q 1425 0 1298 77 l 923 0 m 486 804 q 575 790 528 790 q 755 854 679 790 q 831 1024 831 919 q 829 1052 831 1042 q 787 1169 821 1131 q 699 1217 752 1206 q 560 1228 647 1228 l 486 1228 l 486 804 m 526 1563 l 827 1849 l 905 1772 l 603 1484 l 526 1563 z "},"Ř":{"ha":1520,"x_min":123,"x_max":1425,"o":"m 923 0 q 996 101 982 67 l 605 631 l 486 631 l 486 113 q 591 2 514 65 l 135 2 q 244 113 218 75 l 244 1262 q 123 1389 222 1296 l 696 1389 q 967 1290 861 1389 q 1073 1014 1073 1190 q 1016 808 1073 893 q 857 679 958 722 l 1270 111 q 1425 0 1298 77 l 923 0 m 486 804 q 575 790 528 790 q 755 854 679 790 q 831 1024 831 919 q 829 1052 831 1042 q 787 1169 821 1131 q 699 1217 752 1206 q 560 1228 647 1228 l 486 1228 l 486 804 m 694 1613 l 933 1708 l 933 1593 l 694 1484 l 456 1593 l 456 1708 l 694 1613 z "},"Ŗ":{"ha":1520,"x_min":123,"x_max":1425,"o":"m 923 0 q 996 101 982 67 l 605 631 l 486 631 l 486 113 q 591 2 514 65 l 135 2 q 244 113 218 75 l 244 1262 q 123 1389 222 1296 l 696 1389 q 967 1290 861 1389 q 1073 1014 1073 1190 q 1016 808 1073 893 q 857 679 958 722 l 1270 111 q 1425 0 1298 77 l 923 0 m 486 804 q 575 790 528 790 q 755 854 679 790 q 831 1024 831 919 q 829 1052 831 1042 q 787 1169 821 1131 q 699 1217 752 1206 q 560 1228 647 1228 l 486 1228 l 486 804 m 659 -373 q 650 -371 651 -375 q 653 -365 649 -367 q 677 -294 677 -323 q 633 -261 649 -284 q 617 -214 617 -238 q 643 -146 617 -175 q 708 -117 669 -117 q 769 -145 740 -117 q 798 -220 798 -173 q 758 -321 798 -280 q 659 -373 718 -363 z "},"S":{"ha":1069,"x_min":123,"x_max":946,"o":"m 123 339 q 204 222 127 333 q 427 93 282 111 q 462 91 438 91 q 634 152 560 91 q 708 339 708 212 q 684 457 708 407 q 615 553 659 508 q 456 704 571 597 q 251 935 317 835 q 185 1133 185 1034 q 218 1278 185 1208 q 349 1408 258 1365 q 544 1450 440 1450 q 695 1435 637 1450 q 813 1393 754 1419 q 911 1444 841 1401 l 827 1095 l 752 1252 q 597 1304 683 1304 q 485 1264 526 1304 q 444 1161 444 1224 q 469 1063 444 1115 q 544 966 494 1012 l 581 933 q 769 749 696 827 q 894 571 841 671 q 946 363 946 472 q 938 282 946 319 q 860 109 923 188 q 703 -17 798 30 q 502 -63 609 -63 q 371 -45 429 -63 q 242 12 313 -26 q 143 -69 214 -10 l 123 339 z "},"Ś":{"ha":1069,"x_min":123,"x_max":946,"o":"m 123 339 q 204 222 127 333 q 427 93 282 111 q 462 91 438 91 q 634 152 560 91 q 708 339 708 212 q 684 457 708 407 q 615 553 659 508 q 456 704 571 597 q 251 935 317 835 q 185 1133 185 1034 q 218 1278 185 1208 q 349 1408 258 1365 q 544 1450 440 1450 q 695 1435 637 1450 q 813 1393 754 1419 q 911 1444 841 1401 l 827 1095 l 752 1252 q 597 1304 683 1304 q 485 1264 526 1304 q 444 1161 444 1224 q 469 1063 444 1115 q 544 966 494 1012 l 581 933 q 769 749 696 827 q 894 571 841 671 q 946 363 946 472 q 938 282 946 319 q 860 109 923 188 q 703 -17 798 30 q 502 -63 609 -63 q 371 -45 429 -63 q 242 12 313 -26 q 143 -69 214 -10 l 123 339 m 375 1611 l 677 1897 l 754 1819 l 452 1532 l 375 1611 z "},"Š":{"ha":1069,"x_min":123,"x_max":946,"o":"m 123 339 q 204 222 127 333 q 427 93 282 111 q 462 91 438 91 q 634 152 560 91 q 708 339 708 212 q 684 457 708 407 q 615 553 659 508 q 456 704 571 597 q 251 935 317 835 q 185 1133 185 1034 q 218 1278 185 1208 q 349 1408 258 1365 q 544 1450 440 1450 q 695 1435 637 1450 q 813 1393 754 1419 q 911 1444 841 1401 l 827 1095 l 752 1252 q 597 1304 683 1304 q 485 1264 526 1304 q 444 1161 444 1224 q 469 1063 444 1115 q 544 966 494 1012 l 581 933 q 769 749 696 827 q 894 571 841 671 q 946 363 946 472 q 938 282 946 319 q 860 109 923 188 q 703 -17 798 30 q 502 -63 609 -63 q 371 -45 429 -63 q 242 12 313 -26 q 143 -69 214 -10 l 123 339 m 544 1661 l 782 1756 l 782 1641 l 544 1532 l 306 1641 l 306 1756 l 544 1661 z "},"Ş":{"ha":1069,"x_min":123,"x_max":946,"o":"m 581 933 q 769 749 696 827 q 894 571 841 671 q 946 363 946 472 q 938 282 946 319 q 816 62 917 157 q 577 -56 716 -34 l 562 -91 q 631 -142 599 -105 q 663 -236 663 -179 q 614 -346 663 -304 q 502 -389 565 -389 q 425 -371 460 -389 q 365 -315 389 -353 l 409 -264 q 488 -288 454 -288 q 548 -230 548 -288 q 517 -170 548 -190 q 429 -149 486 -149 l 468 -62 q 355 -40 407 -58 q 242 12 304 -22 q 143 -69 214 -10 l 123 339 q 204 222 127 333 q 427 93 282 111 q 462 91 438 91 q 634 152 560 91 q 708 339 708 212 q 684 457 708 407 q 615 553 659 508 q 456 704 571 597 q 251 935 317 835 q 185 1133 185 1034 q 218 1278 185 1208 q 349 1408 258 1365 q 544 1450 440 1450 q 695 1435 637 1450 q 813 1393 754 1419 q 911 1444 841 1401 l 827 1095 l 752 1252 q 597 1304 683 1304 q 485 1264 526 1304 q 444 1161 444 1224 q 469 1063 444 1115 q 544 966 494 1012 l 581 933 z "},"Ș":{"ha":1069,"x_min":123,"x_max":946,"o":"m 123 339 q 204 222 127 333 q 427 93 282 111 q 462 91 438 91 q 634 152 560 91 q 708 339 708 212 q 684 457 708 407 q 615 553 659 508 q 456 704 571 597 q 251 935 317 835 q 185 1133 185 1034 q 218 1278 185 1208 q 349 1408 258 1365 q 544 1450 440 1450 q 695 1435 637 1450 q 813 1393 754 1419 q 911 1444 841 1401 l 827 1095 l 752 1252 q 597 1304 683 1304 q 485 1264 526 1304 q 444 1161 444 1224 q 469 1063 444 1115 q 544 966 494 1012 l 581 933 q 769 749 696 827 q 894 571 841 671 q 946 363 946 472 q 938 282 946 319 q 860 109 923 188 q 703 -17 798 30 q 502 -63 609 -63 q 371 -45 429 -63 q 242 12 313 -26 q 143 -69 214 -10 l 123 339 m 486 -419 q 477 -417 478 -421 q 480 -411 476 -413 q 504 -339 504 -369 q 460 -307 476 -329 q 444 -260 444 -284 q 470 -191 444 -220 q 536 -163 496 -163 q 596 -190 567 -163 q 625 -266 625 -218 q 585 -367 625 -325 q 486 -419 546 -409 z "},"T":{"ha":1438,"x_min":107,"x_max":1331,"o":"m 597 111 l 597 1232 l 248 1232 l 107 1117 l 143 1389 l 1296 1391 l 1331 1117 l 1190 1232 l 841 1232 l 841 111 l 946 0 l 488 0 l 597 111 z "},"Ŧ":{"ha":1438,"x_min":107,"x_max":1331,"o":"m 841 1232 l 841 812 l 1004 812 l 1004 637 l 841 637 l 841 111 l 946 0 l 488 0 l 597 111 l 597 637 l 438 637 l 438 812 l 597 812 l 597 1232 l 248 1232 l 107 1117 l 143 1389 l 1296 1391 l 1331 1117 l 1190 1232 l 841 1232 z "},"Ť":{"ha":1438,"x_min":107,"x_max":1331,"o":"m 597 111 l 597 1232 l 248 1232 l 107 1117 l 143 1389 l 1296 1391 l 1331 1117 l 1190 1232 l 841 1232 l 841 111 l 946 0 l 488 0 l 597 111 m 720 1613 l 958 1708 l 958 1593 l 720 1484 l 482 1593 l 482 1708 l 720 1613 z "},"Ţ":{"ha":1438,"x_min":107,"x_max":1331,"o":"m 841 1232 l 841 111 l 946 0 l 768 0 l 746 -46 q 815 -96 784 -60 q 847 -190 847 -133 q 799 -301 847 -258 q 687 -343 750 -343 q 609 -325 645 -343 q 550 -270 573 -308 l 593 -218 q 673 -242 639 -242 q 732 -185 732 -242 q 701 -124 732 -145 q 613 -103 671 -103 l 659 0 l 488 0 l 597 111 l 597 1232 l 248 1232 l 107 1117 l 143 1389 l 1296 1391 l 1331 1117 l 1190 1232 l 841 1232 z "},"Ț":{"ha":1438,"x_min":107,"x_max":1331,"o":"m 597 111 l 597 1232 l 248 1232 l 107 1117 l 143 1389 l 1296 1391 l 1331 1117 l 1190 1232 l 841 1232 l 841 111 l 946 0 l 488 0 l 597 111 m 671 -373 q 662 -371 663 -375 q 665 -365 661 -367 q 688 -294 688 -323 q 645 -261 661 -284 q 629 -214 629 -238 q 655 -146 629 -175 q 720 -117 681 -117 q 781 -145 752 -117 q 810 -220 810 -173 q 770 -321 810 -280 q 671 -373 730 -363 z "},"U":{"ha":1464,"x_min":115,"x_max":1349,"o":"m 738 -60 q 473 8 591 -60 q 289 193 355 75 q 222 460 222 312 l 222 1282 l 115 1389 l 558 1389 l 450 1276 l 450 496 q 534 210 450 313 q 778 107 617 107 q 913 141 841 107 q 1036 252 984 175 q 1087 454 1087 329 l 1087 1276 l 974 1389 l 1349 1389 l 1244 1276 l 1244 444 q 1187 186 1244 300 q 1015 6 1129 71 q 738 -60 901 -60 z "},"Ú":{"ha":1464,"x_min":115,"x_max":1349,"o":"m 738 -60 q 473 8 591 -60 q 289 193 355 75 q 222 460 222 312 l 222 1282 l 115 1389 l 558 1389 l 450 1276 l 450 496 q 534 210 450 313 q 778 107 617 107 q 913 141 841 107 q 1036 252 984 175 q 1087 454 1087 329 l 1087 1276 l 974 1389 l 1349 1389 l 1244 1276 l 1244 444 q 1187 186 1244 300 q 1015 6 1129 71 q 738 -60 901 -60 m 597 1563 l 899 1849 l 976 1772 l 675 1484 l 597 1563 z "},"Ǔ":{"ha":1464,"x_min":115,"x_max":1349,"o":"m 738 -60 q 473 8 591 -60 q 289 193 355 75 q 222 460 222 312 l 222 1282 l 115 1389 l 558 1389 l 450 1276 l 450 496 q 534 210 450 313 q 778 107 617 107 q 913 141 841 107 q 1036 252 984 175 q 1087 454 1087 329 l 1087 1276 l 974 1389 l 1349 1389 l 1244 1276 l 1244 444 q 1187 186 1244 300 q 1015 6 1129 71 q 738 -60 901 -60 m 766 1613 l 1004 1708 l 1004 1593 l 766 1484 l 528 1593 l 528 1708 l 766 1613 z "},"Û":{"ha":1464,"x_min":115,"x_max":1349,"o":"m 738 -60 q 473 8 591 -60 q 289 193 355 75 q 222 460 222 312 l 222 1282 l 115 1389 l 558 1389 l 450 1276 l 450 496 q 534 210 450 313 q 778 107 617 107 q 913 141 841 107 q 1036 252 984 175 q 1087 454 1087 329 l 1087 1276 l 974 1389 l 1349 1389 l 1244 1276 l 1244 444 q 1187 186 1244 300 q 1015 6 1129 71 q 738 -60 901 -60 m 528 1607 l 766 1716 l 1004 1607 l 1004 1492 l 766 1587 l 528 1492 l 528 1607 z "},"Ü":{"ha":1464,"x_min":115,"x_max":1349,"o":"m 738 -60 q 473 8 591 -60 q 289 193 355 75 q 222 460 222 312 l 222 1282 l 115 1389 l 558 1389 l 450 1276 l 450 496 q 534 210 450 313 q 778 107 617 107 q 913 141 841 107 q 1036 252 984 175 q 1087 454 1087 329 l 1087 1276 l 974 1389 l 1349 1389 l 1244 1276 l 1244 444 q 1187 186 1244 300 q 1015 6 1129 71 q 738 -60 901 -60 z "},"Ǘ":{"ha":1464,"x_min":115,"x_max":1349,"o":"m 738 -60 q 473 8 591 -60 q 289 193 355 75 q 222 460 222 312 l 222 1282 l 115 1389 l 558 1389 l 450 1276 l 450 496 q 534 210 450 313 q 778 107 617 107 q 913 141 841 107 q 1036 252 984 175 q 1087 454 1087 329 l 1087 1276 l 974 1389 l 1349 1389 l 1244 1276 l 1244 444 q 1187 186 1244 300 q 1015 6 1129 71 q 738 -60 901 -60 z "},"Ǚ":{"ha":1464,"x_min":115,"x_max":1349,"o":"m 738 -60 q 473 8 591 -60 q 289 193 355 75 q 222 460 222 312 l 222 1282 l 115 1389 l 558 1389 l 450 1276 l 450 496 q 534 210 450 313 q 778 107 617 107 q 913 141 841 107 q 1036 252 984 175 q 1087 454 1087 329 l 1087 1276 l 974 1389 l 1349 1389 l 1244 1276 l 1244 444 q 1187 186 1244 300 q 1015 6 1129 71 q 738 -60 901 -60 z "},"Ǜ":{"ha":1464,"x_min":115,"x_max":1349,"o":"m 738 -60 q 473 8 591 -60 q 289 193 355 75 q 222 460 222 312 l 222 1282 l 115 1389 l 558 1389 l 450 1276 l 450 496 q 534 210 450 313 q 778 107 617 107 q 913 141 841 107 q 1036 252 984 175 q 1087 454 1087 329 l 1087 1276 l 974 1389 l 1349 1389 l 1244 1276 l 1244 444 q 1187 186 1244 300 q 1015 6 1129 71 q 738 -60 901 -60 z "},"Ǖ":{"ha":1464,"x_min":115,"x_max":1349,"o":"m 738 -60 q 473 8 591 -60 q 289 193 355 75 q 222 460 222 312 l 222 1282 l 115 1389 l 558 1389 l 450 1276 l 450 496 q 534 210 450 313 q 778 107 617 107 q 913 141 841 107 q 1036 252 984 175 q 1087 454 1087 329 l 1087 1276 l 974 1389 l 1349 1389 l 1244 1276 l 1244 444 q 1187 186 1244 300 q 1015 6 1129 71 q 738 -60 901 -60 z "},"Ụ":{"ha":1464,"x_min":115,"x_max":1349,"o":"m 738 -60 q 473 8 591 -60 q 289 193 355 75 q 222 460 222 312 l 222 1282 l 115 1389 l 558 1389 l 450 1276 l 450 496 q 534 210 450 313 q 778 107 617 107 q 913 141 841 107 q 1036 252 984 175 q 1087 454 1087 329 l 1087 1276 l 974 1389 l 1349 1389 l 1244 1276 l 1244 444 q 1187 186 1244 300 q 1015 6 1129 71 q 738 -60 901 -60 z "},"Ù":{"ha":1464,"x_min":115,"x_max":1349,"o":"m 738 -60 q 473 8 591 -60 q 289 193 355 75 q 222 460 222 312 l 222 1282 l 115 1389 l 558 1389 l 450 1276 l 450 496 q 534 210 450 313 q 778 107 617 107 q 913 141 841 107 q 1036 252 984 175 q 1087 454 1087 329 l 1087 1276 l 974 1389 l 1349 1389 l 1244 1276 l 1244 444 q 1187 186 1244 300 q 1015 6 1129 71 q 738 -60 901 -60 m 548 1772 l 625 1849 l 927 1563 l 849 1484 l 548 1772 z "},"Ủ":{"ha":1464,"x_min":115,"x_max":1349,"o":"m 738 -60 q 473 8 591 -60 q 289 193 355 75 q 222 460 222 312 l 222 1282 l 115 1389 l 558 1389 l 450 1276 l 450 496 q 534 210 450 313 q 778 107 617 107 q 913 141 841 107 q 1036 252 984 175 q 1087 454 1087 329 l 1087 1276 l 974 1389 l 1349 1389 l 1244 1276 l 1244 444 q 1187 186 1244 300 q 1015 6 1129 71 q 738 -60 901 -60 m 716 1474 q 734 1549 718 1524 q 780 1601 750 1573 q 807 1628 798 1615 q 815 1659 815 1641 q 813 1675 815 1669 q 756 1714 806 1714 q 716 1705 736 1714 q 688 1679 696 1696 l 639 1758 q 703 1816 665 1796 q 784 1837 742 1837 q 897 1784 851 1837 q 933 1687 933 1740 q 912 1604 933 1645 q 849 1534 891 1563 q 815 1504 825 1516 q 808 1474 806 1492 l 716 1474 z "},"Ư":{"ha":1464,"x_min":115,"x_max":1452,"o":"m 1421 1498 q 1443 1469 1435 1488 q 1452 1429 1452 1450 q 1435 1371 1452 1401 q 1313 1306 1391 1306 q 1276 1310 1300 1306 l 1244 1276 l 1244 444 q 1187 186 1244 300 q 1015 6 1129 71 q 738 -60 901 -60 q 473 8 591 -60 q 289 193 355 75 q 222 460 222 312 l 222 1282 l 115 1389 l 558 1389 l 450 1276 l 450 496 q 534 210 450 313 q 778 107 617 107 q 913 141 841 107 q 1036 252 984 175 q 1087 454 1087 329 l 1087 1276 l 974 1389 l 1282 1389 q 1272 1429 1272 1407 q 1290 1480 1272 1454 q 1365 1518 1321 1518 q 1421 1498 1399 1518 z "},"Ứ":{"ha":1464,"x_min":115,"x_max":1452,"o":"m 1421 1498 q 1443 1469 1435 1488 q 1452 1429 1452 1450 q 1435 1371 1452 1401 q 1313 1306 1391 1306 q 1276 1310 1300 1306 l 1244 1276 l 1244 444 q 1187 186 1244 300 q 1015 6 1129 71 q 738 -60 901 -60 q 473 8 591 -60 q 289 193 355 75 q 222 460 222 312 l 222 1282 l 115 1389 l 558 1389 l 450 1276 l 450 496 q 534 210 450 313 q 778 107 617 107 q 913 141 841 107 q 1036 252 984 175 q 1087 454 1087 329 l 1087 1276 l 974 1389 l 1282 1389 q 1272 1429 1272 1407 q 1290 1480 1272 1454 q 1365 1518 1321 1518 q 1421 1498 1399 1518 m 597 1563 l 899 1849 l 976 1772 l 675 1484 l 597 1563 z "},"Ự":{"ha":1464,"x_min":115,"x_max":1452,"o":"m 1421 1498 q 1443 1469 1435 1488 q 1452 1429 1452 1450 q 1435 1371 1452 1401 q 1313 1306 1391 1306 q 1276 1310 1300 1306 l 1244 1276 l 1244 444 q 1187 186 1244 300 q 1015 6 1129 71 q 738 -60 901 -60 q 473 8 591 -60 q 289 193 355 75 q 222 460 222 312 l 222 1282 l 115 1389 l 558 1389 l 450 1276 l 450 496 q 534 210 450 313 q 778 107 617 107 q 913 141 841 107 q 1036 252 984 175 q 1087 454 1087 329 l 1087 1276 l 974 1389 l 1282 1389 q 1272 1429 1272 1407 q 1290 1480 1272 1454 q 1365 1518 1321 1518 q 1421 1498 1399 1518 z "},"Ừ":{"ha":1464,"x_min":115,"x_max":1452,"o":"m 1421 1498 q 1443 1469 1435 1488 q 1452 1429 1452 1450 q 1435 1371 1452 1401 q 1313 1306 1391 1306 q 1276 1310 1300 1306 l 1244 1276 l 1244 444 q 1187 186 1244 300 q 1015 6 1129 71 q 738 -60 901 -60 q 473 8 591 -60 q 289 193 355 75 q 222 460 222 312 l 222 1282 l 115 1389 l 558 1389 l 450 1276 l 450 496 q 534 210 450 313 q 778 107 617 107 q 913 141 841 107 q 1036 252 984 175 q 1087 454 1087 329 l 1087 1276 l 974 1389 l 1282 1389 q 1272 1429 1272 1407 q 1290 1480 1272 1454 q 1365 1518 1321 1518 q 1421 1498 1399 1518 m 548 1772 l 625 1849 l 927 1563 l 849 1484 l 548 1772 z "},"Ử":{"ha":1464,"x_min":115,"x_max":1452,"o":"m 1421 1498 q 1443 1469 1435 1488 q 1452 1429 1452 1450 q 1435 1371 1452 1401 q 1313 1306 1391 1306 q 1276 1310 1300 1306 l 1244 1276 l 1244 444 q 1187 186 1244 300 q 1015 6 1129 71 q 738 -60 901 -60 q 473 8 591 -60 q 289 193 355 75 q 222 460 222 312 l 222 1282 l 115 1389 l 558 1389 l 450 1276 l 450 496 q 534 210 450 313 q 778 107 617 107 q 913 141 841 107 q 1036 252 984 175 q 1087 454 1087 329 l 1087 1276 l 974 1389 l 1282 1389 q 1272 1429 1272 1407 q 1290 1480 1272 1454 q 1365 1518 1321 1518 q 1421 1498 1399 1518 m 716 1474 q 734 1549 718 1524 q 780 1601 750 1573 q 807 1628 798 1615 q 815 1659 815 1641 q 813 1675 815 1669 q 756 1714 806 1714 q 716 1705 736 1714 q 688 1679 696 1696 l 639 1758 q 703 1816 665 1796 q 784 1837 742 1837 q 897 1784 851 1837 q 933 1687 933 1740 q 912 1604 933 1645 q 849 1534 891 1563 q 815 1504 825 1516 q 808 1474 806 1492 l 716 1474 z "},"Ữ":{"ha":1464,"x_min":115,"x_max":1452,"o":"m 1421 1498 q 1443 1469 1435 1488 q 1452 1429 1452 1450 q 1435 1371 1452 1401 q 1313 1306 1391 1306 q 1276 1310 1300 1306 l 1244 1276 l 1244 444 q 1187 186 1244 300 q 1015 6 1129 71 q 738 -60 901 -60 q 473 8 591 -60 q 289 193 355 75 q 222 460 222 312 l 222 1282 l 115 1389 l 558 1389 l 450 1276 l 450 496 q 534 210 450 313 q 778 107 617 107 q 913 141 841 107 q 1036 252 984 175 q 1087 454 1087 329 l 1087 1276 l 974 1389 l 1282 1389 q 1272 1429 1272 1407 q 1290 1480 1272 1454 q 1365 1518 1321 1518 q 1421 1498 1399 1518 m 474 1522 q 468 1522 470 1518 q 468 1532 466 1526 q 631 1659 510 1659 q 780 1627 688 1659 q 950 1587 893 1587 q 1058 1621 1010 1587 q 1063 1621 1062 1625 q 1063 1611 1065 1617 q 899 1492 1028 1492 q 740 1524 835 1492 q 649 1553 685 1544 q 583 1562 613 1562 q 474 1522 526 1562 z "},"Ű":{"ha":1464,"x_min":115,"x_max":1349,"o":"m 738 -60 q 473 8 591 -60 q 289 193 355 75 q 222 460 222 312 l 222 1282 l 115 1389 l 558 1389 l 450 1276 l 450 496 q 534 210 450 313 q 778 107 617 107 q 913 141 841 107 q 1036 252 984 175 q 1087 454 1087 329 l 1087 1276 l 974 1389 l 1349 1389 l 1244 1276 l 1244 444 q 1187 186 1244 300 q 1015 6 1129 71 q 738 -60 901 -60 z "},"Ū":{"ha":1464,"x_min":115,"x_max":1349,"o":"m 738 -60 q 473 8 591 -60 q 289 193 355 75 q 222 460 222 312 l 222 1282 l 115 1389 l 558 1389 l 450 1276 l 450 496 q 534 210 450 313 q 778 107 617 107 q 913 141 841 107 q 1036 252 984 175 q 1087 454 1087 329 l 1087 1276 l 974 1389 l 1349 1389 l 1244 1276 l 1244 444 q 1187 186 1244 300 q 1015 6 1129 71 q 738 -60 901 -60 m 476 1623 l 1056 1623 l 1056 1518 l 476 1518 l 476 1623 z "},"Ų":{"ha":1464,"x_min":115,"x_max":1349,"o":"m 1349 1389 l 1244 1276 l 1244 444 q 1128 98 1244 236 q 796 -58 1012 -40 q 744 -110 762 -79 q 726 -169 726 -141 q 730 -194 726 -179 q 753 -223 736 -212 q 792 -234 770 -234 q 863 -208 829 -234 l 909 -266 q 843 -325 883 -306 q 762 -345 804 -345 q 656 -306 700 -345 q 611 -198 611 -266 q 683 -58 611 -113 q 444 25 550 -46 q 281 208 339 95 q 222 460 222 321 l 222 1282 l 115 1389 l 558 1389 l 450 1276 l 450 496 q 534 210 450 313 q 778 107 617 107 q 913 141 841 107 q 1036 252 984 175 q 1087 454 1087 329 l 1087 1276 l 974 1389 l 1349 1389 z "},"Ů":{"ha":1464,"x_min":115,"x_max":1349,"o":"m 738 -60 q 473 8 591 -60 q 289 193 355 75 q 222 460 222 312 l 222 1282 l 115 1389 l 558 1389 l 450 1276 l 450 496 q 534 210 450 313 q 778 107 617 107 q 913 141 841 107 q 1036 252 984 175 q 1087 454 1087 329 l 1087 1276 l 974 1389 l 1349 1389 l 1244 1276 l 1244 444 q 1187 186 1244 300 q 1015 6 1129 71 q 738 -60 901 -60 m 766 1389 q 623 1451 685 1389 q 562 1593 562 1514 q 623 1736 562 1677 q 766 1796 685 1796 q 907 1734 845 1796 q 968 1593 968 1673 q 907 1449 968 1510 q 766 1389 845 1389 m 766 1494 q 836 1522 810 1494 q 863 1593 863 1550 q 836 1664 863 1637 q 766 1690 810 1690 q 694 1664 722 1690 q 667 1593 667 1637 q 693 1522 667 1550 q 766 1494 720 1494 z "},"Ũ":{"ha":1464,"x_min":115,"x_max":1349,"o":"m 738 -60 q 473 8 591 -60 q 289 193 355 75 q 222 460 222 312 l 222 1282 l 115 1389 l 558 1389 l 450 1276 l 450 496 q 534 210 450 313 q 778 107 617 107 q 913 141 841 107 q 1036 252 984 175 q 1087 454 1087 329 l 1087 1276 l 974 1389 l 1349 1389 l 1244 1276 l 1244 444 q 1187 186 1244 300 q 1015 6 1129 71 q 738 -60 901 -60 m 474 1522 q 468 1522 470 1518 q 468 1532 466 1526 q 631 1659 510 1659 q 780 1627 688 1659 q 950 1587 893 1587 q 1058 1621 1010 1587 q 1063 1621 1062 1625 q 1063 1611 1065 1617 q 899 1492 1028 1492 q 740 1524 835 1492 q 649 1553 685 1544 q 583 1562 613 1562 q 474 1522 526 1562 z "},"V":{"ha":1567,"x_min":91,"x_max":1476,"o":"m 240 1266 l 91 1389 l 581 1389 l 492 1292 l 839 421 l 1187 1282 l 1093 1389 l 1476 1389 l 1351 1266 l 808 -83 q 802 -91 806 -91 q 796 -83 798 -91 l 240 1266 z "},"W":{"ha":2093,"x_min":91,"x_max":2002,"o":"m 246 1254 l 91 1389 l 569 1389 l 484 1292 l 794 488 l 1097 1460 q 1104 1464 1099 1464 q 1111 1460 1109 1464 l 1440 516 l 1706 1304 l 1647 1389 l 2002 1389 l 1871 1274 l 1421 -91 q 1409 -91 1415 -105 l 1083 839 l 782 -105 q 776 -112 780 -111 q 770 -105 772 -113 l 246 1254 z "},"Ẃ":{"ha":2093,"x_min":91,"x_max":2002,"o":"m 246 1254 l 91 1389 l 569 1389 l 484 1292 l 794 488 l 1097 1460 q 1104 1464 1099 1464 q 1111 1460 1109 1464 l 1440 516 l 1706 1304 l 1647 1389 l 2002 1389 l 1871 1274 l 1421 -91 q 1409 -91 1415 -105 l 1083 839 l 782 -105 q 776 -112 780 -111 q 770 -105 772 -113 l 246 1254 m 937 1625 l 1238 1911 l 1315 1833 l 1014 1546 l 937 1625 z "},"Ŵ":{"ha":2093,"x_min":91,"x_max":2002,"o":"m 246 1254 l 91 1389 l 569 1389 l 484 1292 l 794 488 l 1097 1460 q 1104 1464 1099 1464 q 1111 1460 1109 1464 l 1440 516 l 1706 1304 l 1647 1389 l 2002 1389 l 1871 1274 l 1421 -91 q 1409 -91 1415 -105 l 1083 839 l 782 -105 q 776 -112 780 -111 q 770 -105 772 -113 l 246 1254 m 867 1669 l 1105 1778 l 1343 1669 l 1343 1554 l 1105 1649 l 867 1554 l 867 1669 z "},"Ẅ":{"ha":2093,"x_min":91,"x_max":2002,"o":"m 246 1254 l 91 1389 l 569 1389 l 484 1292 l 794 488 l 1097 1460 q 1104 1464 1099 1464 q 1111 1460 1109 1464 l 1440 516 l 1706 1304 l 1647 1389 l 2002 1389 l 1871 1274 l 1421 -91 q 1409 -91 1415 -105 l 1083 839 l 782 -105 q 776 -112 780 -111 q 770 -105 772 -113 l 246 1254 z "},"Ẁ":{"ha":2093,"x_min":91,"x_max":2002,"o":"m 246 1254 l 91 1389 l 569 1389 l 484 1292 l 794 488 l 1097 1460 q 1104 1464 1099 1464 q 1111 1460 1109 1464 l 1440 516 l 1706 1304 l 1647 1389 l 2002 1389 l 1871 1274 l 1421 -91 q 1409 -91 1415 -105 l 1083 839 l 782 -105 q 776 -112 780 -111 q 770 -105 772 -113 l 246 1254 m 887 1833 l 964 1911 l 1266 1625 l 1188 1546 l 887 1833 z "},"X":{"ha":1474,"x_min":107,"x_max":1367,"o":"m 236 111 l 627 760 l 351 1288 l 202 1389 l 675 1389 l 617 1306 l 774 1006 l 952 1306 l 895 1389 l 1274 1389 l 1139 1288 l 865 829 l 1238 111 l 1367 0 l 895 0 l 972 95 l 718 585 l 421 89 l 486 0 l 107 0 l 236 111 z "},"Y":{"ha":1466,"x_min":89,"x_max":1375,"o":"m 633 111 l 633 790 l 258 1274 l 89 1389 l 621 1389 l 544 1298 l 815 933 l 1054 1308 l 992 1389 l 1375 1389 q 1286 1325 1335 1363 q 1226 1272 1236 1288 l 875 722 l 875 111 l 980 0 l 524 0 l 633 111 z "},"Ý":{"ha":1466,"x_min":89,"x_max":1375,"o":"m 633 111 l 633 790 l 258 1274 l 89 1389 l 621 1389 l 544 1298 l 815 933 l 1054 1308 l 992 1389 l 1375 1389 q 1286 1325 1335 1363 q 1226 1272 1236 1288 l 875 722 l 875 111 l 980 0 l 524 0 l 633 111 m 631 1563 l 933 1849 l 1010 1772 l 708 1484 l 631 1563 z "},"Ŷ":{"ha":1466,"x_min":89,"x_max":1375,"o":"m 633 111 l 633 790 l 258 1274 l 89 1389 l 621 1389 l 544 1298 l 815 933 l 1054 1308 l 992 1389 l 1375 1389 q 1286 1325 1335 1363 q 1226 1272 1236 1288 l 875 722 l 875 111 l 980 0 l 524 0 l 633 111 m 562 1607 l 800 1716 l 1038 1607 l 1038 1492 l 800 1587 l 562 1492 l 562 1607 z "},"Ÿ":{"ha":1466,"x_min":89,"x_max":1375,"o":"m 633 111 l 633 790 l 258 1274 l 89 1389 l 621 1389 l 544 1298 l 815 933 l 1054 1308 l 992 1389 l 1375 1389 q 1286 1325 1335 1363 q 1226 1272 1236 1288 l 875 722 l 875 111 l 980 0 l 524 0 l 633 111 z "},"Ỵ":{"ha":1466,"x_min":89,"x_max":1375,"o":"m 633 111 l 633 790 l 258 1274 l 89 1389 l 621 1389 l 544 1298 l 815 933 l 1054 1308 l 992 1389 l 1375 1389 q 1286 1325 1335 1363 q 1226 1272 1236 1288 l 875 722 l 875 111 l 980 0 l 524 0 l 633 111 z "},"Ỳ":{"ha":1466,"x_min":89,"x_max":1375,"o":"m 633 111 l 633 790 l 258 1274 l 89 1389 l 621 1389 l 544 1298 l 815 933 l 1054 1308 l 992 1389 l 1375 1389 q 1286 1325 1335 1363 q 1226 1272 1236 1288 l 875 722 l 875 111 l 980 0 l 524 0 l 633 111 m 581 1772 l 659 1849 l 960 1563 l 883 1484 l 581 1772 z "},"Ỷ":{"ha":1466,"x_min":89,"x_max":1375,"o":"m 633 111 l 633 790 l 258 1274 l 89 1389 l 621 1389 l 544 1298 l 815 933 l 1054 1308 l 992 1389 l 1375 1389 q 1286 1325 1335 1363 q 1226 1272 1236 1288 l 875 722 l 875 111 l 980 0 l 524 0 l 633 111 m 750 1448 q 768 1523 752 1498 q 813 1575 784 1548 q 840 1602 831 1589 q 849 1633 849 1615 q 847 1649 849 1643 q 790 1688 839 1688 q 750 1680 770 1688 q 722 1653 730 1671 l 673 1732 q 737 1791 698 1770 q 817 1812 776 1812 q 931 1758 885 1812 q 966 1661 966 1714 q 945 1578 966 1619 q 883 1508 925 1538 q 849 1478 859 1490 q 841 1448 839 1466 l 750 1448 z "},"Ỹ":{"ha":1466,"x_min":89,"x_max":1375,"o":"m 633 111 l 633 790 l 258 1274 l 89 1389 l 621 1389 l 544 1298 l 815 933 l 1054 1308 l 992 1389 l 1375 1389 q 1286 1325 1335 1363 q 1226 1272 1236 1288 l 875 722 l 875 111 l 980 0 l 524 0 l 633 111 m 508 1522 q 502 1522 504 1518 q 502 1532 500 1526 q 665 1659 544 1659 q 813 1627 722 1659 q 984 1587 927 1587 q 1091 1621 1044 1587 q 1097 1621 1095 1625 q 1097 1611 1099 1617 q 933 1492 1062 1492 q 774 1524 869 1492 q 683 1553 718 1544 q 617 1562 647 1562 q 508 1522 560 1562 z "},"Z":{"ha":1230,"x_min":99,"x_max":1123,"o":"m 107 0 q 101 4 103 0 q 101 10 99 8 l 720 1226 l 250 1226 l 129 1133 l 153 1389 l 1056 1389 q 1064 1384 1062 1389 q 1063 1375 1067 1379 l 448 169 l 1008 169 l 1123 268 l 1099 0 l 107 0 z "},"Ź":{"ha":1230,"x_min":99,"x_max":1123,"o":"m 107 0 q 101 4 103 0 q 101 10 99 8 l 720 1226 l 250 1226 l 129 1133 l 153 1389 l 1056 1389 q 1064 1384 1062 1389 q 1063 1375 1067 1379 l 448 169 l 1008 169 l 1123 268 l 1099 0 l 107 0 m 460 1563 l 762 1849 l 839 1772 l 538 1484 l 460 1563 z "},"Ž":{"ha":1230,"x_min":99,"x_max":1123,"o":"m 107 0 q 101 4 103 0 q 101 10 99 8 l 720 1226 l 250 1226 l 129 1133 l 153 1389 l 1056 1389 q 1064 1384 1062 1389 q 1063 1375 1067 1379 l 448 169 l 1008 169 l 1123 268 l 1099 0 l 107 0 m 629 1613 l 867 1708 l 867 1593 l 629 1484 l 391 1593 l 391 1708 l 629 1613 z "},"Ż":{"ha":1230,"x_min":99,"x_max":1123,"o":"m 107 0 q 101 4 103 0 q 101 10 99 8 l 720 1226 l 250 1226 l 129 1133 l 153 1389 l 1056 1389 q 1064 1384 1062 1389 q 1063 1375 1067 1379 l 448 169 l 1008 169 l 1123 268 l 1099 0 l 107 0 z "},"a":{"ha":1296,"x_min":79,"x_max":1216,"o":"m 179 109 l 641 1208 q 652 1219 645 1218 q 663 1208 659 1220 l 1113 103 l 1216 0 l 853 0 l 905 93 l 851 228 l 373 228 l 321 107 l 375 0 l 79 0 l 179 109 m 798 361 l 619 812 l 429 361 l 798 361 z "},"á":{"ha":1296,"x_min":79,"x_max":1216,"o":"m 179 109 l 641 1208 q 652 1219 645 1218 q 663 1208 659 1220 l 1113 103 l 1216 0 l 853 0 l 905 93 l 851 228 l 373 228 l 321 107 l 375 0 l 79 0 l 179 109 m 798 361 l 619 812 l 429 361 l 798 361 m 482 1399 l 784 1685 l 861 1607 l 560 1319 l 482 1399 z "},"ă":{"ha":1296,"x_min":79,"x_max":1216,"o":"m 179 109 l 641 1208 q 652 1219 645 1218 q 663 1208 659 1220 l 1113 103 l 1216 0 l 853 0 l 905 93 l 851 228 l 373 228 l 321 107 l 375 0 l 79 0 l 179 109 m 798 361 l 619 812 l 429 361 l 798 361 m 651 1327 q 492 1368 569 1327 q 387 1462 415 1409 l 448 1544 q 540 1469 486 1498 q 651 1440 593 1440 q 762 1469 708 1440 q 853 1544 815 1498 l 913 1462 q 806 1367 881 1407 q 651 1327 730 1327 z "},"ắ":{"ha":1296,"x_min":79,"x_max":1216,"o":"m 179 109 l 641 1208 q 652 1219 645 1218 q 663 1208 659 1220 l 1113 103 l 1216 0 l 853 0 l 905 93 l 851 228 l 373 228 l 321 107 l 375 0 l 79 0 l 179 109 m 798 361 l 619 812 l 429 361 l 798 361 z "},"ặ":{"ha":1296,"x_min":79,"x_max":1216,"o":"m 179 109 l 641 1208 q 652 1219 645 1218 q 663 1208 659 1220 l 1113 103 l 1216 0 l 853 0 l 905 93 l 851 228 l 373 228 l 321 107 l 375 0 l 79 0 l 179 109 m 798 361 l 619 812 l 429 361 l 798 361 m 651 1327 q 492 1368 569 1327 q 387 1462 415 1409 l 448 1544 q 540 1469 486 1498 q 651 1440 593 1440 q 762 1469 708 1440 q 853 1544 815 1498 l 913 1462 q 806 1367 881 1407 q 651 1327 730 1327 z "},"ằ":{"ha":1296,"x_min":79,"x_max":1216,"o":"m 179 109 l 641 1208 q 652 1219 645 1218 q 663 1208 659 1220 l 1113 103 l 1216 0 l 853 0 l 905 93 l 851 228 l 373 228 l 321 107 l 375 0 l 79 0 l 179 109 m 798 361 l 619 812 l 429 361 l 798 361 z "},"ẳ":{"ha":1296,"x_min":79,"x_max":1216,"o":"m 179 109 l 641 1208 q 652 1219 645 1218 q 663 1208 659 1220 l 1113 103 l 1216 0 l 853 0 l 905 93 l 851 228 l 373 228 l 321 107 l 375 0 l 79 0 l 179 109 m 798 361 l 619 812 l 429 361 l 798 361 z "},"ẵ":{"ha":1296,"x_min":79,"x_max":1216,"o":"m 179 109 l 641 1208 q 652 1219 645 1218 q 663 1208 659 1220 l 1113 103 l 1216 0 l 853 0 l 905 93 l 851 228 l 373 228 l 321 107 l 375 0 l 79 0 l 179 109 m 798 361 l 619 812 l 429 361 l 798 361 z "},"ǎ":{"ha":1296,"x_min":79,"x_max":1216,"o":"m 179 109 l 641 1208 q 652 1219 645 1218 q 663 1208 659 1220 l 1113 103 l 1216 0 l 853 0 l 905 93 l 851 228 l 373 228 l 321 107 l 375 0 l 79 0 l 179 109 m 798 361 l 619 812 l 429 361 l 798 361 m 651 1448 l 889 1544 l 889 1429 l 651 1319 l 413 1429 l 413 1544 l 651 1448 z "},"â":{"ha":1296,"x_min":79,"x_max":1216,"o":"m 179 109 l 641 1208 q 652 1219 645 1218 q 663 1208 659 1220 l 1113 103 l 1216 0 l 853 0 l 905 93 l 851 228 l 373 228 l 321 107 l 375 0 l 79 0 l 179 109 m 798 361 l 619 812 l 429 361 l 798 361 m 413 1413 l 651 1522 l 889 1413 l 889 1298 l 651 1393 l 413 1298 l 413 1413 z "},"ấ":{"ha":1296,"x_min":79,"x_max":1216,"o":"m 179 109 l 641 1208 q 652 1219 645 1218 q 663 1208 659 1220 l 1113 103 l 1216 0 l 853 0 l 905 93 l 851 228 l 373 228 l 321 107 l 375 0 l 79 0 l 179 109 m 798 361 l 619 812 l 429 361 l 798 361 z "},"ậ":{"ha":1296,"x_min":79,"x_max":1216,"o":"m 179 109 l 641 1208 q 652 1219 645 1218 q 663 1208 659 1220 l 1113 103 l 1216 0 l 853 0 l 905 93 l 851 228 l 373 228 l 321 107 l 375 0 l 79 0 l 179 109 m 798 361 l 619 812 l 429 361 l 798 361 m 413 1413 l 651 1522 l 889 1413 l 889 1298 l 651 1393 l 413 1298 l 413 1413 z "},"ầ":{"ha":1296,"x_min":79,"x_max":1216,"o":"m 179 109 l 641 1208 q 652 1219 645 1218 q 663 1208 659 1220 l 1113 103 l 1216 0 l 853 0 l 905 93 l 851 228 l 373 228 l 321 107 l 375 0 l 79 0 l 179 109 m 798 361 l 619 812 l 429 361 l 798 361 z "},"ẩ":{"ha":1296,"x_min":79,"x_max":1216,"o":"m 179 109 l 641 1208 q 652 1219 645 1218 q 663 1208 659 1220 l 1113 103 l 1216 0 l 853 0 l 905 93 l 851 228 l 373 228 l 321 107 l 375 0 l 79 0 l 179 109 m 798 361 l 619 812 l 429 361 l 798 361 z "},"ẫ":{"ha":1296,"x_min":79,"x_max":1216,"o":"m 179 109 l 641 1208 q 652 1219 645 1218 q 663 1208 659 1220 l 1113 103 l 1216 0 l 853 0 l 905 93 l 851 228 l 373 228 l 321 107 l 375 0 l 79 0 l 179 109 m 798 361 l 619 812 l 429 361 l 798 361 z "},"ä":{"ha":1296,"x_min":79,"x_max":1216,"o":"m 179 109 l 641 1208 q 652 1219 645 1218 q 663 1208 659 1220 l 1113 103 l 1216 0 l 853 0 l 905 93 l 851 228 l 373 228 l 321 107 l 375 0 l 79 0 l 179 109 m 798 361 l 619 812 l 429 361 l 798 361 z "},"ạ":{"ha":1296,"x_min":79,"x_max":1216,"o":"m 179 109 l 641 1208 q 652 1219 645 1218 q 663 1208 659 1220 l 1113 103 l 1216 0 l 853 0 l 905 93 l 851 228 l 373 228 l 321 107 l 375 0 l 79 0 l 179 109 m 798 361 l 619 812 l 429 361 l 798 361 z "},"à":{"ha":1296,"x_min":79,"x_max":1216,"o":"m 179 109 l 641 1208 q 652 1219 645 1218 q 663 1208 659 1220 l 1113 103 l 1216 0 l 853 0 l 905 93 l 851 228 l 373 228 l 321 107 l 375 0 l 79 0 l 179 109 m 798 361 l 619 812 l 429 361 l 798 361 m 433 1607 l 510 1685 l 812 1399 l 734 1319 l 433 1607 z "},"ả":{"ha":1296,"x_min":79,"x_max":1216,"o":"m 179 109 l 641 1208 q 652 1219 645 1218 q 663 1208 659 1220 l 1113 103 l 1216 0 l 853 0 l 905 93 l 851 228 l 373 228 l 321 107 l 375 0 l 79 0 l 179 109 m 798 361 l 619 812 l 429 361 l 798 361 m 601 1310 q 619 1384 603 1359 q 665 1437 635 1409 q 691 1463 683 1450 q 700 1494 700 1476 q 698 1510 700 1504 q 641 1550 690 1550 q 601 1541 621 1550 q 573 1514 581 1532 l 524 1593 q 588 1652 550 1631 q 669 1673 627 1673 q 782 1619 736 1673 q 817 1522 817 1575 q 797 1439 817 1480 q 734 1369 776 1399 q 700 1339 710 1351 q 692 1310 690 1327 l 601 1310 z "},"ā":{"ha":1296,"x_min":79,"x_max":1216,"o":"m 179 109 l 641 1208 q 652 1219 645 1218 q 663 1208 659 1220 l 1113 103 l 1216 0 l 853 0 l 905 93 l 851 228 l 373 228 l 321 107 l 375 0 l 79 0 l 179 109 m 798 361 l 619 812 l 429 361 l 798 361 m 361 1458 l 940 1458 l 940 1353 l 361 1353 l 361 1458 z "},"ą":{"ha":1296,"x_min":79,"x_max":1216,"o":"m 968 -151 q 991 -180 974 -169 q 1030 -190 1008 -190 q 1101 -165 1067 -190 l 1147 -222 q 1081 -282 1121 -262 q 1000 -302 1042 -302 q 894 -262 938 -302 q 849 -157 849 -222 q 940 0 849 -54 l 853 0 l 905 93 l 851 228 l 373 228 l 321 107 l 375 0 l 79 0 l 179 109 l 641 1208 q 652 1219 645 1218 q 663 1208 659 1220 l 1113 103 l 1216 0 l 1056 0 q 988 -58 1012 -24 q 964 -125 964 -91 q 968 -151 964 -135 m 798 361 l 619 812 l 429 361 l 798 361 z "},"å":{"ha":1296,"x_min":79,"x_max":1216,"o":"m 853 0 l 905 93 l 851 228 l 373 228 l 321 107 l 375 0 l 79 0 l 179 109 l 607 1131 q 505 1198 548 1147 q 462 1312 462 1250 q 519 1443 462 1389 q 651 1498 575 1498 q 781 1441 724 1498 q 837 1312 837 1385 q 797 1197 837 1248 q 694 1131 756 1147 l 1113 103 l 1216 0 l 853 0 m 560 1312 q 584 1246 560 1272 q 651 1220 609 1220 q 715 1246 690 1220 q 740 1312 740 1272 q 715 1376 740 1351 q 651 1401 690 1401 q 584 1376 609 1401 q 560 1312 560 1351 m 798 361 l 619 812 l 429 361 l 798 361 z "},"ã":{"ha":1296,"x_min":79,"x_max":1216,"o":"m 179 109 l 641 1208 q 652 1219 645 1218 q 663 1208 659 1220 l 1113 103 l 1216 0 l 853 0 l 905 93 l 851 228 l 373 228 l 321 107 l 375 0 l 79 0 l 179 109 m 798 361 l 619 812 l 429 361 l 798 361 m 359 1357 q 353 1357 355 1353 q 353 1367 351 1361 q 516 1494 395 1494 q 665 1462 573 1494 q 835 1423 778 1423 q 942 1456 895 1423 q 948 1456 946 1460 q 948 1446 950 1452 q 784 1327 913 1327 q 625 1359 720 1327 q 534 1388 569 1379 q 468 1397 498 1397 q 359 1357 411 1397 z "},"æ":{"ha":1685,"x_min":58,"x_max":1591,"o":"m 1556 276 q 1591 260 1573 270 l 1516 0 l 738 0 l 827 95 l 827 228 l 425 228 l 341 107 l 387 0 l 58 0 l 161 109 l 819 1069 l 738 1157 l 1490 1157 l 1550 937 l 1405 1022 l 1032 1022 l 1032 683 l 1260 683 l 1367 772 l 1367 466 l 1260 550 l 1032 550 l 1032 169 q 1200 123 1095 133 q 1260 121 1218 121 q 1556 276 1476 121 m 827 361 l 827 819 l 514 361 l 827 361 z "},"b":{"ha":1032,"x_min":103,"x_max":954,"o":"m 192 93 l 192 1060 l 103 1157 l 569 1157 q 774 1082 694 1157 q 853 887 853 1008 q 813 756 853 812 q 708 669 772 700 q 883 546 812 637 q 954 343 954 454 q 902 171 954 250 q 758 45 849 91 q 552 -2 667 -2 l 103 -2 l 192 93 m 476 712 q 609 753 560 712 q 659 875 659 794 q 617 996 659 958 q 490 1034 575 1034 l 387 1034 l 387 712 l 476 712 m 569 135 q 703 201 657 141 q 750 347 750 262 q 693 511 750 448 q 560 573 637 573 l 387 573 l 387 198 q 569 135 427 125 z "},"c":{"ha":1260,"x_min":83,"x_max":1163,"o":"m 710 -52 q 396 33 540 -52 q 168 262 252 117 q 83 579 83 407 q 168 894 83 750 q 396 1122 252 1038 q 710 1206 540 1206 q 960 1161 843 1206 q 1163 1028 1077 1115 l 1163 825 l 1139 825 q 981 1014 1085 946 q 748 1081 877 1081 q 500 1003 601 1081 q 350 809 399 925 q 302 579 302 692 q 361 314 302 429 q 523 139 421 200 q 748 77 625 77 q 981 148 877 77 q 1141 341 1085 218 l 1163 341 l 1163 127 q 960 -5 1077 42 q 710 -52 843 -52 z "},"ć":{"ha":1260,"x_min":83,"x_max":1163,"o":"m 710 -52 q 396 33 540 -52 q 168 262 252 117 q 83 579 83 407 q 168 894 83 750 q 396 1122 252 1038 q 710 1206 540 1206 q 960 1161 843 1206 q 1163 1028 1077 1115 l 1163 825 l 1139 825 q 981 1014 1085 946 q 748 1081 877 1081 q 500 1003 601 1081 q 350 809 399 925 q 302 579 302 692 q 361 314 302 429 q 523 139 421 200 q 748 77 625 77 q 981 148 877 77 q 1141 341 1085 218 l 1163 341 l 1163 127 q 960 -5 1077 42 q 710 -52 843 -52 m 538 1365 l 839 1651 l 917 1573 l 615 1286 l 538 1365 z "},"č":{"ha":1260,"x_min":83,"x_max":1163,"o":"m 710 -52 q 396 33 540 -52 q 168 262 252 117 q 83 579 83 407 q 168 894 83 750 q 396 1122 252 1038 q 710 1206 540 1206 q 960 1161 843 1206 q 1163 1028 1077 1115 l 1163 825 l 1139 825 q 981 1014 1085 946 q 748 1081 877 1081 q 500 1003 601 1081 q 350 809 399 925 q 302 579 302 692 q 361 314 302 429 q 523 139 421 200 q 748 77 625 77 q 981 148 877 77 q 1141 341 1085 218 l 1163 341 l 1163 127 q 960 -5 1077 42 q 710 -52 843 -52 m 706 1415 l 944 1510 l 944 1395 l 706 1286 l 468 1395 l 468 1510 l 706 1415 z "},"ç":{"ha":1260,"x_min":83,"x_max":1163,"o":"m 748 1081 q 500 1003 601 1081 q 350 809 399 925 q 302 579 302 692 q 361 314 302 429 q 523 139 421 200 q 748 77 625 77 q 981 148 877 77 q 1141 341 1085 218 l 1163 341 l 1163 127 q 976 1 1083 48 q 746 -52 869 -46 l 732 -79 q 802 -130 770 -93 q 833 -224 833 -167 q 785 -334 833 -292 q 673 -377 736 -377 q 595 -359 631 -377 q 536 -304 560 -341 l 579 -252 q 659 -276 625 -276 q 718 -218 718 -276 q 688 -158 718 -179 q 599 -137 657 -137 l 639 -48 q 357 58 484 -30 q 157 282 230 145 q 83 579 83 419 q 168 894 83 750 q 396 1122 252 1038 q 710 1206 540 1206 q 960 1161 843 1206 q 1163 1028 1077 1115 l 1163 825 l 1139 825 q 981 1014 1085 946 q 748 1081 877 1081 z "},"ċ":{"ha":1260,"x_min":83,"x_max":1163,"o":"m 710 -52 q 396 33 540 -52 q 168 262 252 117 q 83 579 83 407 q 168 894 83 750 q 396 1122 252 1038 q 710 1206 540 1206 q 960 1161 843 1206 q 1163 1028 1077 1115 l 1163 825 l 1139 825 q 981 1014 1085 946 q 748 1081 877 1081 q 500 1003 601 1081 q 350 809 399 925 q 302 579 302 692 q 361 314 302 429 q 523 139 421 200 q 748 77 625 77 q 981 148 877 77 q 1141 341 1085 218 l 1163 341 l 1163 127 q 960 -5 1077 42 q 710 -52 843 -52 z "},"d":{"ha":1262,"x_min":103,"x_max":1179,"o":"m 192 109 l 192 1050 l 103 1157 l 621 1155 q 893 1076 764 1155 q 1100 866 1022 998 q 1179 577 1179 734 q 1105 286 1179 417 q 894 77 1032 155 q 567 0 756 0 l 103 0 l 192 109 m 385 151 q 534 125 456 125 q 751 185 651 125 q 910 351 851 244 q 964 593 968 458 q 907 800 964 700 q 756 961 849 899 q 560 1024 663 1024 l 385 1024 l 385 151 z "},"ð":{"ha":1262,"x_min":103,"x_max":1179,"o":"m 621 1155 q 893 1076 764 1155 q 1100 866 1022 998 q 1179 577 1179 734 q 1105 286 1179 417 q 894 77 1032 155 q 567 0 756 0 l 103 0 l 192 109 l 192 530 l 113 530 l 113 677 l 192 677 l 192 1050 l 103 1157 l 621 1155 m 385 151 q 534 125 456 125 q 751 185 651 125 q 910 351 851 244 q 964 593 968 458 q 907 800 964 700 q 756 961 849 899 q 560 1024 663 1024 l 385 1024 l 385 677 l 583 677 l 583 530 l 385 530 l 385 151 z "},"ď":{"ha":1413,"x_min":103,"x_max":1359,"o":"m 192 109 l 192 1050 l 103 1157 l 621 1155 q 893 1076 764 1155 q 1100 866 1022 998 q 1179 577 1179 734 q 1105 286 1179 417 q 894 77 1032 155 q 567 0 756 0 l 103 0 l 192 109 m 385 151 q 534 125 456 125 q 751 185 651 125 q 910 351 851 244 q 964 593 968 458 q 907 800 964 700 q 756 961 849 899 q 560 1024 663 1024 l 385 1024 l 385 151 m 1220 915 q 1211 917 1212 913 q 1214 923 1210 921 q 1238 994 1238 964 q 1194 1027 1210 1004 q 1179 1073 1179 1050 q 1204 1142 1179 1113 q 1270 1171 1230 1171 q 1330 1143 1302 1171 q 1359 1067 1359 1115 q 1319 966 1359 1008 q 1220 915 1280 925 z "},"đ":{"ha":1262,"x_min":103,"x_max":1179,"o":"m 621 1155 q 893 1076 764 1155 q 1100 866 1022 998 q 1179 577 1179 734 q 1105 286 1179 417 q 894 77 1032 155 q 567 0 756 0 l 103 0 l 192 109 l 192 530 l 113 530 l 113 677 l 192 677 l 192 1050 l 103 1157 l 621 1155 m 385 151 q 534 125 456 125 q 751 185 651 125 q 910 351 851 244 q 964 593 968 458 q 907 800 964 700 q 756 961 849 899 q 560 1024 663 1024 l 385 1024 l 385 677 l 583 677 l 583 530 l 385 530 l 385 151 z "},"e":{"ha":1050,"x_min":103,"x_max":956,"o":"m 192 95 l 192 1062 l 103 1157 l 855 1157 l 915 937 l 770 1022 l 397 1022 l 397 683 l 625 683 l 732 772 l 732 466 l 625 550 l 397 550 l 397 169 q 565 123 460 133 q 625 121 583 121 q 921 276 841 121 q 956 260 938 270 l 881 0 l 103 0 l 192 95 z "},"é":{"ha":1050,"x_min":103,"x_max":956,"o":"m 192 95 l 192 1062 l 103 1157 l 855 1157 l 915 937 l 770 1022 l 397 1022 l 397 683 l 625 683 l 732 772 l 732 466 l 625 550 l 397 550 l 397 169 q 565 123 460 133 q 625 121 583 121 q 921 276 841 121 q 956 260 938 270 l 881 0 l 103 0 l 192 95 m 361 1331 l 663 1617 l 740 1540 l 438 1252 l 361 1331 z "},"ě":{"ha":1050,"x_min":103,"x_max":956,"o":"m 192 95 l 192 1062 l 103 1157 l 855 1157 l 915 937 l 770 1022 l 397 1022 l 397 683 l 625 683 l 732 772 l 732 466 l 625 550 l 397 550 l 397 169 q 565 123 460 133 q 625 121 583 121 q 921 276 841 121 q 956 260 938 270 l 881 0 l 103 0 l 192 95 m 530 1381 l 768 1476 l 768 1361 l 530 1252 l 292 1361 l 292 1476 l 530 1381 z "},"ê":{"ha":1050,"x_min":103,"x_max":956,"o":"m 192 95 l 192 1062 l 103 1157 l 855 1157 l 915 937 l 770 1022 l 397 1022 l 397 683 l 625 683 l 732 772 l 732 466 l 625 550 l 397 550 l 397 169 q 565 123 460 133 q 625 121 583 121 q 921 276 841 121 q 956 260 938 270 l 881 0 l 103 0 l 192 95 m 292 1375 l 530 1484 l 768 1375 l 768 1260 l 530 1355 l 292 1260 l 292 1375 z "},"ế":{"ha":1050,"x_min":103,"x_max":1040,"o":"m 192 95 l 192 1062 l 103 1157 l 855 1157 l 915 937 l 770 1022 l 397 1022 l 397 683 l 625 683 l 732 772 l 732 466 l 625 550 l 397 550 l 397 169 q 565 123 460 133 q 625 121 583 121 q 921 276 841 121 q 956 260 938 270 l 881 0 l 103 0 l 192 95 z "},"ệ":{"ha":1050,"x_min":103,"x_max":956,"o":"m 192 95 l 192 1062 l 103 1157 l 855 1157 l 915 937 l 770 1022 l 397 1022 l 397 683 l 625 683 l 732 772 l 732 466 l 625 550 l 397 550 l 397 169 q 565 123 460 133 q 625 121 583 121 q 921 276 841 121 q 956 260 938 270 l 881 0 l 103 0 l 192 95 m 292 1375 l 530 1484 l 768 1375 l 768 1260 l 530 1355 l 292 1260 l 292 1375 z "},"ề":{"ha":1050,"x_min":103,"x_max":956,"o":"m 192 95 l 192 1062 l 103 1157 l 855 1157 l 915 937 l 770 1022 l 397 1022 l 397 683 l 625 683 l 732 772 l 732 466 l 625 550 l 397 550 l 397 169 q 565 123 460 133 q 625 121 583 121 q 921 276 841 121 q 956 260 938 270 l 881 0 l 103 0 l 192 95 z "},"ể":{"ha":1050,"x_min":103,"x_max":956,"o":"m 192 95 l 192 1062 l 103 1157 l 855 1157 l 915 937 l 770 1022 l 397 1022 l 397 683 l 625 683 l 732 772 l 732 466 l 625 550 l 397 550 l 397 169 q 565 123 460 133 q 625 121 583 121 q 921 276 841 121 q 956 260 938 270 l 881 0 l 103 0 l 192 95 z "},"ễ":{"ha":1050,"x_min":103,"x_max":956,"o":"m 192 95 l 192 1062 l 103 1157 l 855 1157 l 915 937 l 770 1022 l 397 1022 l 397 683 l 625 683 l 732 772 l 732 466 l 625 550 l 397 550 l 397 169 q 565 123 460 133 q 625 121 583 121 q 921 276 841 121 q 956 260 938 270 l 881 0 l 103 0 l 192 95 z "},"ë":{"ha":1050,"x_min":103,"x_max":956,"o":"m 192 95 l 192 1062 l 103 1157 l 855 1157 l 915 937 l 770 1022 l 397 1022 l 397 683 l 625 683 l 732 772 l 732 466 l 625 550 l 397 550 l 397 169 q 565 123 460 133 q 625 121 583 121 q 921 276 841 121 q 956 260 938 270 l 881 0 l 103 0 l 192 95 z "},"ė":{"ha":1050,"x_min":103,"x_max":956,"o":"m 192 95 l 192 1062 l 103 1157 l 855 1157 l 915 937 l 770 1022 l 397 1022 l 397 683 l 625 683 l 732 772 l 732 466 l 625 550 l 397 550 l 397 169 q 565 123 460 133 q 625 121 583 121 q 921 276 841 121 q 956 260 938 270 l 881 0 l 103 0 l 192 95 z "},"ẹ":{"ha":1050,"x_min":103,"x_max":956,"o":"m 192 95 l 192 1062 l 103 1157 l 855 1157 l 915 937 l 770 1022 l 397 1022 l 397 683 l 625 683 l 732 772 l 732 466 l 625 550 l 397 550 l 397 169 q 565 123 460 133 q 625 121 583 121 q 921 276 841 121 q 956 260 938 270 l 881 0 l 103 0 l 192 95 z "},"è":{"ha":1050,"x_min":103,"x_max":956,"o":"m 192 95 l 192 1062 l 103 1157 l 855 1157 l 915 937 l 770 1022 l 397 1022 l 397 683 l 625 683 l 732 772 l 732 466 l 625 550 l 397 550 l 397 169 q 565 123 460 133 q 625 121 583 121 q 921 276 841 121 q 956 260 938 270 l 881 0 l 103 0 l 192 95 m 312 1540 l 389 1617 l 690 1331 l 613 1252 l 312 1540 z "},"ẻ":{"ha":1050,"x_min":103,"x_max":956,"o":"m 192 95 l 192 1062 l 103 1157 l 855 1157 l 915 937 l 770 1022 l 397 1022 l 397 683 l 625 683 l 732 772 l 732 466 l 625 550 l 397 550 l 397 169 q 565 123 460 133 q 625 121 583 121 q 921 276 841 121 q 956 260 938 270 l 881 0 l 103 0 l 192 95 m 480 1242 q 498 1316 482 1292 q 544 1369 514 1341 q 570 1396 562 1383 q 579 1427 579 1409 q 577 1442 579 1437 q 520 1482 569 1482 q 480 1473 500 1482 q 452 1446 460 1464 l 403 1526 q 467 1584 429 1563 q 548 1605 506 1605 q 661 1552 615 1605 q 696 1454 696 1508 q 676 1372 696 1413 q 613 1302 655 1331 q 579 1272 589 1284 q 571 1242 569 1260 l 480 1242 z "},"ē":{"ha":1050,"x_min":103,"x_max":956,"o":"m 192 95 l 192 1062 l 103 1157 l 855 1157 l 915 937 l 770 1022 l 397 1022 l 397 683 l 625 683 l 732 772 l 732 466 l 625 550 l 397 550 l 397 169 q 565 123 460 133 q 625 121 583 121 q 921 276 841 121 q 956 260 938 270 l 881 0 l 103 0 l 192 95 m 240 1391 l 819 1391 l 819 1286 l 240 1286 l 240 1391 z "},"ę":{"ha":1050,"x_min":103,"x_max":956,"o":"m 583 0 q 516 -58 540 -24 q 492 -125 492 -91 q 496 -151 492 -135 q 519 -180 502 -169 q 558 -190 536 -190 q 629 -165 595 -190 l 675 -222 q 609 -282 649 -262 q 528 -302 569 -302 q 422 -262 466 -302 q 377 -157 377 -222 q 468 0 377 -54 l 103 0 l 192 95 l 192 1062 l 103 1157 l 855 1157 l 915 937 l 770 1022 l 397 1022 l 397 683 l 625 683 l 732 772 l 732 466 l 625 550 l 397 550 l 397 169 q 565 123 460 133 q 625 121 583 121 q 921 276 841 121 q 956 260 938 270 l 881 0 l 583 0 z "},"ẽ":{"ha":1050,"x_min":103,"x_max":956,"o":"m 192 95 l 192 1062 l 103 1157 l 855 1157 l 915 937 l 770 1022 l 397 1022 l 397 683 l 625 683 l 732 772 l 732 466 l 625 550 l 397 550 l 397 169 q 565 123 460 133 q 625 121 583 121 q 921 276 841 121 q 956 260 938 270 l 881 0 l 103 0 l 192 95 m 238 1290 q 232 1290 234 1286 q 232 1300 230 1294 q 395 1427 274 1427 q 544 1395 452 1427 q 714 1355 657 1355 q 821 1389 774 1355 q 827 1389 825 1393 q 827 1379 829 1385 q 663 1260 792 1260 q 504 1292 599 1260 q 413 1320 448 1312 q 347 1329 377 1329 q 238 1290 290 1329 z "},"f":{"ha":938,"x_min":103,"x_max":859,"o":"m 192 93 l 192 1062 l 103 1157 l 813 1157 l 859 925 l 716 1022 l 397 1022 l 397 669 l 611 669 l 718 758 l 718 452 l 611 534 l 397 534 l 397 93 l 482 0 l 103 0 l 192 93 z "},"g":{"ha":1341,"x_min":83,"x_max":1270,"o":"m 712 -54 q 397 32 542 -54 q 168 262 252 117 q 83 577 83 407 q 168 893 83 748 q 397 1122 252 1038 q 712 1206 542 1206 q 939 1169 831 1206 q 1131 1060 1048 1131 l 1131 835 l 1101 835 q 956 1016 1050 952 q 738 1079 863 1079 q 492 1002 589 1079 q 349 810 395 925 q 304 579 304 694 q 363 313 304 427 q 525 137 423 198 q 750 75 627 75 q 994 165 895 75 l 994 435 l 901 536 l 1270 536 l 1188 435 q 1187 153 1187 331 q 981 2 1113 58 q 712 -54 849 -54 z "},"ğ":{"ha":1341,"x_min":83,"x_max":1270,"o":"m 712 -54 q 397 32 542 -54 q 168 262 252 117 q 83 577 83 407 q 168 893 83 748 q 397 1122 252 1038 q 712 1206 542 1206 q 939 1169 831 1206 q 1131 1060 1048 1131 l 1131 835 l 1101 835 q 956 1016 1050 952 q 738 1079 863 1079 q 492 1002 589 1079 q 349 810 395 925 q 304 579 304 694 q 363 313 304 427 q 525 137 423 198 q 750 75 627 75 q 994 165 895 75 l 994 435 l 901 536 l 1270 536 l 1188 435 q 1187 153 1187 331 q 981 2 1113 58 q 712 -54 849 -54 m 714 1298 q 556 1338 633 1298 q 450 1433 478 1379 l 512 1514 q 603 1439 550 1468 q 714 1411 657 1411 q 825 1439 772 1411 q 917 1514 879 1468 l 976 1433 q 869 1337 944 1377 q 714 1298 794 1298 z "},"ģ":{"ha":1341,"x_min":83,"x_max":1270,"o":"m 712 -54 q 397 32 542 -54 q 168 262 252 117 q 83 577 83 407 q 168 893 83 748 q 397 1122 252 1038 q 712 1206 542 1206 q 939 1169 831 1206 q 1131 1060 1048 1131 l 1131 835 l 1101 835 q 956 1016 1050 952 q 738 1079 863 1079 q 492 1002 589 1079 q 349 810 395 925 q 304 579 304 694 q 363 313 304 427 q 525 137 423 198 q 750 75 627 75 q 994 165 895 75 l 994 435 l 901 536 l 1270 536 l 1188 435 q 1187 153 1187 331 q 981 2 1113 58 q 712 -54 849 -54 m 770 1625 q 779 1623 778 1627 q 776 1615 780 1619 q 750 1536 750 1571 q 799 1501 782 1526 q 815 1448 815 1476 q 788 1371 815 1403 q 714 1339 760 1339 q 646 1371 677 1339 q 615 1458 615 1403 q 660 1567 615 1522 q 770 1625 704 1613 z "},"ġ":{"ha":1341,"x_min":83,"x_max":1270,"o":"m 712 -54 q 397 32 542 -54 q 168 262 252 117 q 83 577 83 407 q 168 893 83 748 q 397 1122 252 1038 q 712 1206 542 1206 q 939 1169 831 1206 q 1131 1060 1048 1131 l 1131 835 l 1101 835 q 956 1016 1050 952 q 738 1079 863 1079 q 492 1002 589 1079 q 349 810 395 925 q 304 579 304 694 q 363 313 304 427 q 525 137 423 198 q 750 75 627 75 q 994 165 895 75 l 994 435 l 901 536 l 1270 536 l 1188 435 q 1187 153 1187 331 q 981 2 1113 58 q 712 -54 849 -54 z "},"h":{"ha":1369,"x_min":103,"x_max":1266,"o":"m 192 93 l 192 1062 l 103 1157 l 482 1157 l 395 1062 l 395 704 l 976 704 l 976 1062 l 885 1157 l 1266 1157 l 1179 1062 l 1179 93 l 1266 0 l 885 0 l 976 93 l 976 571 l 395 571 l 395 93 l 482 0 l 103 0 l 192 93 z "},"ħ":{"ha":1369,"x_min":103,"x_max":1266,"o":"m 1179 93 l 1266 0 l 885 0 l 976 93 l 976 571 l 395 571 l 395 93 l 482 0 l 103 0 l 192 93 l 192 821 l 109 821 l 109 964 l 192 964 l 192 1062 l 103 1157 l 482 1157 l 395 1062 l 395 964 l 976 964 l 976 1062 l 885 1157 l 1266 1157 l 1179 1062 l 1179 964 l 1260 964 l 1260 821 l 1179 821 l 1179 93 m 976 704 l 976 821 l 395 821 l 395 704 l 976 704 z "},"i":{"ha":595,"x_min":107,"x_max":488,"o":"m 198 93 l 198 1062 l 107 1157 l 488 1157 l 401 1062 l 401 93 l 488 0 l 107 0 l 198 93 z "},"ı":{"ha":595,"x_min":107,"x_max":488,"o":"m 198 93 l 198 1062 l 107 1157 l 488 1157 l 401 1062 l 401 93 l 488 0 l 107 0 l 198 93 z "},"í":{"ha":595,"x_min":107,"x_max":508,"o":"m 198 93 l 198 1062 l 107 1157 l 488 1157 l 401 1062 l 401 93 l 488 0 l 107 0 l 198 93 m 129 1331 l 431 1617 l 508 1540 l 206 1252 l 129 1331 z "},"ǐ":{"ha":595,"x_min":60,"x_max":536,"o":"m 198 93 l 198 1062 l 107 1157 l 488 1157 l 401 1062 l 401 93 l 488 0 l 107 0 l 198 93 m 298 1381 l 536 1476 l 536 1361 l 298 1252 l 60 1361 l 60 1476 l 298 1381 z "},"î":{"ha":595,"x_min":60,"x_max":536,"o":"m 198 93 l 198 1062 l 107 1157 l 488 1157 l 401 1062 l 401 93 l 488 0 l 107 0 l 198 93 m 60 1375 l 298 1484 l 536 1375 l 536 1260 l 298 1355 l 60 1260 l 60 1375 z "},"ï":{"ha":595,"x_min":-24,"x_max":625,"o":"m 198 93 l 198 1062 l 107 1157 l 488 1157 l 401 1062 l 401 93 l 488 0 l 107 0 l 198 93 z "},"ị":{"ha":595,"x_min":107,"x_max":488,"o":"m 198 93 l 198 1062 l 107 1157 l 488 1157 l 401 1062 l 401 93 l 488 0 l 107 0 l 198 93 z "},"ì":{"ha":595,"x_min":79,"x_max":488,"o":"m 198 93 l 198 1062 l 107 1157 l 488 1157 l 401 1062 l 401 93 l 488 0 l 107 0 l 198 93 m 79 1540 l 157 1617 l 458 1331 l 381 1252 l 79 1540 z "},"ỉ":{"ha":595,"x_min":107,"x_max":488,"o":"m 198 93 l 198 1062 l 107 1157 l 488 1157 l 401 1062 l 401 93 l 488 0 l 107 0 l 198 93 m 248 1242 q 266 1316 250 1292 q 312 1369 282 1341 q 338 1396 329 1383 q 347 1427 347 1409 q 345 1442 347 1437 q 288 1482 337 1482 q 248 1473 268 1482 q 220 1446 228 1464 l 171 1526 q 235 1584 196 1563 q 315 1605 274 1605 q 429 1552 383 1605 q 464 1454 464 1508 q 443 1372 464 1413 q 381 1302 423 1331 q 347 1272 357 1284 q 339 1242 337 1260 l 248 1242 z "},"ī":{"ha":595,"x_min":8,"x_max":587,"o":"m 198 93 l 198 1062 l 107 1157 l 488 1157 l 401 1062 l 401 93 l 488 0 l 107 0 l 198 93 m 8 1391 l 587 1391 l 587 1286 l 8 1286 l 8 1391 z "},"į":{"ha":595,"x_min":107,"x_max":488,"o":"m 298 1264 q 223 1295 254 1264 q 192 1369 192 1325 q 223 1443 192 1413 q 298 1474 254 1474 q 372 1443 341 1474 q 403 1369 403 1413 q 372 1295 403 1325 q 298 1264 341 1264 m 361 0 q 294 -58 317 -24 q 270 -125 270 -91 q 274 -151 270 -135 q 297 -180 280 -169 q 335 -190 313 -190 q 407 -165 373 -190 l 452 -222 q 387 -282 427 -262 q 306 -302 347 -302 q 199 -262 244 -302 q 155 -157 155 -222 q 246 0 155 -54 l 107 0 l 198 93 l 198 1062 l 107 1157 l 488 1157 l 401 1062 l 401 93 l 488 0 l 361 0 z "},"ĩ":{"ha":595,"x_min":-2,"x_max":597,"o":"m 198 93 l 198 1062 l 107 1157 l 488 1157 l 401 1062 l 401 93 l 488 0 l 107 0 l 198 93 m 6 1290 q 0 1290 2 1286 q 0 1300 -2 1294 q 163 1427 42 1427 q 312 1395 220 1427 q 482 1355 425 1355 q 589 1389 542 1355 q 595 1389 593 1393 q 595 1379 597 1385 q 431 1260 560 1260 q 272 1292 367 1260 q 181 1320 216 1312 q 115 1329 145 1329 q 6 1290 58 1329 z "},"j":{"ha":1022,"x_min":89,"x_max":925,"o":"m 454 -62 q 271 -18 351 -62 q 144 98 190 26 q 89 256 97 171 l 183 292 q 256 141 200 216 q 437 65 312 65 q 589 133 542 65 q 637 298 637 200 l 637 1063 l 546 1157 l 925 1157 l 837 1063 l 837 312 q 730 38 837 137 q 454 -62 623 -62 z "},"k":{"ha":1272,"x_min":103,"x_max":1183,"o":"m 192 93 l 192 1062 l 103 1157 l 482 1157 l 395 1062 l 395 702 l 738 1083 l 675 1157 l 1050 1157 q 976 1112 1020 1141 q 907 1063 933 1083 l 542 663 l 1040 93 q 1110 41 1060 73 q 1183 0 1161 8 l 716 0 l 768 93 l 411 520 l 395 500 l 395 93 l 482 0 l 103 0 l 192 93 z "},"ķ":{"ha":1272,"x_min":103,"x_max":1183,"o":"m 192 93 l 192 1062 l 103 1157 l 482 1157 l 395 1062 l 395 702 l 738 1083 l 675 1157 l 1050 1157 q 976 1112 1020 1141 q 907 1063 933 1083 l 542 663 l 1040 93 q 1110 41 1060 73 q 1183 0 1161 8 l 716 0 l 768 93 l 411 520 l 395 500 l 395 93 l 482 0 l 103 0 l 192 93 m 550 -373 q 541 -371 542 -375 q 544 -365 540 -367 q 567 -294 567 -323 q 524 -261 540 -284 q 508 -214 508 -238 q 534 -146 508 -175 q 599 -117 560 -117 q 660 -145 631 -117 q 688 -220 688 -173 q 649 -321 688 -280 q 550 -373 609 -363 z "},"l":{"ha":1030,"x_min":103,"x_max":954,"o":"m 192 93 l 192 1062 l 103 1157 l 482 1157 l 397 1062 l 397 169 q 571 125 448 135 q 639 123 593 123 q 805 156 732 123 q 925 278 877 188 l 954 264 l 871 0 l 103 0 l 192 93 z "},"ĺ":{"ha":1030,"x_min":103,"x_max":954,"o":"m 192 93 l 192 1062 l 103 1157 l 482 1157 l 397 1062 l 397 169 q 571 125 448 135 q 639 123 593 123 q 805 156 732 123 q 925 278 877 188 l 954 264 l 871 0 l 103 0 l 192 93 m 373 1331 l 675 1617 l 752 1540 l 450 1252 l 373 1331 z "},"ľ":{"ha":1030,"x_min":103,"x_max":954,"o":"m 192 93 l 192 1062 l 103 1157 l 482 1157 l 397 1062 l 397 169 q 571 125 448 135 q 639 123 593 123 q 805 156 732 123 q 925 278 877 188 l 954 264 l 871 0 l 103 0 l 192 93 m 687 911 q 678 913 679 909 q 681 919 677 917 q 704 990 704 960 q 661 1023 677 1000 q 645 1069 645 1046 q 671 1138 645 1109 q 736 1167 696 1167 q 797 1139 768 1167 q 825 1063 825 1111 q 786 962 825 1004 q 687 911 746 921 z "},"ļ":{"ha":1030,"x_min":103,"x_max":954,"o":"m 192 93 l 192 1062 l 103 1157 l 482 1157 l 397 1062 l 397 169 q 571 125 448 135 q 639 123 593 123 q 805 156 732 123 q 925 278 877 188 l 954 264 l 871 0 l 103 0 l 192 93 m 492 -373 q 483 -371 484 -375 q 486 -365 482 -367 q 510 -294 510 -323 q 466 -261 482 -284 q 450 -214 450 -238 q 476 -146 450 -175 q 542 -117 502 -117 q 602 -145 573 -117 q 631 -220 631 -173 q 591 -321 631 -280 q 492 -373 552 -363 z "},"ł":{"ha":1008,"x_min":101,"x_max":954,"o":"m 954 264 l 871 0 l 103 0 l 192 93 l 192 524 l 101 482 l 101 629 l 192 671 l 192 1062 l 103 1157 l 482 1157 l 397 1062 l 397 766 l 488 808 l 488 659 l 397 617 l 397 169 q 571 125 448 135 q 639 123 593 123 q 805 156 732 123 q 925 278 877 188 l 954 264 z "},"m":{"ha":1579,"x_min":99,"x_max":1474,"o":"m 359 768 l 327 79 l 415 0 l 99 0 l 190 93 l 236 1038 l 123 1157 l 389 1157 l 806 312 l 1192 1157 l 1437 1157 l 1341 1079 l 1383 93 l 1474 0 l 1093 0 l 1183 93 l 1161 750 l 774 -67 q 770 -69 772 -69 q 766 -67 768 -69 l 359 768 z "},"n":{"ha":1460,"x_min":93,"x_max":1363,"o":"m 373 885 l 373 93 l 460 0 l 133 0 l 222 93 l 222 1028 l 93 1157 l 385 1157 l 1135 351 l 1135 1063 l 1048 1157 l 1363 1157 l 1272 1063 l 1272 -63 q 1271 -71 1272 -69 q 1266 -69 1270 -73 l 373 885 z "},"ń":{"ha":1460,"x_min":93,"x_max":1363,"o":"m 373 885 l 373 93 l 460 0 l 133 0 l 222 93 l 222 1028 l 93 1157 l 385 1157 l 1135 351 l 1135 1063 l 1048 1157 l 1363 1157 l 1272 1063 l 1272 -63 q 1271 -71 1272 -69 q 1266 -69 1270 -73 l 373 885 m 550 1331 l 851 1617 l 929 1540 l 627 1252 l 550 1331 z "},"ň":{"ha":1460,"x_min":93,"x_max":1363,"o":"m 373 885 l 373 93 l 460 0 l 133 0 l 222 93 l 222 1028 l 93 1157 l 385 1157 l 1135 351 l 1135 1063 l 1048 1157 l 1363 1157 l 1272 1063 l 1272 -63 q 1271 -71 1272 -69 q 1266 -69 1270 -73 l 373 885 m 718 1381 l 956 1476 l 956 1361 l 718 1252 l 480 1361 l 480 1476 l 718 1381 z "},"ņ":{"ha":1460,"x_min":93,"x_max":1363,"o":"m 373 885 l 373 93 l 460 0 l 133 0 l 222 93 l 222 1028 l 93 1157 l 385 1157 l 1135 351 l 1135 1063 l 1048 1157 l 1363 1157 l 1272 1063 l 1272 -63 q 1271 -71 1272 -69 q 1266 -69 1270 -73 l 373 885 m 698 -373 q 689 -371 690 -375 q 692 -365 688 -367 q 716 -294 716 -323 q 673 -261 688 -284 q 657 -214 657 -238 q 683 -146 657 -175 q 748 -117 708 -117 q 809 -145 780 -117 q 837 -220 837 -173 q 798 -321 837 -280 q 698 -373 758 -363 z "},"ñ":{"ha":1460,"x_min":93,"x_max":1363,"o":"m 373 885 l 373 93 l 460 0 l 133 0 l 222 93 l 222 1028 l 93 1157 l 385 1157 l 1135 351 l 1135 1063 l 1048 1157 l 1363 1157 l 1272 1063 l 1272 -63 q 1271 -71 1272 -69 q 1266 -69 1270 -73 l 373 885 m 427 1290 q 421 1290 423 1286 q 421 1300 419 1294 q 583 1427 462 1427 q 732 1395 641 1427 q 903 1355 845 1355 q 1010 1389 962 1355 q 1016 1389 1014 1393 q 1016 1379 1018 1385 q 851 1260 980 1260 q 692 1292 788 1260 q 601 1320 637 1312 q 536 1329 565 1329 q 427 1290 478 1329 z "},"o":{"ha":1417,"x_min":83,"x_max":1333,"o":"m 708 -48 q 397 29 540 -48 q 169 244 254 105 q 83 562 83 383 q 168 903 83 758 q 395 1124 252 1048 q 708 1200 538 1200 q 1022 1125 879 1200 q 1249 905 1165 1050 q 1333 562 1333 760 q 1248 242 1333 381 q 1020 28 1163 103 q 708 -48 877 -48 m 708 75 q 922 142 827 75 q 1067 319 1016 208 q 1119 562 1119 431 q 1071 821 1119 704 q 932 1007 1024 938 q 708 1075 839 1075 q 481 1008 575 1075 q 339 823 387 940 q 292 562 292 706 q 344 319 292 431 q 491 142 397 208 q 708 75 585 75 z "},"ó":{"ha":1417,"x_min":83,"x_max":1333,"o":"m 708 -48 q 397 29 540 -48 q 169 244 254 105 q 83 562 83 383 q 168 903 83 758 q 395 1124 252 1048 q 708 1200 538 1200 q 1022 1125 879 1200 q 1249 905 1165 1050 q 1333 562 1333 760 q 1248 242 1333 381 q 1020 28 1163 103 q 708 -48 877 -48 m 708 75 q 922 142 827 75 q 1067 319 1016 208 q 1119 562 1119 431 q 1071 821 1119 704 q 932 1007 1024 938 q 708 1075 839 1075 q 481 1008 575 1075 q 339 823 387 940 q 292 562 292 706 q 344 319 292 431 q 491 142 397 208 q 708 75 585 75 m 540 1361 l 841 1647 l 919 1569 l 617 1282 l 540 1361 z "},"ǒ":{"ha":1417,"x_min":83,"x_max":1333,"o":"m 708 -48 q 397 29 540 -48 q 169 244 254 105 q 83 562 83 383 q 168 903 83 758 q 395 1124 252 1048 q 708 1200 538 1200 q 1022 1125 879 1200 q 1249 905 1165 1050 q 1333 562 1333 760 q 1248 242 1333 381 q 1020 28 1163 103 q 708 -48 877 -48 m 708 75 q 922 142 827 75 q 1067 319 1016 208 q 1119 562 1119 431 q 1071 821 1119 704 q 932 1007 1024 938 q 708 1075 839 1075 q 481 1008 575 1075 q 339 823 387 940 q 292 562 292 706 q 344 319 292 431 q 491 142 397 208 q 708 75 585 75 m 708 1411 l 946 1506 l 946 1391 l 708 1282 l 470 1391 l 470 1506 l 708 1411 z "},"ô":{"ha":1417,"x_min":83,"x_max":1333,"o":"m 708 -48 q 397 29 540 -48 q 169 244 254 105 q 83 562 83 383 q 168 903 83 758 q 395 1124 252 1048 q 708 1200 538 1200 q 1022 1125 879 1200 q 1249 905 1165 1050 q 1333 562 1333 760 q 1248 242 1333 381 q 1020 28 1163 103 q 708 -48 877 -48 m 708 75 q 922 142 827 75 q 1067 319 1016 208 q 1119 562 1119 431 q 1071 821 1119 704 q 932 1007 1024 938 q 708 1075 839 1075 q 481 1008 575 1075 q 339 823 387 940 q 292 562 292 706 q 344 319 292 431 q 491 142 397 208 q 708 75 585 75 m 470 1405 l 708 1514 l 946 1405 l 946 1290 l 708 1385 l 470 1290 l 470 1405 z "},"ố":{"ha":1417,"x_min":83,"x_max":1333,"o":"m 708 -48 q 397 29 540 -48 q 169 244 254 105 q 83 562 83 383 q 168 903 83 758 q 395 1124 252 1048 q 708 1200 538 1200 q 1022 1125 879 1200 q 1249 905 1165 1050 q 1333 562 1333 760 q 1248 242 1333 381 q 1020 28 1163 103 q 708 -48 877 -48 m 708 75 q 922 142 827 75 q 1067 319 1016 208 q 1119 562 1119 431 q 1071 821 1119 704 q 932 1007 1024 938 q 708 1075 839 1075 q 481 1008 575 1075 q 339 823 387 940 q 292 562 292 706 q 344 319 292 431 q 491 142 397 208 q 708 75 585 75 z "},"ộ":{"ha":1417,"x_min":83,"x_max":1333,"o":"m 708 -48 q 397 29 540 -48 q 169 244 254 105 q 83 562 83 383 q 168 903 83 758 q 395 1124 252 1048 q 708 1200 538 1200 q 1022 1125 879 1200 q 1249 905 1165 1050 q 1333 562 1333 760 q 1248 242 1333 381 q 1020 28 1163 103 q 708 -48 877 -48 m 708 75 q 922 142 827 75 q 1067 319 1016 208 q 1119 562 1119 431 q 1071 821 1119 704 q 932 1007 1024 938 q 708 1075 839 1075 q 481 1008 575 1075 q 339 823 387 940 q 292 562 292 706 q 344 319 292 431 q 491 142 397 208 q 708 75 585 75 m 470 1405 l 708 1514 l 946 1405 l 946 1290 l 708 1385 l 470 1290 l 470 1405 z "},"ồ":{"ha":1417,"x_min":83,"x_max":1333,"o":"m 708 -48 q 397 29 540 -48 q 169 244 254 105 q 83 562 83 383 q 168 903 83 758 q 395 1124 252 1048 q 708 1200 538 1200 q 1022 1125 879 1200 q 1249 905 1165 1050 q 1333 562 1333 760 q 1248 242 1333 381 q 1020 28 1163 103 q 708 -48 877 -48 m 708 75 q 922 142 827 75 q 1067 319 1016 208 q 1119 562 1119 431 q 1071 821 1119 704 q 932 1007 1024 938 q 708 1075 839 1075 q 481 1008 575 1075 q 339 823 387 940 q 292 562 292 706 q 344 319 292 431 q 491 142 397 208 q 708 75 585 75 z "},"ổ":{"ha":1417,"x_min":83,"x_max":1333,"o":"m 708 -48 q 397 29 540 -48 q 169 244 254 105 q 83 562 83 383 q 168 903 83 758 q 395 1124 252 1048 q 708 1200 538 1200 q 1022 1125 879 1200 q 1249 905 1165 1050 q 1333 562 1333 760 q 1248 242 1333 381 q 1020 28 1163 103 q 708 -48 877 -48 m 708 75 q 922 142 827 75 q 1067 319 1016 208 q 1119 562 1119 431 q 1071 821 1119 704 q 932 1007 1024 938 q 708 1075 839 1075 q 481 1008 575 1075 q 339 823 387 940 q 292 562 292 706 q 344 319 292 431 q 491 142 397 208 q 708 75 585 75 z "},"ỗ":{"ha":1417,"x_min":83,"x_max":1333,"o":"m 708 -48 q 397 29 540 -48 q 169 244 254 105 q 83 562 83 383 q 168 903 83 758 q 395 1124 252 1048 q 708 1200 538 1200 q 1022 1125 879 1200 q 1249 905 1165 1050 q 1333 562 1333 760 q 1248 242 1333 381 q 1020 28 1163 103 q 708 -48 877 -48 m 708 75 q 922 142 827 75 q 1067 319 1016 208 q 1119 562 1119 431 q 1071 821 1119 704 q 932 1007 1024 938 q 708 1075 839 1075 q 481 1008 575 1075 q 339 823 387 940 q 292 562 292 706 q 344 319 292 431 q 491 142 397 208 q 708 75 585 75 z "},"ö":{"ha":1417,"x_min":83,"x_max":1333,"o":"m 708 -48 q 397 29 540 -48 q 169 244 254 105 q 83 562 83 383 q 168 903 83 758 q 395 1124 252 1048 q 708 1200 538 1200 q 1022 1125 879 1200 q 1249 905 1165 1050 q 1333 562 1333 760 q 1248 242 1333 381 q 1020 28 1163 103 q 708 -48 877 -48 m 708 75 q 922 142 827 75 q 1067 319 1016 208 q 1119 562 1119 431 q 1071 821 1119 704 q 932 1007 1024 938 q 708 1075 839 1075 q 481 1008 575 1075 q 339 823 387 940 q 292 562 292 706 q 344 319 292 431 q 491 142 397 208 q 708 75 585 75 z "},"ọ":{"ha":1417,"x_min":83,"x_max":1333,"o":"m 708 -48 q 397 29 540 -48 q 169 244 254 105 q 83 562 83 383 q 168 903 83 758 q 395 1124 252 1048 q 708 1200 538 1200 q 1022 1125 879 1200 q 1249 905 1165 1050 q 1333 562 1333 760 q 1248 242 1333 381 q 1020 28 1163 103 q 708 -48 877 -48 m 708 75 q 922 142 827 75 q 1067 319 1016 208 q 1119 562 1119 431 q 1071 821 1119 704 q 932 1007 1024 938 q 708 1075 839 1075 q 481 1008 575 1075 q 339 823 387 940 q 292 562 292 706 q 344 319 292 431 q 491 142 397 208 q 708 75 585 75 z "},"ò":{"ha":1417,"x_min":83,"x_max":1333,"o":"m 708 -48 q 397 29 540 -48 q 169 244 254 105 q 83 562 83 383 q 168 903 83 758 q 395 1124 252 1048 q 708 1200 538 1200 q 1022 1125 879 1200 q 1249 905 1165 1050 q 1333 562 1333 760 q 1248 242 1333 381 q 1020 28 1163 103 q 708 -48 877 -48 m 708 75 q 922 142 827 75 q 1067 319 1016 208 q 1119 562 1119 431 q 1071 821 1119 704 q 932 1007 1024 938 q 708 1075 839 1075 q 481 1008 575 1075 q 339 823 387 940 q 292 562 292 706 q 344 319 292 431 q 491 142 397 208 q 708 75 585 75 m 490 1569 l 567 1647 l 869 1361 l 792 1282 l 490 1569 z "},"ỏ":{"ha":1417,"x_min":83,"x_max":1333,"o":"m 708 -48 q 397 29 540 -48 q 169 244 254 105 q 83 562 83 383 q 168 903 83 758 q 395 1124 252 1048 q 708 1200 538 1200 q 1022 1125 879 1200 q 1249 905 1165 1050 q 1333 562 1333 760 q 1248 242 1333 381 q 1020 28 1163 103 q 708 -48 877 -48 m 708 75 q 922 142 827 75 q 1067 319 1016 208 q 1119 562 1119 431 q 1071 821 1119 704 q 932 1007 1024 938 q 708 1075 839 1075 q 481 1008 575 1075 q 339 823 387 940 q 292 562 292 706 q 344 319 292 431 q 491 142 397 208 q 708 75 585 75 m 659 1272 q 677 1346 661 1321 q 722 1399 692 1371 q 749 1426 740 1413 q 758 1456 758 1438 q 756 1472 758 1466 q 698 1512 748 1512 q 659 1503 679 1512 q 631 1476 639 1494 l 581 1556 q 646 1614 607 1593 q 726 1635 685 1635 q 839 1581 794 1635 q 875 1484 875 1538 q 854 1402 875 1442 q 792 1331 833 1361 q 758 1302 768 1313 q 750 1272 748 1290 l 659 1272 z "},"ơ":{"ha":1417,"x_min":83,"x_max":1333,"o":"m 1163 1018 q 1333 562 1333 841 q 1248 242 1333 381 q 1020 28 1163 103 q 708 -48 877 -48 q 397 29 540 -48 q 169 244 254 105 q 83 562 83 383 q 168 903 83 758 q 395 1124 252 1048 q 708 1200 538 1200 q 921 1168 819 1200 q 1103 1071 1022 1135 q 1129 1093 1113 1077 q 1115 1141 1115 1115 q 1133 1192 1115 1173 q 1208 1230 1165 1230 q 1264 1210 1242 1230 q 1287 1182 1278 1200 q 1296 1141 1296 1163 q 1278 1083 1296 1113 q 1163 1018 1238 1022 m 708 75 q 922 142 827 75 q 1067 319 1016 208 q 1119 562 1119 431 q 1071 821 1119 704 q 932 1007 1024 938 q 708 1075 839 1075 q 481 1008 575 1075 q 339 823 387 940 q 292 562 292 706 q 344 319 292 431 q 491 142 397 208 q 708 75 585 75 z "},"ớ":{"ha":1417,"x_min":83,"x_max":1333,"o":"m 1163 1018 q 1333 562 1333 841 q 1248 242 1333 381 q 1020 28 1163 103 q 708 -48 877 -48 q 397 29 540 -48 q 169 244 254 105 q 83 562 83 383 q 168 903 83 758 q 395 1124 252 1048 q 708 1200 538 1200 q 921 1168 819 1200 q 1103 1071 1022 1135 q 1129 1093 1113 1077 q 1115 1141 1115 1115 q 1133 1192 1115 1173 q 1208 1230 1165 1230 q 1264 1210 1242 1230 q 1287 1182 1278 1200 q 1296 1141 1296 1163 q 1278 1083 1296 1113 q 1163 1018 1238 1022 m 708 75 q 922 142 827 75 q 1067 319 1016 208 q 1119 562 1119 431 q 1071 821 1119 704 q 932 1007 1024 938 q 708 1075 839 1075 q 481 1008 575 1075 q 339 823 387 940 q 292 562 292 706 q 344 319 292 431 q 491 142 397 208 q 708 75 585 75 m 540 1361 l 841 1647 l 919 1569 l 617 1282 l 540 1361 z "},"ợ":{"ha":1417,"x_min":83,"x_max":1333,"o":"m 1163 1018 q 1333 562 1333 841 q 1248 242 1333 381 q 1020 28 1163 103 q 708 -48 877 -48 q 397 29 540 -48 q 169 244 254 105 q 83 562 83 383 q 168 903 83 758 q 395 1124 252 1048 q 708 1200 538 1200 q 921 1168 819 1200 q 1103 1071 1022 1135 q 1129 1093 1113 1077 q 1115 1141 1115 1115 q 1133 1192 1115 1173 q 1208 1230 1165 1230 q 1264 1210 1242 1230 q 1287 1182 1278 1200 q 1296 1141 1296 1163 q 1278 1083 1296 1113 q 1163 1018 1238 1022 m 708 75 q 922 142 827 75 q 1067 319 1016 208 q 1119 562 1119 431 q 1071 821 1119 704 q 932 1007 1024 938 q 708 1075 839 1075 q 481 1008 575 1075 q 339 823 387 940 q 292 562 292 706 q 344 319 292 431 q 491 142 397 208 q 708 75 585 75 z "},"ờ":{"ha":1417,"x_min":83,"x_max":1333,"o":"m 1163 1018 q 1333 562 1333 841 q 1248 242 1333 381 q 1020 28 1163 103 q 708 -48 877 -48 q 397 29 540 -48 q 169 244 254 105 q 83 562 83 383 q 168 903 83 758 q 395 1124 252 1048 q 708 1200 538 1200 q 921 1168 819 1200 q 1103 1071 1022 1135 q 1129 1093 1113 1077 q 1115 1141 1115 1115 q 1133 1192 1115 1173 q 1208 1230 1165 1230 q 1264 1210 1242 1230 q 1287 1182 1278 1200 q 1296 1141 1296 1163 q 1278 1083 1296 1113 q 1163 1018 1238 1022 m 708 75 q 922 142 827 75 q 1067 319 1016 208 q 1119 562 1119 431 q 1071 821 1119 704 q 932 1007 1024 938 q 708 1075 839 1075 q 481 1008 575 1075 q 339 823 387 940 q 292 562 292 706 q 344 319 292 431 q 491 142 397 208 q 708 75 585 75 m 490 1569 l 567 1647 l 869 1361 l 792 1282 l 490 1569 z "},"ở":{"ha":1417,"x_min":83,"x_max":1333,"o":"m 1163 1018 q 1333 562 1333 841 q 1248 242 1333 381 q 1020 28 1163 103 q 708 -48 877 -48 q 397 29 540 -48 q 169 244 254 105 q 83 562 83 383 q 168 903 83 758 q 395 1124 252 1048 q 708 1200 538 1200 q 921 1168 819 1200 q 1103 1071 1022 1135 q 1129 1093 1113 1077 q 1115 1141 1115 1115 q 1133 1192 1115 1173 q 1208 1230 1165 1230 q 1264 1210 1242 1230 q 1287 1182 1278 1200 q 1296 1141 1296 1163 q 1278 1083 1296 1113 q 1163 1018 1238 1022 m 708 75 q 922 142 827 75 q 1067 319 1016 208 q 1119 562 1119 431 q 1071 821 1119 704 q 932 1007 1024 938 q 708 1075 839 1075 q 481 1008 575 1075 q 339 823 387 940 q 292 562 292 706 q 344 319 292 431 q 491 142 397 208 q 708 75 585 75 m 659 1272 q 677 1346 661 1321 q 722 1399 692 1371 q 749 1426 740 1413 q 758 1456 758 1438 q 756 1472 758 1466 q 698 1512 748 1512 q 659 1503 679 1512 q 631 1476 639 1494 l 581 1556 q 646 1614 607 1593 q 726 1635 685 1635 q 839 1581 794 1635 q 875 1484 875 1538 q 854 1402 875 1442 q 792 1331 833 1361 q 758 1302 768 1313 q 750 1272 748 1290 l 659 1272 z "},"ỡ":{"ha":1417,"x_min":83,"x_max":1333,"o":"m 446 1319 q 440 1319 442 1315 q 440 1329 438 1323 q 587 1456 478 1456 q 720 1425 639 1456 q 873 1385 819 1385 q 970 1419 925 1385 q 976 1419 974 1423 q 976 1409 978 1415 q 827 1290 944 1290 q 685 1321 772 1290 q 602 1350 633 1341 q 544 1359 571 1359 q 446 1319 492 1359 m 1163 1018 q 1333 562 1333 841 q 1248 242 1333 381 q 1020 28 1163 103 q 708 -48 877 -48 q 397 29 540 -48 q 169 244 254 105 q 83 562 83 383 q 168 903 83 758 q 395 1124 252 1048 q 708 1200 538 1200 q 921 1168 819 1200 q 1103 1071 1022 1135 q 1129 1093 1113 1077 q 1115 1141 1115 1115 q 1133 1192 1115 1173 q 1208 1230 1165 1230 q 1264 1210 1242 1230 q 1287 1182 1278 1200 q 1296 1141 1296 1163 q 1278 1083 1296 1113 q 1163 1018 1238 1022 m 708 75 q 922 142 827 75 q 1067 319 1016 208 q 1119 562 1119 431 q 1071 821 1119 704 q 932 1007 1024 938 q 708 1075 839 1075 q 481 1008 575 1075 q 339 823 387 940 q 292 562 292 706 q 344 319 292 431 q 491 142 397 208 q 708 75 585 75 z "},"ő":{"ha":1417,"x_min":83,"x_max":1333,"o":"m 708 -48 q 397 29 540 -48 q 169 244 254 105 q 83 562 83 383 q 168 903 83 758 q 395 1124 252 1048 q 708 1200 538 1200 q 1022 1125 879 1200 q 1249 905 1165 1050 q 1333 562 1333 760 q 1248 242 1333 381 q 1020 28 1163 103 q 708 -48 877 -48 m 708 75 q 922 142 827 75 q 1067 319 1016 208 q 1119 562 1119 431 q 1071 821 1119 704 q 932 1007 1024 938 q 708 1075 839 1075 q 481 1008 575 1075 q 339 823 387 940 q 292 562 292 706 q 344 319 292 431 q 491 142 397 208 q 708 75 585 75 z "},"ō":{"ha":1417,"x_min":83,"x_max":1333,"o":"m 708 -48 q 397 29 540 -48 q 169 244 254 105 q 83 562 83 383 q 168 903 83 758 q 395 1124 252 1048 q 708 1200 538 1200 q 1022 1125 879 1200 q 1249 905 1165 1050 q 1333 562 1333 760 q 1248 242 1333 381 q 1020 28 1163 103 q 708 -48 877 -48 m 708 75 q 922 142 827 75 q 1067 319 1016 208 q 1119 562 1119 431 q 1071 821 1119 704 q 932 1007 1024 938 q 708 1075 839 1075 q 481 1008 575 1075 q 339 823 387 940 q 292 562 292 706 q 344 319 292 431 q 491 142 397 208 q 708 75 585 75 m 419 1421 l 998 1421 l 998 1315 l 419 1315 l 419 1421 z "},"ø":{"ha":1417,"x_min":83,"x_max":1333,"o":"m 952 1157 q 1229 936 1125 1089 q 1333 562 1333 782 q 1248 242 1333 381 q 1020 28 1163 103 q 708 -48 877 -48 q 573 -34 635 -48 l 558 -87 l 444 -87 l 470 -4 q 189 210 296 62 q 83 562 83 359 q 168 903 83 758 q 395 1124 252 1048 q 708 1200 538 1200 q 847 1187 786 1200 l 861 1228 l 974 1228 l 952 1157 m 292 562 q 350 307 292 423 q 512 129 409 190 l 810 1063 q 708 1075 762 1075 q 481 1008 575 1075 q 339 823 387 940 q 292 562 292 706 m 708 75 q 922 142 827 75 q 1067 319 1016 208 q 1119 562 1119 431 q 1064 838 1119 716 q 909 1022 1010 960 l 613 87 q 708 75 659 75 z "},"õ":{"ha":1417,"x_min":83,"x_max":1333,"o":"m 708 -48 q 397 29 540 -48 q 169 244 254 105 q 83 562 83 383 q 168 903 83 758 q 395 1124 252 1048 q 708 1200 538 1200 q 1022 1125 879 1200 q 1249 905 1165 1050 q 1333 562 1333 760 q 1248 242 1333 381 q 1020 28 1163 103 q 708 -48 877 -48 m 708 75 q 922 142 827 75 q 1067 319 1016 208 q 1119 562 1119 431 q 1071 821 1119 704 q 932 1007 1024 938 q 708 1075 839 1075 q 481 1008 575 1075 q 339 823 387 940 q 292 562 292 706 q 344 319 292 431 q 491 142 397 208 q 708 75 585 75 m 417 1319 q 411 1319 413 1315 q 411 1329 409 1323 q 573 1456 452 1456 q 722 1425 631 1456 q 893 1385 835 1385 q 1000 1419 952 1385 q 1006 1419 1004 1423 q 1006 1409 1008 1415 q 841 1290 970 1290 q 683 1321 778 1290 q 591 1350 627 1341 q 526 1359 556 1359 q 417 1319 468 1359 z "},"œ":{"ha":2048,"x_min":83,"x_max":1954,"o":"m 1919 276 q 1954 260 1937 270 l 1879 0 l 1117 0 l 1208 95 l 1208 185 q 991 14 1123 75 q 708 -48 859 -48 q 397 29 540 -48 q 169 244 254 105 q 83 562 83 383 q 168 903 83 758 q 395 1124 252 1048 q 708 1200 538 1200 q 992 1140 861 1200 q 1208 964 1123 1079 l 1208 1062 l 1117 1157 l 1853 1157 l 1913 937 l 1768 1022 l 1401 1022 l 1401 683 l 1623 683 q 1730 772 1643 683 l 1730 466 q 1623 550 1643 550 l 1401 550 l 1401 169 q 1563 123 1458 135 q 1623 121 1581 121 q 1919 276 1839 121 m 708 75 q 922 142 827 75 q 1067 319 1016 208 q 1119 562 1119 431 q 1071 821 1119 704 q 932 1007 1024 938 q 708 1075 839 1075 q 481 1008 575 1075 q 339 823 387 940 q 292 562 292 706 q 344 319 292 431 q 491 142 397 208 q 708 75 585 75 z "},"p":{"ha":974,"x_min":103,"x_max":895,"o":"m 204 93 l 204 1052 l 103 1157 l 581 1157 q 808 1074 720 1157 q 895 841 895 992 q 794 605 895 687 q 526 524 692 524 l 407 524 l 407 93 l 494 0 l 113 0 l 204 93 m 407 677 q 506 651 450 651 q 636 699 581 651 q 690 837 690 748 q 688 871 690 859 q 648 972 681 938 q 568 1015 615 1006 q 446 1024 522 1024 l 407 1024 l 407 677 z "},"q":{"ha":1421,"x_min":83,"x_max":1333,"o":"m 706 -48 q 395 27 538 -48 q 168 239 252 101 q 83 556 83 377 q 168 899 83 752 q 394 1123 252 1046 q 706 1200 536 1200 q 1019 1123 875 1200 q 1248 900 1163 1046 q 1333 556 1333 754 q 1278 296 1333 413 q 1123 95 1222 179 q 1250 46 1171 46 q 1312 54 1280 46 q 1255 -23 1302 2 q 1145 -48 1208 -48 q 1052 -34 1097 -48 q 972 4 1006 -20 q 706 -48 845 -48 m 702 75 q 919 140 823 75 q 1065 314 1014 204 q 1117 556 1117 425 q 1069 816 1117 698 q 928 1005 1022 935 q 702 1075 833 1075 q 478 1007 571 1075 q 338 820 385 938 q 292 556 292 702 q 343 314 292 425 q 488 140 395 204 q 702 75 581 75 z "},"r":{"ha":1266,"x_min":103,"x_max":1187,"o":"m 768 0 q 829 83 817 56 l 504 526 l 405 526 l 405 93 q 492 2 429 56 l 113 2 q 202 93 183 63 l 202 1052 q 103 1157 183 1079 l 579 1157 q 806 1075 716 1157 q 895 849 895 994 q 847 675 895 746 q 714 565 800 603 l 1058 93 q 1187 0 1081 65 l 768 0 m 405 669 q 478 657 440 657 q 589 684 538 657 q 669 760 641 710 q 690 875 696 810 q 656 973 685 940 q 583 1015 627 1006 q 466 1024 540 1024 l 405 1024 l 405 669 z "},"ŕ":{"ha":1266,"x_min":103,"x_max":1187,"o":"m 768 0 q 829 83 817 56 l 504 526 l 405 526 l 405 93 q 492 2 429 56 l 113 2 q 202 93 183 63 l 202 1052 q 103 1157 183 1079 l 579 1157 q 806 1075 716 1157 q 895 849 895 994 q 847 675 895 746 q 714 565 800 603 l 1058 93 q 1187 0 1081 65 l 768 0 m 405 669 q 478 657 440 657 q 589 684 538 657 q 669 760 641 710 q 690 875 696 810 q 656 973 685 940 q 583 1015 627 1006 q 466 1024 540 1024 l 405 1024 l 405 669 m 411 1331 l 712 1617 l 790 1540 l 488 1252 l 411 1331 z "},"ř":{"ha":1266,"x_min":103,"x_max":1187,"o":"m 768 0 q 829 83 817 56 l 504 526 l 405 526 l 405 93 q 492 2 429 56 l 113 2 q 202 93 183 63 l 202 1052 q 103 1157 183 1079 l 579 1157 q 806 1075 716 1157 q 895 849 895 994 q 847 675 895 746 q 714 565 800 603 l 1058 93 q 1187 0 1081 65 l 768 0 m 405 669 q 478 657 440 657 q 589 684 538 657 q 669 760 641 710 q 690 875 696 810 q 656 973 685 940 q 583 1015 627 1006 q 466 1024 540 1024 l 405 1024 l 405 669 m 579 1381 l 817 1476 l 817 1361 l 579 1252 l 341 1361 l 341 1476 l 579 1381 z "},"ŗ":{"ha":1266,"x_min":103,"x_max":1187,"o":"m 768 0 q 829 83 817 56 l 504 526 l 405 526 l 405 93 q 492 2 429 56 l 113 2 q 202 93 183 63 l 202 1052 q 103 1157 183 1079 l 579 1157 q 806 1075 716 1157 q 895 849 895 994 q 847 675 895 746 q 714 565 800 603 l 1058 93 q 1187 0 1081 65 l 768 0 m 405 669 q 478 657 440 657 q 589 684 538 657 q 669 760 641 710 q 690 875 696 810 q 656 973 685 940 q 583 1015 627 1006 q 466 1024 540 1024 l 405 1024 l 405 669 m 540 -373 q 531 -371 532 -375 q 534 -365 530 -367 q 558 -294 558 -323 q 514 -261 530 -284 q 498 -214 498 -238 q 524 -146 498 -175 q 589 -117 550 -117 q 650 -145 621 -117 q 679 -220 679 -173 q 639 -321 679 -280 q 540 -373 599 -363 z "},"s":{"ha":891,"x_min":103,"x_max":788,"o":"m 103 282 q 173 184 107 276 q 355 77 238 91 q 385 75 365 75 q 529 126 468 75 q 589 286 589 177 q 568 382 589 339 q 512 460 548 425 q 381 587 476 496 q 208 778 264 694 q 153 942 153 861 q 183 1063 153 1002 q 291 1173 216 1137 q 450 1208 365 1208 q 616 1186 560 1208 q 679 1161 673 1163 q 758 1202 700 1167 l 688 913 l 627 1044 q 498 1085 567 1085 q 403 1052 437 1085 q 369 966 369 1018 q 390 885 369 927 q 452 806 411 843 q 628 637 567 700 q 738 485 688 573 q 788 300 788 397 q 782 234 788 268 q 716 91 768 157 q 585 -13 665 26 q 415 -52 506 -52 q 306 -37 355 -52 q 202 10 256 -22 q 119 -58 198 8 l 103 282 z "},"ś":{"ha":891,"x_min":103,"x_max":788,"o":"m 103 282 q 173 184 107 276 q 355 77 238 91 q 385 75 365 75 q 529 126 468 75 q 589 286 589 177 q 568 382 589 339 q 512 460 548 425 q 381 587 476 496 q 208 778 264 694 q 153 942 153 861 q 183 1063 153 1002 q 291 1173 216 1137 q 450 1208 365 1208 q 616 1186 560 1208 q 679 1161 673 1163 q 758 1202 700 1167 l 688 913 l 627 1044 q 498 1085 567 1085 q 403 1052 437 1085 q 369 966 369 1018 q 390 885 369 927 q 452 806 411 843 q 628 637 567 700 q 738 485 688 573 q 788 300 788 397 q 782 234 788 268 q 716 91 768 157 q 585 -13 665 26 q 415 -52 506 -52 q 306 -37 355 -52 q 202 10 256 -22 q 119 -58 198 8 l 103 282 m 284 1371 l 585 1657 l 663 1579 l 361 1292 l 284 1371 z "},"š":{"ha":891,"x_min":103,"x_max":788,"o":"m 103 282 q 173 184 107 276 q 355 77 238 91 q 385 75 365 75 q 529 126 468 75 q 589 286 589 177 q 568 382 589 339 q 512 460 548 425 q 381 587 476 496 q 208 778 264 694 q 153 942 153 861 q 183 1063 153 1002 q 291 1173 216 1137 q 450 1208 365 1208 q 616 1186 560 1208 q 679 1161 673 1163 q 758 1202 700 1167 l 688 913 l 627 1044 q 498 1085 567 1085 q 403 1052 437 1085 q 369 966 369 1018 q 390 885 369 927 q 452 806 411 843 q 628 637 567 700 q 738 485 688 573 q 788 300 788 397 q 782 234 788 268 q 716 91 768 157 q 585 -13 665 26 q 415 -52 506 -52 q 306 -37 355 -52 q 202 10 256 -22 q 119 -58 198 8 l 103 282 m 452 1421 l 690 1516 l 690 1401 l 452 1292 l 214 1401 l 214 1516 l 452 1421 z "},"ş":{"ha":891,"x_min":103,"x_max":788,"o":"m 452 806 q 628 637 567 700 q 738 485 688 573 q 788 300 788 397 q 782 234 788 268 q 684 55 764 133 q 490 -46 603 -24 l 472 -83 q 542 -134 510 -97 q 573 -228 573 -171 q 525 -338 573 -296 q 413 -381 476 -381 q 335 -363 371 -381 q 276 -308 300 -345 l 319 -256 q 399 -280 365 -280 q 458 -222 458 -280 q 428 -162 458 -183 q 339 -141 397 -141 l 379 -50 q 202 10 294 -42 q 119 -58 198 8 l 103 282 q 173 184 107 276 q 355 77 238 91 q 385 75 365 75 q 529 126 468 75 q 589 286 589 177 q 568 382 589 339 q 512 460 548 425 q 381 587 476 496 q 208 778 264 694 q 153 942 153 861 q 183 1063 153 1002 q 291 1173 216 1137 q 450 1208 365 1208 q 616 1186 560 1208 q 679 1161 673 1163 q 758 1202 700 1167 l 688 913 l 627 1044 q 498 1085 567 1085 q 403 1052 437 1085 q 369 966 369 1018 q 390 885 369 927 q 452 806 411 843 z "},"ș":{"ha":891,"x_min":103,"x_max":788,"o":"m 103 282 q 173 184 107 276 q 355 77 238 91 q 385 75 365 75 q 529 126 468 75 q 589 286 589 177 q 568 382 589 339 q 512 460 548 425 q 381 587 476 496 q 208 778 264 694 q 153 942 153 861 q 183 1063 153 1002 q 291 1173 216 1137 q 450 1208 365 1208 q 616 1186 560 1208 q 679 1161 673 1163 q 758 1202 700 1167 l 688 913 l 627 1044 q 498 1085 567 1085 q 403 1052 437 1085 q 369 966 369 1018 q 390 885 369 927 q 452 806 411 843 q 628 637 567 700 q 738 485 688 573 q 788 300 788 397 q 782 234 788 268 q 716 91 768 157 q 585 -13 665 26 q 415 -52 506 -52 q 306 -37 355 -52 q 202 10 256 -22 q 119 -58 198 8 l 103 282 m 397 -411 q 388 -409 389 -413 q 391 -403 387 -405 q 415 -331 415 -361 q 371 -299 387 -321 q 355 -252 355 -276 q 381 -184 355 -212 q 446 -155 407 -155 q 507 -183 478 -155 q 536 -258 536 -210 q 496 -359 536 -317 q 397 -411 456 -401 z "},"ß":{"ha":1810,"x_min":103,"x_max":1706,"o":"m 103 282 q 173 184 107 276 q 355 77 238 91 q 385 75 365 75 q 529 126 468 75 q 589 286 589 177 q 568 382 589 339 q 512 460 548 425 q 381 587 476 496 q 208 778 264 694 q 153 942 153 861 q 183 1063 153 1002 q 291 1173 216 1137 q 450 1208 365 1208 q 616 1186 560 1208 q 679 1161 673 1163 q 758 1202 700 1167 l 688 913 l 627 1044 q 498 1085 567 1085 q 403 1052 437 1085 q 369 966 369 1018 q 390 885 369 927 q 452 806 411 843 q 628 637 567 700 q 738 485 688 573 q 788 300 788 397 q 782 234 788 268 q 716 91 768 157 q 585 -13 665 26 q 415 -52 506 -52 q 306 -37 355 -52 q 202 10 256 -22 q 119 -58 198 8 l 103 282 m 1022 282 q 1091 184 1026 276 q 1274 77 1157 91 q 1304 75 1284 75 q 1447 126 1387 75 q 1508 286 1508 177 q 1487 382 1508 339 q 1431 460 1466 425 q 1300 587 1395 496 q 1127 778 1183 694 q 1071 942 1071 861 q 1101 1063 1071 1002 q 1209 1173 1135 1137 q 1369 1208 1284 1208 q 1535 1186 1478 1208 q 1597 1161 1591 1163 q 1677 1202 1619 1167 l 1607 913 l 1546 1044 q 1417 1085 1486 1085 q 1321 1052 1355 1085 q 1288 966 1288 1018 q 1309 885 1288 927 q 1371 806 1329 843 q 1547 637 1486 700 q 1657 485 1607 573 q 1706 300 1706 397 q 1700 234 1706 268 q 1635 91 1687 157 q 1504 -13 1583 26 q 1333 -52 1425 -52 q 1224 -37 1274 -52 q 1121 10 1175 -22 q 1038 -58 1117 8 l 1022 282 z "},"t":{"ha":1198,"x_min":89,"x_max":1109,"o":"m 498 93 l 498 1026 l 206 1026 l 89 931 l 119 1157 l 1079 1159 l 1109 931 l 992 1026 l 700 1026 l 700 93 l 788 0 l 407 0 l 498 93 z "},"ŧ":{"ha":1198,"x_min":89,"x_max":1109,"o":"m 700 1026 l 700 681 l 855 681 l 855 526 l 700 526 l 700 93 l 788 0 l 407 0 l 498 93 l 498 526 l 347 526 l 347 681 l 498 681 l 498 1026 l 206 1026 l 89 931 l 119 1157 l 1079 1159 l 1109 931 l 992 1026 l 700 1026 z "},"ť":{"ha":1456,"x_min":89,"x_max":1425,"o":"m 498 93 l 498 1026 l 206 1026 l 89 931 l 119 1157 l 1079 1159 l 1109 931 l 992 1026 l 700 1026 l 700 93 l 788 0 l 407 0 l 498 93 m 1286 919 q 1277 921 1278 917 q 1280 927 1276 925 q 1304 998 1304 968 q 1260 1031 1276 1008 q 1244 1077 1244 1054 q 1270 1146 1244 1117 q 1335 1175 1296 1175 q 1396 1147 1367 1175 q 1425 1071 1425 1119 q 1385 970 1425 1012 q 1286 919 1345 929 z "},"ţ":{"ha":1198,"x_min":89,"x_max":1109,"o":"m 700 1026 l 700 93 l 788 0 l 647 0 l 625 -46 q 694 -96 663 -60 q 726 -190 726 -133 q 678 -301 726 -258 q 565 -343 629 -343 q 488 -325 524 -343 q 429 -270 452 -308 l 472 -218 q 552 -242 518 -242 q 611 -185 611 -242 q 580 -124 611 -145 q 492 -103 550 -103 l 538 0 l 407 0 l 498 93 l 498 1026 l 206 1026 l 89 931 l 119 1157 l 1079 1159 l 1109 931 l 992 1026 l 700 1026 z "},"ț":{"ha":1198,"x_min":89,"x_max":1109,"o":"m 498 93 l 498 1026 l 206 1026 l 89 931 l 119 1157 l 1079 1159 l 1109 931 l 992 1026 l 700 1026 l 700 93 l 788 0 l 407 0 l 498 93 m 550 -373 q 541 -371 542 -375 q 544 -365 540 -367 q 567 -294 567 -323 q 524 -261 540 -284 q 508 -214 508 -238 q 534 -146 508 -175 q 599 -117 560 -117 q 660 -145 631 -117 q 688 -220 688 -173 q 649 -321 688 -280 q 550 -373 609 -363 z "},"u":{"ha":1220,"x_min":95,"x_max":1123,"o":"m 615 -50 q 394 6 492 -50 q 240 161 296 62 q 185 383 185 260 l 185 1067 l 95 1157 l 464 1157 l 375 1063 l 375 413 q 444 175 375 260 q 649 89 514 89 q 761 117 702 89 q 862 209 819 145 q 905 379 905 274 l 905 1063 l 812 1157 l 1123 1157 l 1036 1063 l 1036 371 q 927 68 1036 187 q 615 -50 817 -50 z "},"ú":{"ha":1220,"x_min":95,"x_max":1123,"o":"m 615 -50 q 394 6 492 -50 q 240 161 296 62 q 185 383 185 260 l 185 1067 l 95 1157 l 464 1157 l 375 1063 l 375 413 q 444 175 375 260 q 649 89 514 89 q 761 117 702 89 q 862 209 819 145 q 905 379 905 274 l 905 1063 l 812 1157 l 1123 1157 l 1036 1063 l 1036 371 q 927 68 1036 187 q 615 -50 817 -50 m 470 1331 l 772 1617 l 849 1540 l 548 1252 l 470 1331 z "},"ǔ":{"ha":1220,"x_min":95,"x_max":1123,"o":"m 615 -50 q 394 6 492 -50 q 240 161 296 62 q 185 383 185 260 l 185 1067 l 95 1157 l 464 1157 l 375 1063 l 375 413 q 444 175 375 260 q 649 89 514 89 q 761 117 702 89 q 862 209 819 145 q 905 379 905 274 l 905 1063 l 812 1157 l 1123 1157 l 1036 1063 l 1036 371 q 927 68 1036 187 q 615 -50 817 -50 m 639 1381 l 877 1476 l 877 1361 l 639 1252 l 401 1361 l 401 1476 l 639 1381 z "},"û":{"ha":1220,"x_min":95,"x_max":1123,"o":"m 615 -50 q 394 6 492 -50 q 240 161 296 62 q 185 383 185 260 l 185 1067 l 95 1157 l 464 1157 l 375 1063 l 375 413 q 444 175 375 260 q 649 89 514 89 q 761 117 702 89 q 862 209 819 145 q 905 379 905 274 l 905 1063 l 812 1157 l 1123 1157 l 1036 1063 l 1036 371 q 927 68 1036 187 q 615 -50 817 -50 m 401 1375 l 639 1484 l 877 1375 l 877 1260 l 639 1355 l 401 1260 l 401 1375 z "},"ü":{"ha":1220,"x_min":95,"x_max":1123,"o":"m 615 -50 q 394 6 492 -50 q 240 161 296 62 q 185 383 185 260 l 185 1067 l 95 1157 l 464 1157 l 375 1063 l 375 413 q 444 175 375 260 q 649 89 514 89 q 761 117 702 89 q 862 209 819 145 q 905 379 905 274 l 905 1063 l 812 1157 l 1123 1157 l 1036 1063 l 1036 371 q 927 68 1036 187 q 615 -50 817 -50 z "},"ǘ":{"ha":1220,"x_min":95,"x_max":1123,"o":"m 615 -50 q 394 6 492 -50 q 240 161 296 62 q 185 383 185 260 l 185 1067 l 95 1157 l 464 1157 l 375 1063 l 375 413 q 444 175 375 260 q 649 89 514 89 q 761 117 702 89 q 862 209 819 145 q 905 379 905 274 l 905 1063 l 812 1157 l 1123 1157 l 1036 1063 l 1036 371 q 927 68 1036 187 q 615 -50 817 -50 z "},"ǚ":{"ha":1220,"x_min":95,"x_max":1123,"o":"m 615 -50 q 394 6 492 -50 q 240 161 296 62 q 185 383 185 260 l 185 1067 l 95 1157 l 464 1157 l 375 1063 l 375 413 q 444 175 375 260 q 649 89 514 89 q 761 117 702 89 q 862 209 819 145 q 905 379 905 274 l 905 1063 l 812 1157 l 1123 1157 l 1036 1063 l 1036 371 q 927 68 1036 187 q 615 -50 817 -50 z "},"ǜ":{"ha":1220,"x_min":95,"x_max":1123,"o":"m 615 -50 q 394 6 492 -50 q 240 161 296 62 q 185 383 185 260 l 185 1067 l 95 1157 l 464 1157 l 375 1063 l 375 413 q 444 175 375 260 q 649 89 514 89 q 761 117 702 89 q 862 209 819 145 q 905 379 905 274 l 905 1063 l 812 1157 l 1123 1157 l 1036 1063 l 1036 371 q 927 68 1036 187 q 615 -50 817 -50 z "},"ǖ":{"ha":1220,"x_min":95,"x_max":1123,"o":"m 615 -50 q 394 6 492 -50 q 240 161 296 62 q 185 383 185 260 l 185 1067 l 95 1157 l 464 1157 l 375 1063 l 375 413 q 444 175 375 260 q 649 89 514 89 q 761 117 702 89 q 862 209 819 145 q 905 379 905 274 l 905 1063 l 812 1157 l 1123 1157 l 1036 1063 l 1036 371 q 927 68 1036 187 q 615 -50 817 -50 z "},"ụ":{"ha":1220,"x_min":95,"x_max":1123,"o":"m 615 -50 q 394 6 492 -50 q 240 161 296 62 q 185 383 185 260 l 185 1067 l 95 1157 l 464 1157 l 375 1063 l 375 413 q 444 175 375 260 q 649 89 514 89 q 761 117 702 89 q 862 209 819 145 q 905 379 905 274 l 905 1063 l 812 1157 l 1123 1157 l 1036 1063 l 1036 371 q 927 68 1036 187 q 615 -50 817 -50 z "},"ù":{"ha":1220,"x_min":95,"x_max":1123,"o":"m 615 -50 q 394 6 492 -50 q 240 161 296 62 q 185 383 185 260 l 185 1067 l 95 1157 l 464 1157 l 375 1063 l 375 413 q 444 175 375 260 q 649 89 514 89 q 761 117 702 89 q 862 209 819 145 q 905 379 905 274 l 905 1063 l 812 1157 l 1123 1157 l 1036 1063 l 1036 371 q 927 68 1036 187 q 615 -50 817 -50 m 421 1540 l 498 1617 l 800 1331 l 722 1252 l 421 1540 z "},"ủ":{"ha":1220,"x_min":95,"x_max":1123,"o":"m 615 -50 q 394 6 492 -50 q 240 161 296 62 q 185 383 185 260 l 185 1067 l 95 1157 l 464 1157 l 375 1063 l 375 413 q 444 175 375 260 q 649 89 514 89 q 761 117 702 89 q 862 209 819 145 q 905 379 905 274 l 905 1063 l 812 1157 l 1123 1157 l 1036 1063 l 1036 371 q 927 68 1036 187 q 615 -50 817 -50 m 589 1242 q 607 1316 591 1292 q 653 1369 623 1341 q 680 1396 671 1383 q 688 1427 688 1409 q 687 1442 688 1437 q 629 1482 679 1482 q 589 1473 609 1482 q 562 1446 569 1464 l 512 1526 q 576 1584 538 1563 q 657 1605 615 1605 q 770 1552 724 1605 q 806 1454 806 1508 q 785 1372 806 1413 q 722 1302 764 1331 q 688 1272 698 1284 q 681 1242 679 1260 l 589 1242 z "},"ư":{"ha":1220,"x_min":95,"x_max":1232,"o":"m 1200 1270 q 1223 1241 1214 1260 q 1232 1200 1232 1222 q 1214 1143 1232 1173 q 1091 1077 1171 1077 q 1052 1081 1079 1077 l 1036 1063 l 1036 371 q 927 68 1036 187 q 615 -50 817 -50 q 394 6 492 -50 q 240 161 296 62 q 185 383 185 260 l 185 1067 l 95 1157 l 464 1157 l 375 1063 l 375 413 q 444 175 375 260 q 649 89 514 89 q 761 117 702 89 q 862 209 819 145 q 905 379 905 274 l 905 1063 l 812 1157 l 1063 1157 q 1050 1200 1050 1177 q 1069 1252 1050 1228 q 1145 1290 1101 1290 q 1200 1270 1179 1290 z "},"ứ":{"ha":1220,"x_min":95,"x_max":1232,"o":"m 1200 1270 q 1223 1241 1214 1260 q 1232 1200 1232 1222 q 1214 1143 1232 1173 q 1091 1077 1171 1077 q 1052 1081 1079 1077 l 1036 1063 l 1036 371 q 927 68 1036 187 q 615 -50 817 -50 q 394 6 492 -50 q 240 161 296 62 q 185 383 185 260 l 185 1067 l 95 1157 l 464 1157 l 375 1063 l 375 413 q 444 175 375 260 q 649 89 514 89 q 761 117 702 89 q 862 209 819 145 q 905 379 905 274 l 905 1063 l 812 1157 l 1063 1157 q 1050 1200 1050 1177 q 1069 1252 1050 1228 q 1145 1290 1101 1290 q 1200 1270 1179 1290 m 470 1331 l 772 1617 l 849 1540 l 548 1252 l 470 1331 z "},"ự":{"ha":1220,"x_min":95,"x_max":1232,"o":"m 1200 1270 q 1223 1241 1214 1260 q 1232 1200 1232 1222 q 1214 1143 1232 1173 q 1091 1077 1171 1077 q 1052 1081 1079 1077 l 1036 1063 l 1036 371 q 927 68 1036 187 q 615 -50 817 -50 q 394 6 492 -50 q 240 161 296 62 q 185 383 185 260 l 185 1067 l 95 1157 l 464 1157 l 375 1063 l 375 413 q 444 175 375 260 q 649 89 514 89 q 761 117 702 89 q 862 209 819 145 q 905 379 905 274 l 905 1063 l 812 1157 l 1063 1157 q 1050 1200 1050 1177 q 1069 1252 1050 1228 q 1145 1290 1101 1290 q 1200 1270 1179 1290 z "},"ừ":{"ha":1220,"x_min":95,"x_max":1232,"o":"m 1200 1270 q 1223 1241 1214 1260 q 1232 1200 1232 1222 q 1214 1143 1232 1173 q 1091 1077 1171 1077 q 1052 1081 1079 1077 l 1036 1063 l 1036 371 q 927 68 1036 187 q 615 -50 817 -50 q 394 6 492 -50 q 240 161 296 62 q 185 383 185 260 l 185 1067 l 95 1157 l 464 1157 l 375 1063 l 375 413 q 444 175 375 260 q 649 89 514 89 q 761 117 702 89 q 862 209 819 145 q 905 379 905 274 l 905 1063 l 812 1157 l 1063 1157 q 1050 1200 1050 1177 q 1069 1252 1050 1228 q 1145 1290 1101 1290 q 1200 1270 1179 1290 m 421 1540 l 498 1617 l 800 1331 l 722 1252 l 421 1540 z "},"ử":{"ha":1220,"x_min":95,"x_max":1232,"o":"m 1200 1270 q 1223 1241 1214 1260 q 1232 1200 1232 1222 q 1214 1143 1232 1173 q 1091 1077 1171 1077 q 1052 1081 1079 1077 l 1036 1063 l 1036 371 q 927 68 1036 187 q 615 -50 817 -50 q 394 6 492 -50 q 240 161 296 62 q 185 383 185 260 l 185 1067 l 95 1157 l 464 1157 l 375 1063 l 375 413 q 444 175 375 260 q 649 89 514 89 q 761 117 702 89 q 862 209 819 145 q 905 379 905 274 l 905 1063 l 812 1157 l 1063 1157 q 1050 1200 1050 1177 q 1069 1252 1050 1228 q 1145 1290 1101 1290 q 1200 1270 1179 1290 m 589 1242 q 607 1316 591 1292 q 653 1369 623 1341 q 680 1396 671 1383 q 688 1427 688 1409 q 687 1442 688 1437 q 629 1482 679 1482 q 589 1473 609 1482 q 562 1446 569 1464 l 512 1526 q 576 1584 538 1563 q 657 1605 615 1605 q 770 1552 724 1605 q 806 1454 806 1508 q 785 1372 806 1413 q 722 1302 764 1331 q 688 1272 698 1284 q 681 1242 679 1260 l 589 1242 z "},"ữ":{"ha":1220,"x_min":95,"x_max":1232,"o":"m 1200 1270 q 1223 1241 1214 1260 q 1232 1200 1232 1222 q 1214 1143 1232 1173 q 1091 1077 1171 1077 q 1052 1081 1079 1077 l 1036 1063 l 1036 371 q 927 68 1036 187 q 615 -50 817 -50 q 394 6 492 -50 q 240 161 296 62 q 185 383 185 260 l 185 1067 l 95 1157 l 464 1157 l 375 1063 l 375 413 q 444 175 375 260 q 649 89 514 89 q 761 117 702 89 q 862 209 819 145 q 905 379 905 274 l 905 1063 l 812 1157 l 1063 1157 q 1050 1200 1050 1177 q 1069 1252 1050 1228 q 1145 1290 1101 1290 q 1200 1270 1179 1290 m 347 1290 q 341 1290 343 1286 q 341 1300 339 1294 q 504 1427 383 1427 q 653 1395 562 1427 q 823 1355 766 1355 q 931 1389 883 1355 q 937 1389 935 1393 q 937 1379 938 1385 q 772 1260 901 1260 q 613 1292 708 1260 q 522 1320 558 1312 q 456 1329 486 1329 q 347 1290 399 1329 z "},"ű":{"ha":1220,"x_min":95,"x_max":1123,"o":"m 615 -50 q 394 6 492 -50 q 240 161 296 62 q 185 383 185 260 l 185 1067 l 95 1157 l 464 1157 l 375 1063 l 375 413 q 444 175 375 260 q 649 89 514 89 q 761 117 702 89 q 862 209 819 145 q 905 379 905 274 l 905 1063 l 812 1157 l 1123 1157 l 1036 1063 l 1036 371 q 927 68 1036 187 q 615 -50 817 -50 z "},"ū":{"ha":1220,"x_min":95,"x_max":1123,"o":"m 615 -50 q 394 6 492 -50 q 240 161 296 62 q 185 383 185 260 l 185 1067 l 95 1157 l 464 1157 l 375 1063 l 375 413 q 444 175 375 260 q 649 89 514 89 q 761 117 702 89 q 862 209 819 145 q 905 379 905 274 l 905 1063 l 812 1157 l 1123 1157 l 1036 1063 l 1036 371 q 927 68 1036 187 q 615 -50 817 -50 m 349 1391 l 929 1391 l 929 1286 l 349 1286 l 349 1391 z "},"ų":{"ha":1220,"x_min":95,"x_max":1123,"o":"m 1123 1157 l 1036 1063 l 1036 371 q 942 84 1036 198 q 673 -48 849 -30 q 619 -100 639 -69 q 599 -161 599 -131 q 603 -187 599 -171 q 626 -215 609 -204 q 665 -226 643 -226 q 736 -200 702 -226 l 782 -258 q 716 -317 756 -298 q 635 -337 677 -337 q 529 -298 573 -337 q 484 -190 484 -258 q 560 -46 484 -101 q 365 25 450 -34 q 232 177 280 83 q 185 383 185 270 l 185 1067 l 95 1157 l 464 1157 l 375 1063 l 375 413 q 444 175 375 260 q 649 89 514 89 q 761 117 702 89 q 862 209 819 145 q 905 379 905 274 l 905 1063 l 812 1157 l 1123 1157 z "},"ů":{"ha":1220,"x_min":95,"x_max":1123,"o":"m 639 1149 q 508 1205 565 1149 q 450 1335 450 1262 q 507 1467 450 1413 q 639 1522 563 1522 q 769 1465 712 1522 q 825 1335 825 1409 q 769 1204 825 1260 q 639 1149 712 1149 m 639 1244 q 703 1270 679 1244 q 728 1335 728 1296 q 703 1400 728 1375 q 639 1425 679 1425 q 572 1400 597 1425 q 548 1335 548 1375 q 572 1270 548 1296 q 639 1244 597 1244 m 615 -50 q 394 6 492 -50 q 240 161 296 62 q 185 383 185 260 l 185 1067 l 95 1157 l 464 1157 l 375 1063 l 375 413 q 444 175 375 260 q 649 89 514 89 q 761 117 702 89 q 862 209 819 145 q 905 379 905 274 l 905 1063 l 812 1157 l 1123 1157 l 1036 1063 l 1036 371 q 927 68 1036 187 q 615 -50 817 -50 z "},"ũ":{"ha":1220,"x_min":95,"x_max":1123,"o":"m 615 -50 q 394 6 492 -50 q 240 161 296 62 q 185 383 185 260 l 185 1067 l 95 1157 l 464 1157 l 375 1063 l 375 413 q 444 175 375 260 q 649 89 514 89 q 761 117 702 89 q 862 209 819 145 q 905 379 905 274 l 905 1063 l 812 1157 l 1123 1157 l 1036 1063 l 1036 371 q 927 68 1036 187 q 615 -50 817 -50 m 347 1290 q 341 1290 343 1286 q 341 1300 339 1294 q 504 1427 383 1427 q 653 1395 562 1427 q 823 1355 766 1355 q 931 1389 883 1355 q 937 1389 935 1393 q 937 1379 938 1385 q 772 1260 901 1260 q 613 1292 708 1260 q 522 1320 558 1312 q 456 1329 486 1329 q 347 1290 399 1329 z "},"v":{"ha":1306,"x_min":75,"x_max":1230,"o":"m 200 1054 l 75 1157 l 484 1157 l 411 1075 l 698 351 l 988 1067 l 911 1157 l 1230 1157 l 1125 1054 l 673 -69 q 668 -76 671 -77 q 663 -69 665 -75 l 200 1054 z "},"w":{"ha":1744,"x_min":75,"x_max":1667,"o":"m 204 1044 l 75 1157 l 474 1157 l 403 1075 l 661 407 l 915 1216 q 920 1220 915 1220 q 925 1216 925 1220 l 1200 431 l 1421 1085 l 1371 1157 l 1667 1157 l 1560 1062 l 1183 -75 q 1173 -75 1179 -89 l 903 698 l 651 -87 q 641 -87 647 -99 l 204 1044 z "},"ẃ":{"ha":1744,"x_min":75,"x_max":1667,"o":"m 204 1044 l 75 1157 l 474 1157 l 403 1075 l 661 407 l 915 1216 q 920 1220 915 1220 q 925 1216 925 1220 l 1200 431 l 1421 1085 l 1371 1157 l 1667 1157 l 1560 1062 l 1183 -75 q 1173 -75 1179 -89 l 903 698 l 651 -87 q 641 -87 647 -99 l 204 1044 m 752 1383 l 1054 1669 l 1131 1591 l 829 1304 l 752 1383 z "},"ŵ":{"ha":1744,"x_min":75,"x_max":1667,"o":"m 204 1044 l 75 1157 l 474 1157 l 403 1075 l 661 407 l 915 1216 q 920 1220 915 1220 q 925 1216 925 1220 l 1200 431 l 1421 1085 l 1371 1157 l 1667 1157 l 1560 1062 l 1183 -75 q 1173 -75 1179 -89 l 903 698 l 651 -87 q 641 -87 647 -99 l 204 1044 m 683 1427 l 921 1536 l 1159 1427 l 1159 1312 l 921 1407 l 683 1312 l 683 1427 z "},"ẅ":{"ha":1744,"x_min":75,"x_max":1667,"o":"m 204 1044 l 75 1157 l 474 1157 l 403 1075 l 661 407 l 915 1216 q 920 1220 915 1220 q 925 1216 925 1220 l 1200 431 l 1421 1085 l 1371 1157 l 1667 1157 l 1560 1062 l 1183 -75 q 1173 -75 1179 -89 l 903 698 l 651 -87 q 641 -87 647 -99 l 204 1044 z "},"ẁ":{"ha":1744,"x_min":75,"x_max":1667,"o":"m 204 1044 l 75 1157 l 474 1157 l 403 1075 l 661 407 l 915 1216 q 920 1220 915 1220 q 925 1216 925 1220 l 1200 431 l 1421 1085 l 1371 1157 l 1667 1157 l 1560 1062 l 1183 -75 q 1173 -75 1179 -89 l 903 698 l 651 -87 q 641 -87 647 -99 l 204 1044 m 702 1591 l 780 1669 l 1081 1383 l 1004 1304 l 702 1591 z "},"x":{"ha":1228,"x_min":89,"x_max":1139,"o":"m 196 93 l 522 633 l 292 1073 l 169 1157 l 562 1157 l 514 1087 l 645 837 l 794 1087 l 746 1157 l 1062 1157 l 948 1073 l 720 690 l 1032 93 l 1139 0 l 746 0 l 810 79 l 599 488 l 351 73 l 405 0 l 89 0 l 196 93 z "},"y":{"ha":1222,"x_min":73,"x_max":1145,"o":"m 528 93 l 528 659 l 214 1062 l 73 1157 l 518 1157 l 452 1081 l 679 778 l 877 1089 l 827 1157 l 1145 1157 q 1022 1060 1032 1077 l 728 601 l 728 93 l 817 0 l 437 0 l 528 93 z "},"ý":{"ha":1222,"x_min":73,"x_max":1145,"o":"m 528 93 l 528 659 l 214 1062 l 73 1157 l 518 1157 l 452 1081 l 679 778 l 877 1089 l 827 1157 l 1145 1157 q 1022 1060 1032 1077 l 728 601 l 728 93 l 817 0 l 437 0 l 528 93 m 498 1331 l 800 1617 l 877 1540 l 575 1252 l 498 1331 z "},"ŷ":{"ha":1222,"x_min":73,"x_max":1145,"o":"m 528 93 l 528 659 l 214 1062 l 73 1157 l 518 1157 l 452 1081 l 679 778 l 877 1089 l 827 1157 l 1145 1157 q 1022 1060 1032 1077 l 728 601 l 728 93 l 817 0 l 437 0 l 528 93 m 429 1375 l 667 1484 l 905 1375 l 905 1260 l 667 1355 l 429 1260 l 429 1375 z "},"ÿ":{"ha":1222,"x_min":73,"x_max":1145,"o":"m 528 93 l 528 659 l 214 1062 l 73 1157 l 518 1157 l 452 1081 l 679 778 l 877 1089 l 827 1157 l 1145 1157 q 1022 1060 1032 1077 l 728 601 l 728 93 l 817 0 l 437 0 l 528 93 z "},"ỵ":{"ha":1222,"x_min":73,"x_max":1145,"o":"m 528 93 l 528 659 l 214 1062 l 73 1157 l 518 1157 l 452 1081 l 679 778 l 877 1089 l 827 1157 l 1145 1157 q 1022 1060 1032 1077 l 728 601 l 728 93 l 817 0 l 437 0 l 528 93 z "},"ỳ":{"ha":1222,"x_min":73,"x_max":1145,"o":"m 528 93 l 528 659 l 214 1062 l 73 1157 l 518 1157 l 452 1081 l 679 778 l 877 1089 l 827 1157 l 1145 1157 q 1022 1060 1032 1077 l 728 601 l 728 93 l 817 0 l 437 0 l 528 93 m 448 1540 l 526 1617 l 827 1331 l 750 1252 l 448 1540 z "},"ỷ":{"ha":1222,"x_min":73,"x_max":1145,"o":"m 528 93 l 528 659 l 214 1062 l 73 1157 l 518 1157 l 452 1081 l 679 778 l 877 1089 l 827 1157 l 1145 1157 q 1022 1060 1032 1077 l 728 601 l 728 93 l 817 0 l 437 0 l 528 93 m 617 1242 q 635 1316 619 1292 q 681 1369 651 1341 q 707 1396 698 1383 q 716 1427 716 1409 q 714 1442 716 1437 q 657 1482 706 1482 q 617 1473 637 1482 q 589 1446 597 1464 l 540 1526 q 604 1584 565 1563 q 685 1605 643 1605 q 798 1552 752 1605 q 833 1454 833 1508 q 813 1372 833 1413 q 750 1302 792 1331 q 716 1272 726 1284 q 708 1242 706 1260 l 617 1242 z "},"ỹ":{"ha":1222,"x_min":73,"x_max":1145,"o":"m 528 93 l 528 659 l 214 1062 l 73 1157 l 518 1157 l 452 1081 l 679 778 l 877 1089 l 827 1157 l 1145 1157 q 1022 1060 1032 1077 l 728 601 l 728 93 l 817 0 l 437 0 l 528 93 m 375 1290 q 369 1290 371 1286 q 369 1300 367 1294 q 532 1427 411 1427 q 681 1395 589 1427 q 851 1355 794 1355 q 958 1389 911 1355 q 964 1389 962 1393 q 964 1379 966 1385 q 800 1260 929 1260 q 641 1292 736 1260 q 550 1320 585 1312 q 484 1329 514 1329 q 375 1290 427 1329 z "},"z":{"ha":1024,"x_min":79,"x_max":935,"o":"m 89 0 q 83 8 79 0 l 599 1022 l 208 1022 l 107 944 l 127 1157 l 879 1157 q 885 1153 883 1157 q 885 1145 887 1149 l 373 141 l 839 141 l 935 222 l 915 0 l 89 0 z "},"ź":{"ha":1024,"x_min":79,"x_max":935,"o":"m 89 0 q 83 8 79 0 l 599 1022 l 208 1022 l 107 944 l 127 1157 l 879 1157 q 885 1153 883 1157 q 885 1145 887 1149 l 373 141 l 839 141 l 935 222 l 915 0 l 89 0 m 355 1331 l 657 1617 l 734 1540 l 433 1252 l 355 1331 z "},"ž":{"ha":1024,"x_min":79,"x_max":935,"o":"m 89 0 q 83 8 79 0 l 599 1022 l 208 1022 l 107 944 l 127 1157 l 879 1157 q 885 1153 883 1157 q 885 1145 887 1149 l 373 141 l 839 141 l 935 222 l 915 0 l 89 0 m 524 1381 l 762 1476 l 762 1361 l 524 1252 l 286 1361 l 286 1476 l 524 1381 z "},"ż":{"ha":1024,"x_min":79,"x_max":935,"o":"m 89 0 q 83 8 79 0 l 599 1022 l 208 1022 l 107 944 l 127 1157 l 879 1157 q 885 1153 883 1157 q 885 1145 887 1149 l 373 141 l 839 141 l 935 222 l 915 0 l 89 0 z "},".":{"ha":409,"x_min":99,"x_max":310,"o":"m 204 -36 q 130 -5 161 -36 q 99 69 99 26 q 130 144 99 113 q 204 175 161 175 q 279 144 248 175 q 310 69 310 113 q 279 -5 310 26 q 204 -36 248 -36 z "},",":{"ha":399,"x_min":99,"x_max":300,"o":"m 145 -97 q 136 -95 137 -99 q 139 -87 135 -91 q 165 -8 165 -44 q 116 27 133 2 q 99 79 99 52 q 127 157 99 125 q 200 188 155 188 q 269 157 238 188 q 300 69 300 125 q 255 -40 300 6 q 145 -97 210 -85 z "},":":{"ha":409,"x_min":99,"x_max":310,"o":"m 204 -36 q 130 -5 161 -36 q 99 69 99 26 q 130 144 99 113 q 204 175 161 175 q 279 144 248 175 q 310 69 310 113 q 279 -5 310 26 q 204 -36 248 -36 m 204 619 q 130 650 161 619 q 99 724 99 681 q 130 799 99 768 q 204 829 161 829 q 279 799 248 829 q 310 724 310 768 q 279 650 310 681 q 204 619 248 619 z "},";":{"ha":409,"x_min":99,"x_max":310,"o":"m 204 619 q 130 650 161 619 q 99 724 99 681 q 130 799 99 768 q 204 829 161 829 q 279 799 248 829 q 310 724 310 768 q 279 650 310 681 q 204 619 248 619 m 149 -97 q 140 -95 141 -99 q 143 -87 139 -91 q 169 -8 169 -44 q 120 27 137 2 q 103 79 103 52 q 131 157 103 125 q 204 188 159 188 q 273 157 242 188 q 304 69 304 125 q 259 -40 304 6 q 149 -97 214 -85 z "},"…":{"ha":1171,"x_min":99,"x_max":1071,"o":"m 966 -36 q 892 -5 923 -36 q 861 69 861 26 q 892 144 861 113 q 966 175 923 175 q 1041 144 1010 175 q 1071 69 1071 113 q 1041 -5 1071 26 q 966 -36 1010 -36 m 204 -36 q 130 -5 161 -36 q 99 69 99 26 q 130 144 99 113 q 204 175 161 175 q 279 144 248 175 q 310 69 310 113 q 279 -5 310 26 q 204 -36 248 -36 m 587 -36 q 513 -5 544 -36 q 482 69 482 26 q 513 144 482 113 q 587 175 544 175 q 662 144 631 175 q 692 69 692 113 q 662 -5 692 26 q 587 -36 631 -36 z "},"!":{"ha":425,"x_min":99,"x_max":325,"o":"m 99 1389 l 325 1389 l 284 313 l 143 313 l 99 1389 m 212 -36 q 138 -5 169 -36 q 107 69 107 26 q 138 144 107 113 q 212 175 169 175 q 287 144 256 175 q 317 69 317 113 q 287 -5 317 26 q 212 -36 256 -36 z "},"¡":{"ha":425,"x_min":99,"x_max":325,"o":"m 212 1409 q 287 1378 256 1409 q 317 1304 317 1347 q 287 1229 317 1260 q 212 1198 256 1198 q 138 1229 169 1198 q 107 1304 107 1260 q 138 1378 107 1347 q 212 1409 169 1409 m 284 1060 l 325 -16 l 99 -16 l 143 1060 l 284 1060 z "},"?":{"ha":982,"x_min":71,"x_max":891,"o":"m 367 312 q 388 491 365 413 q 443 624 411 569 q 530 748 476 679 q 623 892 593 831 q 653 1034 653 952 q 614 1174 653 1115 q 500 1256 575 1232 q 438 1266 472 1266 q 283 1193 351 1266 q 196 1032 214 1121 l 71 1069 q 97 1188 77 1125 q 169 1312 117 1248 q 303 1421 220 1375 q 490 1466 385 1466 q 684 1416 591 1466 q 833 1271 776 1365 q 891 1054 891 1177 q 865 907 891 972 q 803 794 839 841 q 702 679 766 746 q 562 502 609 579 q 508 312 514 425 l 367 312 m 438 -34 q 364 -3 395 -34 q 333 71 333 28 q 364 146 333 115 q 438 177 395 177 q 513 146 482 177 q 544 71 544 115 q 513 -3 544 28 q 438 -34 482 -34 z "},"¿":{"ha":982,"x_min":91,"x_max":911,"o":"m 544 1200 q 618 1170 587 1200 q 649 1095 649 1139 q 618 1021 649 1052 q 544 990 587 990 q 469 1021 500 990 q 438 1095 438 1052 q 469 1170 438 1139 q 544 1200 500 1200 m 615 855 q 594 676 617 754 q 539 543 571 597 q 452 419 506 488 q 359 275 389 335 q 329 133 329 214 q 368 -7 329 52 q 482 -89 407 -65 q 544 -99 510 -99 q 699 -27 631 -99 q 786 135 768 46 l 911 97 q 885 -22 905 42 q 813 -145 865 -81 q 680 -254 762 -208 q 492 -300 597 -300 q 299 -249 391 -300 q 149 -104 206 -198 q 91 113 91 -10 q 117 260 91 194 q 180 373 143 325 q 280 488 216 421 q 421 665 373 587 q 474 855 468 742 l 615 855 z "},"·":{"ha":488,"x_min":139,"x_max":349,"o":"m 244 621 q 170 652 200 621 q 139 726 139 683 q 170 801 139 770 q 244 831 200 831 q 318 801 288 831 q 349 726 349 770 q 318 652 349 683 q 244 621 288 621 z "},"•":{"ha":587,"x_min":139,"x_max":448,"o":"m 294 573 q 184 618 228 573 q 139 726 139 663 q 183 838 139 794 q 294 883 226 883 q 405 837 361 883 q 448 730 448 792 q 404 617 448 661 q 294 573 359 573 z "},"*":{"ha":766,"x_min":75,"x_max":690,"o":"m 502 1111 l 645 933 l 520 849 l 385 1044 l 248 849 l 121 933 l 266 1111 l 75 1171 l 125 1310 l 315 1240 l 306 1466 l 460 1466 l 452 1240 l 641 1310 l 690 1171 l 502 1111 z "},"#":{"ha":1306,"x_min":119,"x_max":1187,"o":"m 942 839 l 871 609 l 1091 609 l 1058 504 l 837 504 l 651 -85 l 516 -85 l 702 504 l 474 504 l 288 -85 l 153 -85 l 339 504 l 119 504 l 155 609 l 373 609 l 444 839 l 220 839 l 256 944 l 478 944 l 649 1482 l 784 1482 l 613 944 l 841 944 l 1012 1482 l 1147 1482 l 976 944 l 1187 944 l 1153 839 l 942 839 m 808 839 l 579 839 l 508 609 l 736 609 l 808 839 z "},"/":{"ha":810,"x_min":89,"x_max":720,"o":"m 89 -85 l 585 1482 l 720 1482 l 224 -85 l 89 -85 z "},"\\":{"ha":810,"x_min":89,"x_max":720,"o":"m 89 1482 l 224 1482 l 720 -85 l 585 -85 l 89 1482 z "},"(":{"ha":673,"x_min":79,"x_max":605,"o":"m 593 -119 q 335 58 452 -69 q 149 355 218 185 q 79 702 79 526 q 147 1055 79 887 q 330 1343 214 1222 q 591 1514 446 1464 q 600 1511 597 1516 q 599 1502 603 1506 q 358 1144 444 1351 q 270 702 272 937 q 365 261 270 474 q 601 -107 460 48 q 602 -116 605 -111 q 593 -119 599 -121 z "},")":{"ha":673,"x_min":67,"x_max":593,"o":"m 79 -119 q 70 -116 73 -121 q 71 -107 67 -111 q 308 261 212 48 q 403 702 403 474 q 314 1144 401 937 q 73 1502 228 1351 q 72 1511 69 1506 q 81 1514 75 1516 q 342 1343 226 1464 q 526 1055 458 1222 q 593 702 593 887 q 524 355 593 526 q 337 58 454 185 q 79 -119 220 -69 z "},"{":{"ha":681,"x_min":69,"x_max":581,"o":"m 579 -139 q 528 -143 556 -143 q 337 -85 413 -143 q 222 61 268 -32 q 177 256 177 153 l 177 442 q 150 568 177 524 q 69 615 123 613 l 69 786 q 150 824 123 784 q 177 954 177 865 l 177 1147 q 337 1468 177 1339 q 442 1516 377 1500 q 560 1532 508 1532 l 581 1530 l 581 1415 q 446 1371 500 1415 q 382 1270 397 1331 q 365 1091 367 1208 l 363 849 q 343 765 363 806 q 294 702 323 724 q 343 637 323 681 q 363 548 363 593 l 365 312 q 386 117 367 188 q 446 14 405 46 q 579 -26 502 -30 l 579 -139 z "},"}":{"ha":681,"x_min":99,"x_max":611,"o":"m 101 -26 q 234 14 179 -30 q 295 117 276 46 q 315 312 313 188 l 317 548 q 337 637 317 593 q 387 702 357 681 q 337 765 357 724 q 317 849 317 806 l 315 1091 q 299 1270 313 1208 q 234 1371 284 1331 q 99 1415 181 1415 l 99 1530 l 121 1532 q 238 1516 173 1532 q 343 1468 304 1500 q 504 1147 504 1339 l 504 954 q 531 824 504 865 q 611 786 558 784 l 611 615 q 531 568 558 613 q 504 442 504 524 l 504 256 q 458 61 504 153 q 343 -85 413 -32 q 153 -143 268 -143 q 101 -139 125 -143 l 101 -26 z "},"[":{"ha":603,"x_min":119,"x_max":500,"o":"m 119 1558 l 500 1558 l 500 1425 l 317 1425 l 317 -36 l 500 -36 l 500 -171 l 119 -171 l 119 1558 z "},"]":{"ha":603,"x_min":99,"x_max":480,"o":"m 99 -171 l 99 -36 l 282 -36 l 282 1425 l 99 1425 l 99 1558 l 480 1558 l 480 -171 l 99 -171 z "},"-":{"ha":752,"x_min":119,"x_max":633,"o":"m 119 812 l 633 812 l 633 637 l 119 637 l 119 812 z "},"–":{"ha":1060,"x_min":119,"x_max":940,"o":"m 119 812 l 940 812 l 940 637 l 119 637 l 119 812 z "},"—":{"ha":1266,"x_min":119,"x_max":1147,"o":"m 119 812 l 1147 812 l 1147 637 l 119 637 l 119 812 z "},"_":{"ha":1143,"x_min":109,"x_max":1034,"o":"m 109 -50 l 1034 -50 l 1034 -183 l 109 -183 l 109 -50 z "},"‚":{"ha":399,"x_min":99,"x_max":300,"o":"m 145 -97 q 136 -95 137 -99 q 139 -87 135 -91 q 165 -8 165 -44 q 116 27 133 2 q 99 79 99 52 q 127 157 99 125 q 200 188 155 188 q 269 157 238 188 q 300 69 300 125 q 255 -40 300 6 q 145 -97 210 -85 z "},"„":{"ha":704,"x_min":99,"x_max":605,"o":"m 450 -97 q 441 -95 442 -99 q 444 -87 440 -91 q 470 -8 470 -44 q 422 27 438 2 q 405 79 405 52 q 433 157 405 125 q 506 188 460 188 q 574 157 544 188 q 605 69 605 125 q 561 -40 605 6 q 450 -97 516 -85 m 145 -97 q 136 -95 137 -99 q 139 -87 135 -91 q 165 -8 165 -44 q 116 27 133 2 q 99 79 99 52 q 127 157 99 125 q 200 188 155 188 q 269 157 238 188 q 300 69 300 125 q 255 -40 300 6 q 145 -97 210 -85 z "},"“":{"ha":710,"x_min":99,"x_max":611,"o":"m 254 1425 q 263 1423 262 1427 q 260 1415 264 1419 q 234 1335 234 1371 q 283 1301 266 1325 q 300 1248 300 1276 q 272 1171 300 1202 q 198 1139 244 1139 q 130 1171 161 1139 q 99 1258 99 1202 q 144 1367 99 1321 q 254 1425 188 1413 m 565 1425 q 574 1423 573 1427 q 571 1415 575 1419 q 546 1335 546 1371 q 594 1301 577 1325 q 611 1248 611 1276 q 583 1171 611 1202 q 510 1139 556 1139 q 441 1171 472 1139 q 411 1258 411 1202 q 455 1367 411 1321 q 565 1425 500 1413 z "},"”":{"ha":712,"x_min":99,"x_max":613,"o":"m 145 1143 q 136 1145 137 1141 q 139 1153 135 1149 q 165 1232 165 1196 q 116 1267 133 1242 q 99 1319 99 1292 q 127 1397 99 1365 q 200 1429 155 1429 q 269 1397 238 1429 q 300 1310 300 1365 q 255 1200 300 1246 q 145 1143 210 1155 m 458 1143 q 449 1145 450 1141 q 452 1153 448 1149 q 478 1232 478 1196 q 430 1267 446 1242 q 413 1319 413 1292 q 440 1397 413 1365 q 514 1429 468 1429 q 582 1397 552 1429 q 613 1310 613 1365 q 568 1200 613 1246 q 458 1143 524 1155 z "},"‘":{"ha":399,"x_min":99,"x_max":300,"o":"m 254 1427 q 263 1425 262 1429 q 260 1417 264 1421 q 234 1337 234 1373 q 283 1303 266 1327 q 300 1250 300 1278 q 272 1173 300 1204 q 198 1141 244 1141 q 130 1173 161 1141 q 99 1260 99 1204 q 144 1369 99 1323 q 254 1427 188 1415 z "},"’":{"ha":399,"x_min":99,"x_max":300,"o":"m 145 1143 q 136 1145 137 1141 q 139 1153 135 1149 q 165 1232 165 1196 q 116 1267 133 1242 q 99 1319 99 1292 q 127 1397 99 1365 q 200 1429 155 1429 q 269 1397 238 1429 q 300 1310 300 1365 q 255 1200 300 1246 q 145 1143 210 1155 z "},"«":{"ha":1032,"x_min":69,"x_max":911,"o":"z "},"»":{"ha":1038,"x_min":119,"x_max":960,"o":"m 119 560 l 329 728 l 119 897 l 119 1095 l 569 728 l 119 361 l 119 560 m 510 560 l 720 728 l 510 897 l 510 1095 l 960 728 l 510 361 l 510 560 z "},"‹":{"ha":639,"x_min":69,"x_max":520,"o":"m 69 728 l 520 1095 l 520 897 l 310 728 l 520 560 l 520 361 l 69 728 z "},"›":{"ha":639,"x_min":119,"x_max":569,"o":"m 119 560 l 329 728 l 119 897 l 119 1095 l 569 728 l 119 361 l 119 560 z "},"\"":{"ha":613,"x_min":89,"x_max":522,"o":"m 89 1437 l 240 1437 l 240 1077 l 89 1077 l 89 1437 m 371 1437 l 522 1437 l 522 1077 l 371 1077 l 371 1437 z "},"'":{"ha":345,"x_min":89,"x_max":240,"o":"m 89 1437 l 240 1437 l 240 1077 l 89 1077 l 89 1437 z "},"¢":{"ha":1282,"x_min":95,"x_max":1175,"o":"m 760 1206 q 512 1128 613 1206 q 362 934 411 1050 q 313 704 313 817 q 373 439 313 554 q 535 264 433 325 q 760 202 637 202 q 993 273 889 202 q 1153 466 1097 343 l 1175 466 l 1175 252 q 1001 132 1099 177 q 788 77 903 87 l 788 -12 l 647 -12 l 647 77 q 366 184 492 95 q 168 409 240 272 q 95 704 95 546 q 169 999 95 863 q 368 1222 242 1135 q 649 1327 494 1310 l 649 1407 l 790 1407 l 790 1327 q 1002 1273 903 1317 q 1175 1153 1101 1228 l 1175 950 l 1151 950 q 993 1139 1097 1071 q 760 1206 889 1206 z "},"$":{"ha":1069,"x_min":123,"x_max":946,"o":"m 581 933 q 769 749 696 827 q 894 571 841 671 q 946 363 946 472 q 938 282 946 319 q 829 75 917 167 q 617 -48 742 -16 l 617 -149 l 476 -149 l 476 -62 l 470 -62 q 356 -40 409 -58 q 242 12 304 -22 q 143 -69 214 -10 l 123 339 q 204 222 127 333 q 427 93 282 111 q 462 91 438 91 q 634 152 560 91 q 708 339 708 212 q 684 457 708 407 q 615 553 659 508 q 456 704 571 597 q 251 935 317 835 q 185 1133 185 1034 q 218 1278 185 1208 q 321 1392 252 1351 q 478 1446 391 1433 l 478 1528 l 619 1528 l 619 1446 q 813 1393 720 1437 q 911 1444 841 1401 l 827 1095 l 752 1252 q 597 1304 683 1304 q 485 1264 526 1304 q 444 1161 444 1224 q 469 1063 444 1115 q 544 966 494 1012 l 581 933 z "},"€":{"ha":1607,"x_min":30,"x_max":1492,"o":"m 994 1298 q 678 1188 804 1298 q 496 915 552 1079 l 776 915 l 716 782 l 464 782 q 458 694 458 738 l 458 665 l 677 665 l 617 532 l 474 532 q 661 210 518 327 q 994 93 804 93 q 1274 178 1149 93 q 1464 409 1399 262 l 1492 409 l 1492 153 q 1249 -6 1389 50 q 948 -62 1109 -62 q 616 16 772 -62 q 354 228 460 93 q 212 532 248 363 l 30 532 l 89 665 l 194 665 l 194 694 q 200 782 194 740 l 48 782 l 107 915 l 226 915 q 380 1190 274 1069 q 634 1380 486 1312 q 948 1448 782 1448 q 1249 1393 1109 1448 q 1492 1234 1389 1337 l 1492 990 l 1462 990 q 1274 1216 1399 1135 q 994 1298 1149 1298 z "},"£":{"ha":1127,"x_min":131,"x_max":1000,"o":"m 1000 321 l 1000 0 l 131 0 l 131 175 q 318 287 242 214 q 395 458 395 359 q 387 518 395 488 q 345 637 371 579 l 173 637 l 173 812 l 264 812 q 218 1008 228 897 q 216 1052 216 1022 q 275 1266 216 1173 q 428 1409 333 1359 q 623 1458 522 1458 q 838 1400 746 1458 q 984 1260 931 1341 l 829 1048 l 813 1208 q 661 1272 744 1272 q 607 1264 631 1272 q 485 1181 528 1242 q 442 1036 442 1119 q 446 990 442 1022 q 492 812 456 913 l 841 812 l 841 637 l 548 637 q 567 532 558 595 q 571 474 571 492 q 538 311 571 389 q 444 175 504 232 l 865 175 l 1000 321 z "},"+":{"ha":804,"x_min":119,"x_max":685,"o":"m 685 637 l 488 637 l 488 440 l 313 440 l 313 637 l 119 637 l 119 812 l 313 812 l 313 1006 l 488 1006 l 488 812 l 685 812 l 685 637 z "},"−":{"ha":752,"x_min":119,"x_max":633,"o":"m 119 812 l 633 812 l 633 637 l 119 637 l 119 812 z "},"×":{"ha":762,"x_min":119,"x_max":643,"o":"m 520 450 l 381 589 l 242 450 l 119 573 l 258 712 l 121 849 l 244 972 l 381 835 l 518 972 l 641 849 l 504 712 l 643 573 l 520 450 z "},"÷":{"ha":865,"x_min":119,"x_max":736,"o":"m 429 891 q 361 919 389 891 q 333 984 333 946 q 361 1052 333 1024 q 429 1079 389 1079 q 495 1052 468 1079 q 522 984 522 1024 q 495 919 522 946 q 429 891 468 891 m 119 812 l 736 812 l 736 637 l 119 637 l 119 812 m 429 363 q 361 391 389 363 q 333 456 333 419 q 361 524 333 496 q 429 552 389 552 q 495 524 468 552 q 522 456 522 496 q 495 391 522 419 q 429 363 468 363 z "},"=":{"ha":804,"x_min":119,"x_max":685,"o":"m 119 964 l 685 964 l 685 790 l 119 790 l 119 964 m 119 661 l 685 661 l 685 486 l 119 486 l 119 661 z "},">":{"ha":641,"x_min":119,"x_max":569,"o":"m 119 560 l 329 728 l 119 897 l 119 1095 l 569 728 l 119 361 l 119 560 z "},"<":{"ha":649,"x_min":69,"x_max":520,"o":"m 69 728 l 520 1095 l 520 897 l 310 728 l 520 560 l 520 361 l 69 728 z "},"≈":{"ha":865,"x_min":119,"x_max":712,"o":"m 119 661 q 252 712 161 712 q 435 677 331 712 q 605 637 548 637 q 712 671 665 637 l 712 516 q 591 464 669 464 q 395 508 520 464 q 303 537 337 528 q 236 546 268 546 q 119 506 179 546 l 119 661 m 119 954 q 252 1006 161 1006 q 435 970 331 1006 q 605 931 548 931 q 712 964 665 931 l 712 810 q 591 758 669 758 q 395 802 520 758 q 303 830 337 821 q 236 839 268 839 q 119 800 179 839 l 119 954 z "},"~":{"ha":859,"x_min":119,"x_max":712,"o":"m 119 802 q 252 853 161 853 q 435 817 331 853 q 605 778 548 778 q 712 812 665 778 l 712 657 q 591 605 669 605 q 395 649 520 605 q 303 678 337 669 q 236 687 268 687 q 119 647 179 687 l 119 802 z "},"^":{"ha":877,"x_min":69,"x_max":804,"o":"m 437 1409 l 804 958 l 605 958 l 437 1169 l 268 958 l 69 958 l 437 1409 z "},"%":{"ha":1407,"x_min":69,"x_max":1337,"o":"m 266 -83 l 960 1484 l 1149 1484 l 454 -83 l 266 -83 m 339 875 q 209 914 272 875 q 108 1015 147 952 q 69 1145 69 1077 q 108 1278 69 1216 q 208 1376 147 1339 q 339 1413 270 1413 q 468 1374 407 1413 q 568 1274 530 1335 q 607 1145 607 1212 q 569 1011 607 1073 q 469 912 532 948 q 339 875 407 875 m 339 1012 q 431 1052 391 1012 q 470 1145 470 1091 q 431 1236 470 1196 q 339 1276 391 1276 q 246 1236 286 1276 q 206 1145 206 1196 q 246 1052 206 1091 q 339 1012 286 1012 m 1069 -24 q 939 15 1002 -24 q 838 116 877 54 q 800 246 800 179 q 838 379 800 317 q 938 477 877 440 q 1069 514 1000 514 q 1198 475 1137 514 q 1299 375 1260 437 q 1337 246 1337 313 q 1300 112 1337 175 q 1199 13 1262 50 q 1069 -24 1137 -24 m 1069 113 q 1161 153 1121 113 q 1200 246 1200 192 q 1161 337 1200 298 q 1069 377 1121 377 q 976 337 1016 377 q 937 246 937 298 q 976 153 937 192 q 1069 113 1016 113 z "},"@":{"ha":1742,"x_min":95,"x_max":1647,"o":"m 550 -34 q 218 211 341 32 q 95 619 95 391 q 153 927 95 778 q 335 1206 214 1087 q 617 1390 456 1325 q 952 1454 778 1454 q 1282 1395 1117 1454 q 1548 1186 1448 1333 q 1647 863 1647 1038 q 1611 667 1647 764 q 1504 486 1575 569 q 1353 365 1450 425 q 1187 288 1256 306 q 1103 276 1131 276 q 988 415 988 276 q 990 460 988 444 q 722 292 839 331 q 627 274 669 274 q 480 399 516 274 q 464 522 464 458 q 507 774 464 643 q 607 982 550 905 q 712 1078 647 1036 q 849 1145 778 1121 q 976 1163 903 1163 q 1122 1148 1048 1163 q 1242 1113 1196 1133 l 1149 599 q 1137 500 1137 538 q 1181 423 1137 423 q 1196 425 1190 423 q 1344 506 1274 446 q 1458 671 1415 565 q 1494 921 1502 776 q 1406 1138 1488 1040 q 1208 1272 1323 1236 q 962 1308 1089 1308 q 574 1198 748 1308 q 319 875 401 1089 q 270 609 270 744 q 359 292 270 429 q 607 103 448 155 q 831 69 712 69 q 1072 103 954 69 q 1280 202 1190 137 l 1327 115 q 1091 -18 1242 30 q 782 -65 940 -65 q 550 -34 647 -65 m 696 444 q 841 521 770 466 q 961 634 913 575 q 1020 720 1010 692 l 1071 1020 q 990 1030 1022 1030 q 780 935 877 1030 q 677 752 718 871 q 635 540 635 633 q 650 462 635 488 q 696 444 665 437 z "},"&":{"ha":1464,"x_min":123,"x_max":1377,"o":"m 746 -20 q 617 -38 681 -38 q 349 42 472 -38 q 167 256 226 121 q 123 458 123 351 q 183 691 123 581 q 349 871 242 802 q 266 1093 266 966 q 310 1256 266 1181 q 431 1380 353 1335 q 597 1425 508 1425 q 661 1419 627 1425 l 748 1399 l 865 1474 l 865 1089 l 796 1173 q 712 1240 762 1216 q 611 1264 663 1264 q 506 1234 552 1264 q 442 1147 460 1204 q 435 1095 435 1123 q 484 981 435 1026 q 603 937 534 937 q 710 968 661 937 l 710 736 q 609 756 659 756 q 479 718 538 756 q 385 617 421 681 q 347 472 347 550 q 421 272 347 357 q 520 197 464 222 q 635 173 575 173 q 784 211 712 173 q 896 320 855 250 q 933 478 937 391 q 814 438 869 476 q 746 341 760 399 l 635 339 q 743 574 639 488 q 1018 683 847 661 q 1249 778 1171 702 q 1339 984 1327 853 l 1361 984 q 1377 867 1377 931 q 1308 644 1377 742 q 1105 512 1238 546 q 1109 454 1109 472 q 1063 247 1109 345 q 936 78 1018 149 q 746 -20 853 8 z "},"©":{"ha":1742,"x_min":115,"x_max":1627,"o":"m 875 -62 q 489 40 663 -62 q 215 314 315 141 q 115 696 115 488 q 216 1076 115 903 q 491 1351 317 1250 q 871 1452 665 1452 q 1251 1351 1077 1452 q 1526 1076 1425 1250 q 1627 696 1627 903 q 1527 316 1627 490 q 1255 41 1427 143 q 875 -62 1083 -62 m 871 81 q 1181 163 1040 81 q 1403 386 1321 244 q 1484 696 1484 528 q 1402 1005 1484 865 q 1180 1227 1319 1145 q 871 1310 1040 1310 q 563 1227 702 1310 q 340 1005 423 1145 q 258 696 258 865 q 339 387 258 528 q 561 164 421 246 q 871 81 700 81 m 883 196 q 638 263 750 196 q 459 444 526 329 q 393 694 393 560 q 459 944 393 829 q 638 1126 526 1060 q 883 1192 750 1192 q 1079 1156 988 1192 q 1238 1052 1171 1119 l 1238 889 l 1218 889 q 1095 1040 1177 986 q 913 1093 1014 1093 q 719 1031 798 1093 q 603 876 641 968 q 565 694 565 784 q 612 485 565 575 q 738 346 659 395 q 913 298 817 298 q 1095 353 1014 298 q 1218 506 1177 409 l 1238 506 l 1238 337 q 1079 232 1171 268 q 883 196 988 196 z "},"®":{"ha":1742,"x_min":115,"x_max":1627,"o":"m 871 1452 q 1251 1351 1077 1452 q 1526 1076 1425 1250 q 1627 696 1627 903 q 1527 316 1627 490 q 1255 41 1427 143 q 875 -62 1083 -62 q 489 40 663 -62 q 215 314 315 141 q 115 696 115 488 q 216 1076 115 903 q 491 1351 317 1250 q 871 1452 665 1452 m 1329 284 q 1443 473 1403 367 q 1484 696 1484 579 q 1402 1005 1484 865 q 1180 1227 1319 1145 q 871 1310 1040 1310 q 563 1227 702 1310 q 340 1005 423 1145 q 258 696 258 865 q 339 387 258 528 q 561 164 421 246 q 871 81 700 81 q 1105 126 996 81 q 1300 252 1214 171 l 1060 252 q 1105 315 1097 296 l 857 653 l 782 653 l 782 323 q 849 254 800 294 l 558 254 q 627 323 609 302 l 627 1054 q 550 1135 613 1075 l 915 1135 q 1087 1072 1020 1135 q 1155 899 1155 1010 q 1118 767 1155 821 q 1018 683 1081 712 l 1280 323 q 1329 284 1290 312 m 782 764 q 839 754 815 754 q 959 801 911 754 q 1000 921 1008 847 q 951 1013 992 992 q 827 1034 911 1034 l 782 1034 l 782 764 z "},"™":{"ha":2052,"x_min":91,"x_max":1944,"o":"m 1119 1101 l 1097 595 l 1161 536 l 929 536 l 996 603 l 1030 1302 l 946 1391 l 1143 1391 l 1450 766 l 1734 1391 l 1915 1391 l 1845 1333 l 1877 603 l 1944 536 l 1663 536 l 1728 603 l 1712 1089 l 1427 486 q 1423 484 1425 484 q 1421 486 1421 484 l 1119 1101 m 393 601 l 393 1292 l 179 1292 l 91 1220 l 113 1389 l 823 1389 l 845 1220 l 758 1292 l 544 1292 l 544 601 l 607 534 l 325 534 l 393 601 z "},"°":{"ha":710,"x_min":83,"x_max":621,"o":"m 353 921 q 223 959 286 921 q 122 1061 161 998 q 83 1190 83 1123 q 122 1323 83 1262 q 222 1422 161 1385 q 353 1458 284 1458 q 482 1420 421 1458 q 582 1319 544 1381 q 621 1190 621 1258 q 583 1057 621 1119 q 483 957 546 994 q 353 921 421 921 m 353 1058 q 444 1097 405 1058 q 484 1190 484 1137 q 444 1282 484 1242 q 353 1321 405 1321 q 260 1282 300 1321 q 220 1190 220 1242 q 260 1097 220 1137 q 353 1058 300 1058 z "},"|":{"ha":492,"x_min":159,"x_max":333,"o":"m 159 1411 l 333 1411 l 333 -212 l 159 -212 l 159 1411 z "},"̈":{"ha":0,"x_min":-748,"x_max":-99,"o":"m -204 1496 q -279 1527 -248 1496 q -310 1601 -310 1558 q -279 1676 -310 1645 q -204 1706 -248 1706 q -130 1676 -161 1706 q -99 1601 -99 1645 q -130 1527 -99 1558 q -204 1496 -161 1496 m -643 1496 q -717 1527 -687 1496 q -748 1601 -748 1558 q -717 1676 -748 1645 q -643 1706 -687 1706 q -568 1676 -599 1706 q -538 1601 -538 1645 q -568 1527 -538 1558 q -643 1496 -599 1496 z "},"̇":{"ha":0,"x_min":-310,"x_max":-99,"o":"m -204 1496 q -279 1527 -248 1496 q -310 1601 -310 1558 q -279 1676 -310 1645 q -204 1706 -248 1706 q -130 1676 -161 1706 q -99 1601 -99 1645 q -130 1527 -99 1558 q -204 1496 -161 1496 z "},"̀":{"ha":0,"x_min":-478,"x_max":-99,"o":"m -478 1772 l -401 1849 l -99 1563 l -177 1484 l -478 1772 z "},"́":{"ha":0,"x_min":-478,"x_max":-99,"o":"m -478 1563 l -177 1849 l -99 1772 l -401 1484 l -478 1563 z "},"̋":{"ha":0,"x_min":-696,"x_max":-30,"o":"z "},"̂":{"ha":0,"x_min":-575,"x_max":-99,"o":"m -575 1607 l -337 1716 l -99 1607 l -99 1492 l -337 1587 l -575 1492 l -575 1607 z "},"̌":{"ha":0,"x_min":-575,"x_max":-99,"o":"m -337 1613 l -99 1708 l -99 1593 l -337 1484 l -575 1593 l -575 1708 l -337 1613 z "},"̆":{"ha":0,"x_min":-625,"x_max":-99,"o":"m -361 1492 q -520 1533 -442 1492 q -625 1627 -597 1573 l -563 1708 q -472 1634 -526 1663 q -361 1605 -419 1605 q -250 1634 -304 1605 q -159 1708 -196 1663 l -99 1627 q -206 1532 -131 1571 q -361 1492 -282 1492 z "},"̊":{"ha":0,"x_min":-506,"x_max":-99,"o":"m -302 1323 q -444 1386 -383 1323 q -506 1528 -506 1448 q -444 1671 -506 1611 q -302 1730 -383 1730 q -161 1669 -222 1730 q -99 1528 -99 1607 q -161 1384 -99 1444 q -302 1323 -222 1323 m -302 1429 q -231 1456 -258 1429 q -204 1528 -204 1484 q -231 1598 -204 1571 q -302 1625 -258 1625 q -373 1598 -345 1625 q -401 1528 -401 1571 q -374 1456 -401 1484 q -302 1429 -347 1429 z "},"̃":{"ha":0,"x_min":-698,"x_max":-99,"o":"m -690 1522 q -696 1522 -694 1518 q -696 1532 -698 1526 q -534 1659 -655 1659 q -385 1627 -476 1659 q -214 1587 -272 1587 q -107 1621 -155 1587 q -101 1621 -103 1625 q -101 1611 -99 1617 q -266 1492 -137 1492 q -425 1524 -329 1492 q -516 1553 -480 1544 q -581 1562 -552 1562 q -690 1522 -639 1562 z "},"̄":{"ha":0,"x_min":-679,"x_max":-99,"o":"m -679 1623 l -99 1623 l -99 1518 l -679 1518 l -679 1623 z "},"̉":{"ha":0,"x_min":-393,"x_max":-99,"o":"m -315 1476 q -298 1551 -313 1526 q -252 1603 -282 1575 q -225 1630 -234 1617 q -216 1661 -216 1643 q -218 1677 -216 1671 q -276 1716 -226 1716 q -315 1707 -296 1716 q -343 1681 -335 1698 l -393 1760 q -328 1818 -367 1798 q -248 1839 -290 1839 q -135 1786 -181 1839 q -99 1688 -99 1742 q -120 1606 -99 1647 q -183 1536 -141 1565 q -216 1506 -206 1518 q -224 1476 -226 1494 l -315 1476 z "},"̒":{"ha":0,"x_min":-300,"x_max":-99,"o":"m -145 1819 q -136 1817 -137 1821 q -139 1810 -135 1813 q -165 1730 -165 1766 q -116 1695 -133 1720 q -99 1643 -99 1671 q -127 1565 -99 1597 q -200 1534 -155 1534 q -269 1565 -238 1534 q -300 1653 -300 1597 q -255 1762 -300 1716 q -145 1819 -210 1808 z "},"̛":{"ha":0,"x_min":-339,"x_max":-99,"o":"m -331 1264 q -329 1276 -339 1270 q -266 1315 -288 1290 q -280 1363 -280 1337 q -262 1415 -280 1395 q -187 1452 -230 1452 q -131 1433 -153 1452 q -108 1404 -117 1423 q -99 1363 -99 1385 q -117 1306 -99 1335 q -240 1240 -161 1240 q -331 1264 -290 1240 z "},"̣":{"ha":0,"x_min":-310,"x_max":-99,"o":"m -204 -325 q -279 -295 -248 -325 q -310 -220 -310 -264 q -279 -146 -310 -177 q -204 -115 -248 -115 q -130 -146 -161 -115 q -99 -220 -99 -177 q -130 -295 -99 -264 q -204 -325 -161 -325 z "},"̦":{"ha":0,"x_min":-280,"x_max":-99,"o":"m -238 -373 q -247 -371 -246 -375 q -244 -365 -248 -367 q -220 -294 -220 -323 q -264 -261 -248 -284 q -280 -214 -280 -238 q -254 -146 -280 -175 q -188 -117 -228 -117 q -128 -145 -157 -117 q -99 -220 -99 -173 q -139 -321 -99 -280 q -238 -373 -179 -363 z "},"̧":{"ha":0,"x_min":-397,"x_max":-99,"o":"m -353 -220 q -274 -244 -310 -244 q -214 -187 -214 -244 q -245 -126 -214 -147 q -333 -105 -276 -105 l -268 42 l -159 42 l -200 -48 q -131 -98 -163 -62 q -99 -192 -99 -135 q -148 -303 -99 -260 q -260 -345 -196 -345 q -337 -327 -302 -345 q -397 -272 -373 -310 l -353 -220 z "},"̨":{"ha":0,"x_min":-397,"x_max":-99,"o":"m -99 -222 q -165 -282 -125 -262 q -246 -302 -204 -302 q -352 -262 -308 -302 q -397 -155 -397 -222 q -366 -54 -397 -93 q -298 5 -335 -14 q -244 22 -260 24 l -246 22 l -159 14 q -249 -46 -216 -6 q -282 -125 -282 -85 q -278 -151 -282 -135 q -255 -180 -272 -169 q -216 -190 -238 -190 q -145 -165 -179 -190 l -99 -222 z "},"̵":{"ha":0,"x_min":-685,"x_max":-119,"o":"m -685 812 l -119 812 l -119 637 l -685 637 l -685 812 z "},"̶":{"ha":0,"x_min":-940,"x_max":-119,"o":"m -940 808 l -119 808 l -119 633 l -940 633 l -940 808 z "},"̷":{"ha":0,"x_min":-629,"x_max":-99,"o":"m -629 -87 l -212 1228 l -99 1228 l -516 -87 l -629 -87 z "},"̸":{"ha":0,"x_min":-730,"x_max":-99,"o":"m -730 -85 l -234 1482 l -99 1482 l -595 -85 l -730 -85 z "},"´":{"ha":577,"x_min":99,"x_max":478,"o":"m 99 1563 l 401 1849 l 478 1772 l 177 1484 l 99 1563 z "},"˘":{"ha":724,"x_min":99,"x_max":625,"o":"m 363 1492 q 204 1533 282 1492 q 99 1627 127 1573 l 161 1708 q 252 1634 198 1663 q 363 1605 306 1605 q 474 1634 421 1605 q 565 1708 528 1663 l 625 1627 q 518 1532 593 1571 q 363 1492 442 1492 z "},"ˇ":{"ha":675,"x_min":99,"x_max":575,"o":"m 337 1613 l 575 1708 l 575 1593 l 337 1484 l 99 1593 l 99 1708 l 337 1613 z "},"¸":{"ha":496,"x_min":99,"x_max":397,"o":"m 143 -220 q 222 -244 187 -244 q 282 -187 282 -244 q 251 -126 282 -147 q 163 -105 220 -105 l 228 42 l 337 42 l 296 -48 q 365 -98 333 -62 q 397 -192 397 -135 q 348 -303 397 -260 q 236 -345 300 -345 q 159 -327 194 -345 q 99 -272 123 -310 l 143 -220 z "},"ˆ":{"ha":675,"x_min":99,"x_max":575,"o":"m 99 1607 l 337 1716 l 575 1607 l 575 1492 l 337 1587 l 99 1492 l 99 1607 z "},"¨":{"ha":847,"x_min":99,"x_max":748,"o":"m 643 1496 q 568 1527 599 1496 q 538 1601 538 1558 q 568 1676 538 1645 q 643 1706 599 1706 q 717 1676 687 1706 q 748 1601 748 1645 q 717 1527 748 1558 q 643 1496 687 1496 m 204 1496 q 130 1527 161 1496 q 99 1601 99 1558 q 130 1676 99 1645 q 204 1706 161 1706 q 279 1676 248 1706 q 310 1601 310 1645 q 279 1527 310 1558 q 204 1496 248 1496 z "},"˙":{"ha":409,"x_min":99,"x_max":310,"o":"m 204 1496 q 130 1527 161 1496 q 99 1601 99 1558 q 130 1676 99 1645 q 204 1706 161 1706 q 279 1676 248 1706 q 310 1601 310 1645 q 279 1527 310 1558 q 204 1496 248 1496 z "},"`":{"ha":577,"x_min":99,"x_max":478,"o":"m 99 1772 l 177 1849 l 478 1563 l 401 1484 l 99 1772 z "},"˝":{"ha":796,"x_min":99,"x_max":766,"o":"z "},"¯":{"ha":778,"x_min":99,"x_max":679,"o":"m 99 1623 l 679 1623 l 679 1518 l 99 1518 l 99 1623 z "},"˛":{"ha":496,"x_min":99,"x_max":397,"o":"m 397 -222 q 331 -282 371 -262 q 250 -302 292 -302 q 144 -262 188 -302 q 99 -155 99 -222 q 130 -54 99 -93 q 198 5 161 -14 q 252 22 236 24 l 250 22 l 337 14 q 247 -46 280 -6 q 214 -125 214 -85 q 218 -151 214 -135 q 241 -180 224 -169 q 280 -190 258 -190 q 351 -165 317 -190 l 397 -222 z "},"˚":{"ha":605,"x_min":99,"x_max":506,"o":"m 304 1323 q 161 1386 222 1323 q 99 1528 99 1448 q 161 1671 99 1611 q 304 1730 222 1730 q 444 1669 383 1730 q 506 1528 506 1607 q 444 1384 506 1444 q 304 1323 383 1323 m 304 1429 q 374 1456 347 1429 q 401 1528 401 1484 q 374 1598 401 1571 q 304 1625 347 1625 q 232 1598 260 1625 q 204 1528 204 1571 q 231 1456 204 1484 q 304 1429 258 1429 z "},"˜":{"ha":798,"x_min":99,"x_max":698,"o":"m 107 1522 q 101 1522 103 1518 q 101 1532 99 1526 q 264 1659 143 1659 q 413 1627 321 1659 q 583 1587 526 1587 q 690 1621 643 1587 q 696 1621 694 1625 q 696 1611 698 1617 q 532 1492 661 1492 q 373 1524 468 1492 q 282 1553 317 1544 q 216 1562 246 1562 q 107 1522 159 1562 z "}}}
